<?xml version="1.0" standalone="no"?>
<!DOCTYPE svg PUBLIC "-//W3C//DTD SVG 20010904//EN"
 "http://www.w3.org/TR/2001/REC-SVG-20010904/DTD/svg10.dtd">
<svg version="1.0" xmlns="http://www.w3.org/2000/svg"
 width="300.000000pt" height="347.000000pt" viewBox="0 0 300.000000 347.000000"
 preserveAspectRatio="xMidYMid meet">
<metadata>
Created by potrace 1.10, written by Peter Selinger 2001-2011
</metadata>
<g transform="translate(0.000000,347.000000) scale(0.100000,-0.100000)"
fill="#000000" stroke="none">
<path d="M2993 3380 c0 -41 2 -58 4 -37 2 20 2 54 0 75 -2 20 -4 3 -4 -38z"/>
<path d="M2994 2855 c0 -99 2 -138 3 -87 2 51 2 132 0 180 -1 48 -3 6 -3 -93z"/>
<path d="M2993 2550 c0 -47 2 -66 4 -42 2 23 2 61 0 85 -2 23 -4 4 -4 -43z"/>
<path d="M2993 2395 c0 -38 2 -53 4 -32 2 20 2 52 0 70 -2 17 -4 1 -4 -38z"/>
<path d="M1951 2400 c-30 -5 -63 -13 -75 -19 -12 -5 -62 -27 -113 -48 -130
-55 -198 -119 -316 -301 l-28 -43 27 5 c15 3 32 11 38 17 8 9 8 10 -1 5 -7 -4
-13 -2 -13 3 0 6 7 11 16 11 9 0 12 5 8 11 -4 7 -1 10 7 7 16 -5 54 62 58 105
1 4 7 7 15 7 8 0 24 9 37 21 13 11 19 18 12 15 -6 -4 -15 -1 -19 5 -4 8 -3 9
5 5 6 -4 14 -1 17 7 3 9 17 18 31 22 16 4 23 11 19 20 -3 9 0 12 10 8 18 -7
46 15 37 30 -3 6 -1 7 5 3 7 -4 12 -2 12 3 0 6 5 11 11 11 5 0 8 -4 4 -9 -3
-5 0 -13 6 -17 8 -5 9 -3 4 6 -5 9 -1 11 16 6 13 -3 18 -3 12 0 -19 8 -16 24
5 24 9 0 29 6 44 14 36 19 179 20 223 2 18 -8 35 -12 38 -10 2 3 30 -5 61 -17
54 -20 111 -60 101 -71 -3 -3 1 -11 10 -18 8 -7 15 -20 15 -30 0 -9 9 -29 20
-43 11 -14 20 -30 20 -35 0 -6 10 -23 23 -39 13 -15 29 -47 35 -69 14 -47 16
-240 3 -248 -4 -3 -6 -17 -3 -32 2 -14 1 -29 -4 -33 -5 -3 -25 -37 -44 -76
-20 -40 -61 -97 -97 -135 -98 -103 -113 -120 -113 -130 0 -5 -68 -78 -151
-162 -178 -181 -244 -256 -235 -266 4 -3 25 13 46 37 21 24 44 40 50 36 6 -3
10 -3 9 2 -4 25 3 35 20 30 15 -3 18 -1 14 11 -4 10 -2 13 5 8 7 -4 12 -2 12
4 0 7 16 28 35 47 19 19 35 39 35 44 0 5 5 9 10 9 6 0 34 25 63 56 29 31 60
65 70 75 9 11 17 23 17 28 0 5 7 12 16 15 12 5 15 2 10 -9 -3 -9 -2 -13 3 -10
6 3 9 13 9 23 -1 29 19 65 62 112 26 29 43 40 46 33 3 -7 10 -13 15 -13 6 0 7
4 4 10 -7 12 15 57 65 131 21 31 47 74 58 96 20 38 20 41 4 58 -9 10 -11 15
-4 11 9 -5 12 9 13 56 3 152 -1 180 -39 253 -21 38 -43 76 -51 84 -7 8 -22 35
-33 60 -39 92 -43 101 -50 101 -5 0 -8 -5 -8 -12 0 -6 -7 -4 -18 5 -10 10 -26
17 -35 17 -9 0 -18 4 -21 9 -3 4 -25 11 -48 15 -72 11 -110 27 -104 42 6 15 6
15 -73 4z"/>
<path d="M855 2381 c3 -5 -2 -17 -11 -25 -14 -15 -10 -16 43 -10 56 5 149 -16
206 -47 10 -5 21 -8 25 -5 4 2 13 -2 20 -10 11 -12 10 -14 -4 -14 -9 0 11 -20
44 -45 34 -25 70 -61 82 -79 11 -19 30 -36 41 -39 12 -3 19 -10 16 -14 -3 -5
12 -28 34 -52 22 -23 37 -46 34 -51 -10 -16 12 -46 33 -47 20 -2 39 24 26 36
-4 3 -9 0 -11 -7 -3 -6 -9 -10 -14 -6 -5 3 -9 -1 -9 -8 0 -9 -3 -9 -10 2 -5 8
-7 24 -4 35 11 42 -136 219 -253 305 -47 34 -181 73 -239 68 -30 -2 -40 0 -37
10 3 6 0 12 -7 12 -6 0 -9 -4 -5 -9z"/>
<path d="M705 2342 c-16 -1 -39 -6 -50 -11 -11 -5 -45 -14 -75 -21 -83 -20
-155 -63 -146 -87 3 -8 1 -11 -4 -8 -6 3 -10 1 -10 -4 0 -6 -7 -11 -15 -11 -9
0 -12 -6 -9 -15 4 -8 1 -15 -5 -15 -11 0 -45 -65 -53 -100 -2 -8 -8 -20 -14
-27 -15 -16 -10 -198 8 -273 7 -30 23 -73 36 -94 29 -49 56 -109 53 -119 -3
-16 33 -65 56 -78 13 -7 23 -18 23 -25 0 -17 52 -74 67 -74 13 0 43 -50 43
-73 0 -12 65 -78 114 -117 18 -14 19 -13 13 3 -4 9 -2 17 4 17 7 0 9 -10 5
-23 -4 -19 8 -38 64 -99 38 -41 66 -79 62 -83 -4 -4 3 -3 15 4 27 14 45 14 21
0 -19 -11 -25 -39 -8 -39 5 0 6 8 3 18 -6 15 -5 15 10 3 9 -7 17 -21 17 -31 0
-17 62 -63 87 -64 6 -1 37 -28 68 -61 32 -33 74 -78 95 -101 22 -22 55 -49 74
-59 20 -11 39 -27 42 -37 8 -25 85 -89 105 -86 9 2 23 -3 31 -10 13 -11 20 -7
43 20 15 18 67 76 116 129 106 115 159 180 159 196 0 6 6 14 13 16 9 4 9 6 0
6 -6 1 -15 -3 -18 -9 -10 -17 -25 -11 -18 7 4 11 3 14 -5 9 -7 -4 -12 -13 -12
-21 0 -7 -3 -15 -7 -18 -5 -2 -2 -2 5 -1 9 3 10 -1 3 -14 -15 -27 -100 -117
-105 -111 -3 2 13 24 36 47 47 50 48 63 0 21 -18 -16 -29 -29 -25 -29 5 -1 -1
-9 -12 -18 -11 -10 -45 -47 -75 -82 -89 -106 -107 -123 -115 -109 -6 8 -4 10
6 4 8 -5 11 -4 6 0 -4 5 -24 10 -44 12 -37 4 -52 17 -64 58 -3 11 -11 19 -18
17 -6 -1 -14 5 -17 13 -4 8 -13 15 -21 15 -8 0 -11 5 -8 10 4 6 3 10 -2 9 -22
-4 -33 3 -33 21 0 11 -4 20 -10 20 -5 0 -25 16 -44 35 -20 19 -40 35 -46 35
-5 0 -10 9 -10 19 0 13 -24 35 -72 67 -89 58 -112 79 -103 93 3 6 1 11 -4 11
-6 0 -11 8 -11 18 0 14 -2 15 -10 2 -7 -11 -10 -11 -10 -2 0 7 -4 11 -9 8 -5
-3 -26 10 -47 29 -21 19 -33 35 -27 35 7 0 18 -6 25 -12 23 -21 55 -37 62 -31
7 7 -65 59 -76 55 -5 -1 -7 1 -5 6 1 4 -39 48 -88 98 -50 51 -89 96 -88 101 3
8 -17 32 -52 61 -8 7 -12 19 -9 25 4 7 4 9 0 6 -10 -9 -136 123 -136 143 0 9
-16 46 -35 83 -20 40 -35 84 -37 111 -2 24 -6 44 -10 44 -5 0 -8 -5 -8 -12 0
-6 -3 -8 -6 -5 -4 4 -1 13 5 21 8 10 9 16 1 21 -5 3 -10 0 -10 -7 0 -8 -5 -5
-11 5 -16 27 -3 140 21 187 15 29 16 38 6 34 -17 -7 45 120 74 151 11 12 18
24 16 26 -3 3 4 5 15 6 10 1 26 9 35 17 15 15 29 20 48 17 4 -1 14 3 21 9 6 5
25 12 41 14 16 2 36 7 44 10 25 10 174 14 193 4 12 -6 17 -5 17 7 0 8 -9 15
-19 15 -11 0 -22 3 -24 8 -3 4 -22 7 -44 7 -21 0 -40 2 -43 5 -3 3 -18 4 -35
2z m881 -1628 c-14 -15 -26 -30 -26 -34 0 -4 -7 -11 -15 -14 -11 -4 -13 -2 -8
7 23 38 50 66 62 67 8 0 4 -10 -13 -26z"/>
<path d="M916 2324 c-3 -9 -2 -12 5 -9 5 4 16 2 24 -5 8 -7 15 -7 19 -1 4 6
-2 15 -13 20 -26 14 -28 14 -35 -5z"/>
<path d="M2993 2255 c0 -38 2 -53 4 -32 2 20 2 52 0 70 -2 17 -4 1 -4 -38z"/>
<path d="M1035 2260 c-5 -9 15 -15 38 -11 4 0 7 -3 7 -8 0 -5 8 -12 18 -14 14
-4 14 -6 -5 -12 -25 -8 -31 -25 -10 -25 7 0 18 9 24 19 10 16 9 21 -10 33 -34
22 -56 28 -62 18z"/>
<path d="M120 2183 c-14 -5 -37 -34 -32 -40 4 -5 12 -3 12 3 -1 3 9 14 22 24
24 20 23 22 -2 13z"/>
<path d="M2389 2155 c16 -19 36 -54 42 -77 8 -28 14 -37 17 -25 5 26 -16 77
-46 110 -38 40 -49 33 -13 -8z"/>
<path d="M1210 2133 c0 -7 27 -28 52 -43 14 -8 16 -7 12 5 -4 8 -13 15 -21 15
-8 0 -12 4 -9 9 3 5 -3 11 -14 14 -11 3 -20 3 -20 0z"/>
<path d="M2993 2025 c0 -44 2 -61 4 -37 2 23 2 59 0 80 -2 20 -4 1 -4 -43z"/>
<path d="M1185 1953 c-13 -30 -12 -50 2 -75 12 -22 12 -21 6 12 -3 19 -7 37
-9 39 -2 2 1 10 8 18 6 7 9 16 6 19 -3 3 -9 -3 -13 -13z"/>
<path d="M1611 1889 c-12 -34 -15 -66 -5 -56 3 3 6 9 6 14 1 4 8 13 17 20 9 7
11 13 4 13 -6 0 -9 9 -6 20 8 32 -4 23 -16 -11z"/>
<path d="M1086 1869 c3 -5 12 -9 20 -9 8 0 12 -4 9 -10 -3 -5 -1 -10 5 -10 6
0 9 -4 5 -9 -3 -5 0 -13 6 -17 8 -4 9 -3 5 4 -4 7 -2 12 5 12 18 0 -18 37 -42
43 -10 3 -17 1 -13 -4z"/>
<path d="M1787 1840 c-24 -24 -33 -41 -26 -45 6 -4 16 -2 22 5 9 10 9 11 0 6
-21 -12 -15 8 7 21 16 10 47 54 38 53 -2 -1 -20 -18 -41 -40z"/>
<path d="M964 1848 c2 -15 7 -33 13 -40 6 -7 12 -20 14 -29 3 -11 11 -13 29
-8 20 6 21 7 5 8 -14 1 -27 16 -41 49 -17 36 -21 41 -20 20z"/>
<path d="M1308 1823 c6 -2 12 -10 12 -16 0 -7 15 -12 35 -13 19 0 35 3 35 8 0
4 -13 8 -29 8 -17 0 -33 5 -36 10 -3 6 -12 10 -18 9 -9 0 -9 -2 1 -6z"/>
<path d="M2993 1745 c0 -38 2 -53 4 -32 2 20 2 52 0 70 -2 17 -4 1 -4 -38z"/>
<path d="M1354 1738 c2 -15 -1 -25 -5 -22 -5 3 -9 0 -9 -5 0 -12 -35 -10 -47
3 -4 4 -1 11 7 16 13 8 12 10 -2 10 -25 0 -30 -16 -11 -31 17 -15 113 -20 113
-7 0 10 30 10 31 1 1 -10 5 -33 14 -71 4 -21 2 -32 -7 -35 -7 -2 -2 -2 12 0
l25 5 -29 -27 c-17 -16 -26 -32 -22 -41 4 -10 1 -14 -6 -11 -7 2 -18 -3 -24
-12 -10 -13 -14 -13 -28 -2 -17 15 -13 33 7 25 17 -6 22 96 5 119 -15 19 -86
38 -74 18 4 -6 11 -9 15 -6 5 2 16 -13 26 -35 17 -37 17 -41 1 -65 -19 -29
-52 -33 -95 -10 -30 15 -45 40 -35 56 3 5 1 9 -4 9 -16 0 -22 -13 -12 -25 11
-13 -9 -17 -47 -9 -27 5 -29 17 -7 38 8 9 13 16 10 16 -12 0 -51 -25 -63 -40
-10 -13 -14 -13 -27 5 -15 20 -15 20 -16 0 0 -16 -2 -17 -10 -5 -5 8 -6 17 -2
21 15 12 123 40 132 34 6 -3 10 -2 10 4 0 6 15 14 33 19 l32 9 -32 5 c-18 2
-30 1 -28 -3 6 -9 -81 -33 -93 -25 -6 3 -12 2 -14 -4 -2 -6 -13 -12 -26 -15
-20 -3 -21 -2 -10 18 10 20 10 21 -5 8 -29 -24 -22 -93 19 -177 48 -98 116
-154 189 -154 14 0 25 -4 25 -8 0 -9 53 -5 80 5 8 3 25 7 36 9 41 5 81 33 137
95 55 61 60 74 72 166 2 18 7 38 11 45 4 7 4 10 -1 6 -5 -5 -14 1 -22 12 -19
26 -50 26 -48 0 2 -25 15 -39 15 -17 0 10 5 17 11 17 6 0 9 -6 6 -14 -3 -8 -1
-17 6 -19 9 -3 9 -8 -2 -20 -7 -9 -11 -24 -7 -32 3 -8 2 -15 -3 -15 -4 0 -13
-18 -20 -39 -11 -38 -33 -57 -52 -46 -5 4 -6 -1 -2 -10 3 -10 0 -21 -8 -26
-12 -7 -12 -10 -1 -18 11 -7 10 -9 -3 -14 -9 -4 -14 -3 -11 2 3 5 -1 12 -10
15 -23 9 -27 8 -21 -8 4 -9 -8 -19 -36 -29 -38 -14 -71 -15 -132 -3 -11 3 -24
5 -30 6 -5 0 -19 7 -29 15 -17 13 -17 17 -5 32 13 16 12 17 -3 4 -16 -12 -18
-10 -18 20 0 19 7 42 15 53 13 17 15 17 37 2 12 -9 35 -16 50 -16 25 0 28 -4
28 -34 0 -18 6 -38 13 -44 20 -17 67 -33 67 -23 0 5 -13 12 -29 16 -31 7 -51
45 -24 45 12 0 12 2 -1 16 -21 21 -20 36 2 32 9 -2 18 -13 20 -26 2 -12 8 -22
14 -22 5 0 18 -10 27 -22 14 -17 18 -18 18 -5 0 9 -6 18 -14 21 -21 8 -15 36
7 36 20 0 25 10 20 40 -1 8 1 12 5 8 4 -3 15 1 25 10 32 29 48 41 51 39 2 -2
-7 9 -21 23 -14 14 -28 24 -33 22 -4 -2 -2 8 5 22 6 14 15 26 20 26 5 0 7 4 4
8 -3 5 1 9 8 9 8 0 12 -6 9 -14 -7 -17 5 -17 22 1 12 12 12 16 0 26 -8 7 -15
9 -15 5 0 -4 -7 -1 -17 6 -13 11 -17 11 -20 2 -6 -17 -23 -16 -23 1 0 21 -49
27 -60 7 -8 -14 -10 -14 -24 4 -14 19 -15 19 -12 -7z m-207 -172 c-2 -5 -9
-12 -17 -14 -8 -3 -10 0 -5 8 5 8 3 11 -5 8 -8 -2 -16 -10 -18 -16 -5 -17 40
-15 64 3 23 17 34 19 34 4 0 -14 -26 -39 -40 -39 -6 0 -8 -4 -5 -10 11 -17 15
-81 6 -75 -6 3 -14 -3 -20 -12 -6 -10 -11 -13 -11 -7 0 5 5 15 12 22 9 9 8 12
-4 12 -24 0 -30 14 -18 44 6 17 6 26 0 26 -6 0 -10 -4 -10 -8 0 -5 -6 -9 -14
-9 -8 0 -12 6 -8 15 3 10 1 13 -7 8 -8 -5 -7 4 3 29 9 21 16 39 16 41 0 2 11
-2 25 -8 14 -6 24 -16 22 -22z m98 -191 c11 -1 32 -3 48 -4 15 0 27 -5 27 -11
0 -5 -18 -7 -42 -4 -24 4 -52 7 -64 8 -11 0 -21 7 -21 14 0 8 7 10 16 6 9 -3
25 -7 36 -9z"/>
<path d="M975 1730 c-3 -5 -16 -10 -29 -10 -24 0 -32 -29 -12 -42 6 -4 -3 -13
-22 -21 -19 -8 -32 -18 -31 -23 1 -5 -10 -15 -25 -22 -14 -7 -24 -17 -21 -22
3 -5 21 -2 40 7 19 9 32 20 29 24 -6 10 13 21 50 29 36 7 44 37 9 32 -28 -4
-31 18 -4 25 11 3 22 11 25 19 6 16 0 19 -9 4z"/>
<path d="M774 1697 c3 -10 6 -21 6 -23 0 -2 7 -4 15 -4 8 0 15 -4 15 -10 0 -5
7 -10 16 -10 12 0 8 7 -12 22 -16 12 -33 27 -37 33 -5 6 -6 2 -3 -8z"/>
<path d="M1726 1674 c-10 -26 -7 -33 23 -48 26 -14 30 -14 35 1 4 9 1 21 -5
27 -9 8 -10 7 -6 -6 4 -11 1 -15 -11 -14 -9 2 -18 9 -20 17 -3 11 -1 11 7 -1
8 -11 11 -12 11 -2 0 7 -6 20 -14 27 -12 12 -15 12 -20 -1z"/>
<path d="M2092 1644 c-18 -24 -23 -27 -32 -14 -11 18 -13 1 -2 -18 6 -9 14 -6
32 13 12 13 26 22 31 20 4 -3 11 0 15 6 4 7 3 9 -4 5 -5 -3 -12 -1 -14 6 -2 6
-14 -2 -26 -18z"/>
<path d="M1618 1638 c-12 -7 -4 -12 16 -9 4 1 14 -3 22 -10 8 -6 25 -8 40 -5
19 5 25 3 22 -6 -3 -8 -22 -13 -51 -12 -25 0 -44 -3 -41 -7 2 -4 12 -7 22 -7
9 0 33 -3 52 -7 19 -4 41 -8 48 -8 7 0 11 -6 8 -14 -3 -7 1 -13 8 -13 8 0 17
-6 19 -12 4 -10 6 -10 6 -1 1 7 11 18 24 24 12 6 19 8 15 4 -11 -12 23 -34 51
-35 24 0 24 0 5 -15 -18 -14 -18 -15 6 -11 14 1 25 6 25 9 0 14 -36 47 -50 47
-8 0 -15 4 -15 9 0 5 -9 12 -19 16 -11 3 -22 14 -24 23 -3 12 -5 9 -7 -8 -1
-14 -2 -28 -1 -32 0 -5 -6 -8 -14 -8 -9 0 -12 6 -8 18 3 9 3 14 -2 10 -11 -10
-45 10 -45 27 0 8 -9 19 -19 25 -26 13 -34 13 -26 -2 4 -7 1 -6 -7 3 -14 17
-40 20 -60 7z"/>
<path d="M915 1601 c-3 -11 -17 -26 -30 -35 -23 -15 -24 -15 -18 1 3 10 -3 7
-13 -7 -20 -28 -36 -41 -43 -35 -2 3 4 14 14 25 20 22 14 26 -16 9 -11 -5 -17
-14 -14 -20 4 -5 -2 -9 -12 -9 -10 0 -24 -9 -31 -20 -7 -11 -19 -20 -26 -20
-8 0 -18 -9 -21 -20 -3 -11 -13 -20 -21 -20 -19 0 -2 -35 21 -43 12 -5 13 -3
3 13 -15 24 1 45 38 48 15 1 24 -1 21 -4 -4 -4 5 -18 19 -30 l25 -24 -25 -11
c-19 -9 -29 -9 -40 0 -10 9 -16 9 -21 1 -4 -7 -17 -9 -29 -6 -16 4 -22 1 -22
-12 0 -12 8 -17 27 -17 15 0 25 5 22 10 -2 6 3 1 11 -9 9 -11 16 -15 16 -9 0
14 38 24 46 12 3 -6 14 -7 25 -4 29 9 23 -6 -13 -39 l-33 -28 37 26 c36 26 98
36 98 16 0 -5 8 -10 18 -10 26 0 34 -11 19 -28 -10 -12 -6 -12 21 2 35 18 46
4 15 -20 -17 -13 -17 -14 1 -7 12 4 17 3 13 -4 -4 -7 7 -6 30 2 31 11 45 10
83 -2 25 -8 56 -16 68 -18 32 -5 35 -10 22 -37 -11 -22 -11 -22 9 2 14 17 28
24 45 22 21 -3 26 1 26 17 0 13 5 19 14 15 8 -3 24 -1 35 6 12 6 21 7 21 2 0
-14 -23 -32 -42 -32 -10 0 -18 -7 -18 -15 0 -25 47 -19 54 8 4 14 9 18 13 11
8 -11 88 -12 99 -2 2 3 -10 12 -27 20 -29 15 -30 17 -13 27 16 9 13 10 -16 5
-20 -3 -56 -7 -81 -8 -25 -2 -50 -5 -55 -8 -5 -3 -27 -9 -49 -12 -36 -6 -42
-4 -65 24 -14 16 -31 30 -38 30 -10 0 -10 -3 2 -15 8 -8 19 -15 25 -15 6 0 11
-4 11 -10 0 -5 -3 -10 -6 -10 -13 0 -90 46 -101 60 -6 8 -15 12 -19 7 -4 -4
-2 -7 4 -7 7 0 12 -5 12 -10 0 -6 -14 -4 -34 4 -19 8 -37 12 -40 9 -8 -8 -37
18 -31 27 3 4 -3 14 -12 21 -12 10 -14 10 -9 2 10 -18 -9 -16 -24 2 -9 11 -16
13 -24 5 -14 -14 -23 -13 -30 8 -12 32 -33 62 -39 55 -17 -16 -5 10 13 29 38
41 102 77 120 68 12 -6 17 -5 17 5 0 7 -6 11 -14 8 -16 -6 -17 2 -3 28 7 12 7
19 1 19 -5 0 -12 -9 -16 -19z"/>
<path d="M2160 1573 c-14 -3 -29 -8 -35 -13 -5 -4 -25 -6 -43 -5 -20 2 -32 -1
-30 -7 6 -17 60 -18 92 -3 16 8 45 15 65 16 29 0 32 2 16 9 -22 9 -27 10 -65
3z"/>
<path d="M2988 1543 c-2 -10 -1 -38 3 -63 6 -43 6 -43 7 18 2 61 -2 79 -10 45z"/>
<path d="M1220 1477 c0 -7 7 -22 16 -33 8 -10 13 -13 9 -6 -9 18 6 15 21 -5
11 -15 13 -15 13 -3 0 24 -22 55 -41 58 -10 2 -18 -3 -18 -11z"/>
<path d="M1830 1463 c0 -7 -7 -10 -17 -7 -14 4 -15 3 -5 -4 11 -7 10 -10 -3
-16 -9 -3 -22 -3 -27 1 -6 3 -8 1 -5 -4 4 -6 0 -16 -8 -23 -12 -10 -15 -10
-15 1 0 8 -5 5 -14 -6 -8 -11 -12 -24 -10 -30 6 -16 -50 -34 -70 -23 -11 6
-23 4 -40 -10 -15 -11 -39 -18 -60 -17 -20 0 -36 -3 -36 -8 0 -5 -10 -5 -21
-2 -15 5 -19 4 -15 -4 4 -6 3 -11 -1 -11 -5 0 -16 -6 -24 -12 -8 -7 -12 -12
-10 -10 2 1 13 -5 23 -15 10 -9 21 -13 24 -10 4 3 15 2 25 -3 10 -6 20 -6 23
-2 7 12 -7 28 -26 29 -52 2 -54 3 -38 13 8 5 24 7 35 4 32 -9 105 -45 106 -52
1 -12 8 -36 18 -67 8 -25 9 -26 10 -8 1 13 -6 40 -15 62 -12 31 -25 43 -57 57
-31 13 -37 18 -23 22 10 2 22 -1 26 -8 4 -7 17 -9 35 -4 19 5 26 3 21 -4 -3
-6 1 -8 11 -6 12 3 26 -7 41 -28 12 -18 22 -27 22 -20 0 8 5 10 13 6 6 -4 -3
8 -21 26 -25 25 -41 33 -72 34 -49 1 -53 12 -6 18 21 2 32 0 29 -6 -4 -6 1 -6
13 -2 25 11 41 11 92 1 33 -6 41 -11 37 -24 -2 -9 0 -23 5 -31 7 -11 10 -6 10
20 -1 44 -25 79 -42 62 -15 -15 -48 -16 -48 -1 0 6 6 9 14 6 9 -4 12 0 9 13
-3 10 0 21 6 24 6 4 11 2 11 -5 0 -9 3 -9 15 1 8 6 23 9 35 5 13 -4 20 -2 20
7 1 9 5 8 13 -4 7 -9 26 -19 43 -23 l29 -6 -32 15 c-42 19 -42 32 2 47 30 11
52 35 42 45 -2 2 -34 -11 -70 -30 -37 -18 -67 -30 -67 -27 0 10 57 51 70 51 5
0 10 4 10 8 0 4 -9 8 -20 8 -11 0 -20 -6 -20 -13z"/>
<path d="M284 1428 c-10 -12 -13 -18 -5 -13 11 6 13 4 7 -10 -6 -17 -5 -18 11
-3 10 8 25 18 33 22 8 3 2 4 -14 0 -26 -5 -28 -3 -17 10 20 24 7 19 -15 -6z"/>
<path d="M2993 1295 c0 -38 2 -53 4 -32 2 20 2 52 0 70 -2 17 -4 1 -4 -38z"/>
<path d="M882 1305 c-11 -12 -10 -15 3 -15 9 0 14 -4 10 -9 -3 -5 -1 -12 4
-15 12 -7 25 30 16 44 -8 14 -18 12 -33 -5z"/>
<path d="M1126 1244 c-15 -39 1 -73 20 -42 4 7 3 8 -4 4 -8 -5 -12 1 -12 14 0
16 5 20 15 16 8 -3 15 -1 15 3 0 16 -28 20 -34 5z"/>
<path d="M1575 1213 c4 -10 8 -22 9 -28 1 -5 7 -19 14 -30 12 -19 12 -18 6 5
-11 42 -23 70 -30 70 -3 0 -3 -8 1 -17z"/>
<path d="M2993 1120 c0 -41 2 -58 4 -37 2 20 2 54 0 75 -2 20 -4 3 -4 -38z"/>
<path d="M1790 945 c-16 -20 2 -65 26 -65 13 0 14 3 4 15 -7 8 -9 15 -4 15 5
0 3 4 -5 9 -12 8 -12 12 -2 25 8 9 9 16 3 16 -5 0 -15 -7 -22 -15z"/>
<path d="M2993 575 c0 -38 2 -53 4 -32 2 20 2 52 0 70 -2 17 -4 1 -4 -38z"/>
<path d="M2988 333 c5 -119 9 -131 10 -30 1 53 -1 97 -5 97 -5 0 -7 -30 -5
-67z"/>
<path d="M2994 105 c0 -55 1 -76 3 -47 2 29 2 74 0 100 -2 26 -3 2 -3 -53z"/>
</g>
</svg>
