 <svg  version="1.0" xmlns="http://www.w3.org/2000/svg"  width="300.000000pt" height="295.000000pt" viewBox="0 0 300.000000 295.000000"  preserveAspectRatio="xMidYMid meet">  <g transform="translate(0.000000,295.000000) scale(0.100000,-0.100000)" fill="#cf2626" stroke="none"> <path d="M1026 2889 c-14 -17 -26 -35 -26 -40 0 -6 -12 -1 -26 10 -36 28 -79 27 -109 -4 -34 -33 -32 -71 6 -128 70 -106 127 -123 189 -58 80 84 114 203 68 235 -36 25 -73 20 -102 -15z m78 -15 c9 -8 16 -21 15 -27 -1 -21 -23 -70 -52 -119 -29 -48 -65 -66 -106 -53 -23 7 -81 94 -81 121 0 49 52 58 99 18 l31 -26 11 29 c11 29 47 73 60 73 4 0 15 -7 23 -16z"/> <path d="M1418 2913 c7 -3 16 -2 19 1 4 3 -2 6 -13 5 -11 0 -14 -3 -6 -6z"/> <path d="M1904 2596 c-23 -7 -80 -32 -126 -54 -66 -32 -98 -56 -149 -109 -74 -79 -142 -202 -164 -297 -8 -34 -28 -95 -45 -135 -16 -41 -30 -74 -30 -75 0 0 17 -2 37 -4 21 -1 41 -9 46 -17 7 -12 15 -8 43 21 19 20 34 41 34 45 0 5 4 9 9 9 5 0 16 3 25 6 9 3 16 1 16 -5 0 -6 -10 -11 -22 -12 -22 0 -22 -1 -3 -9 28 -12 35 -12 33 1 -5 22 21 20 33 -3 11 -21 11 -22 -4 -9 -20 16 -22 3 -3 -21 13 -18 46 -25 46 -10 0 4 -11 25 -23 47 -21 36 -27 40 -61 39 -21 -1 -65 -15 -98 -33 -34 -17 -65 -31 -70 -31 -10 0 162 140 172 140 7 0 63 -93 81 -132 11 -25 8 -33 -31 -92 -24 -36 -46 -63 -50 -61 -4 2 -7 -1 -7 -8 0 -7 -21 -47 -48 -89 -26 -42 -45 -82 -43 -88 2 -6 19 14 38 44 19 31 57 86 83 123 26 38 68 98 94 136 l46 67 -6 103 c-4 56 -12 129 -20 162 -9 44 -10 72 -2 105 15 66 101 190 131 190 7 0 16 5 20 12 5 8 2 9 -12 4 -10 -4 -15 -3 -10 1 4 4 17 9 29 10 12 0 45 4 72 8 31 4 87 1 145 -9 132 -21 316 -112 400 -197 122 -124 185 -260 197 -427 4 -71 8 -90 15 -72 12 32 16 23 23 -41 3 -29 8 -68 11 -85 3 -17 -1 -54 -10 -83 -8 -28 -11 -51 -6 -51 4 0 11 18 15 40 7 40 25 66 25 35 0 -13 34 -91 46 -104 2 -2 15 4 29 13 33 22 32 15 -11 -44 -32 -45 -77 -84 -73 -63 1 4 -5 24 -13 42 -9 19 -13 41 -11 49 5 10 -2 12 -31 7 -36 -7 -36 -7 -35 26 1 32 2 32 9 9 10 -32 11 84 1 120 l-7 25 -6 -25 c-8 -30 -21 -169 -22 -225 -1 -36 -5 -43 -50 -72 -47 -32 -55 -44 -15 -23 39 22 17 -1 -41 -40 -53 -36 -123 -72 -80 -41 10 7 11 11 3 11 -7 0 -21 10 -33 22 -11 12 -20 18 -20 13 0 -5 7 -17 17 -27 10 -12 12 -18 4 -18 -7 0 -10 -4 -7 -9 3 -5 -10 -16 -29 -25 -20 -10 -70 -50 -113 -89 -67 -63 -89 -77 -173 -109 -114 -44 -149 -53 -149 -41 0 6 13 48 29 94 16 46 32 99 36 117 5 23 37 62 121 143 62 62 111 116 108 120 -3 5 -14 9 -24 9 -10 0 -39 9 -64 20 l-46 19 0 -23 c0 -15 -11 -31 -27 -42 -33 -22 -44 -24 -61 -11 -9 7 -11 6 -6 -7 10 -27 54 -19 83 15 22 25 33 30 61 27 18 -2 35 -8 37 -14 5 -16 -192 -218 -204 -211 -13 8 -33 87 -38 147 -3 25 -7 56 -10 70 -6 24 -19 156 -28 268 l-4 52 31 -4 c17 -3 51 -8 75 -11 35 -5 54 -15 92 -53 27 -26 49 -50 49 -54 0 -14 -16 -8 -39 13 -27 26 -34 21 -18 -11 7 -14 22 -25 32 -26 22 -1 50 -10 77 -25 9 -5 36 -12 59 -15 52 -9 46 11 -6 20 -20 4 -33 11 -30 16 3 5 -4 36 -16 69 -11 33 -18 65 -14 71 3 5 1 10 -4 10 -6 0 -10 3 -10 8 1 4 0 10 -1 15 -1 4 -3 10 -4 15 -2 7 -36 74 -41 80 -1 2 -20 -4 -41 -12 -22 -9 -64 -20 -94 -25 -47 -7 -50 -9 -20 -11 l35 -2 -35 -10 c-19 -5 -40 -9 -47 -10 -7 -1 -15 -8 -18 -16 -4 -11 0 -13 17 -8 54 15 203 45 207 41 4 -4 71 -205 71 -214 0 -2 -33 31 -72 73 l-73 78 -80 7 -80 6 -3 31 c-3 30 2 35 101 98 58 36 110 73 117 81 15 18 113 75 128 75 6 0 9 -9 7 -20 -2 -13 0 -18 7 -14 6 4 8 -1 4 -14 -4 -12 -2 -23 5 -28 8 -5 9 -3 4 6 -5 9 -4 11 4 6 6 -4 10 -13 9 -19 -1 -7 6 -24 16 -40 10 -15 19 -45 20 -67 0 -21 3 -34 6 -29 4 5 14 -31 24 -79 20 -99 17 -114 -39 -180 -14 -17 -21 -33 -16 -36 21 -14 81 98 81 151 0 55 -43 218 -78 293 l-30 64 26 41 c14 22 25 45 25 52 0 7 4 10 8 7 14 -9 121 8 107 18 -8 5 12 6 47 4 33 -3 49 -3 36 0 -19 5 -21 8 -10 15 14 9 -4 7 -136 -13 -65 -9 -73 -14 -115 -58 -25 -26 -68 -59 -95 -73 -28 -14 -98 -61 -157 -105 -59 -43 -116 -85 -127 -93 -17 -12 -18 -21 -10 -74 4 -33 20 -149 34 -259 15 -109 33 -219 41 -245 27 -83 28 -154 4 -226 -12 -36 -19 -72 -16 -80 5 -15 -14 -23 -124 -50 -36 -9 -101 -27 -146 -41 l-80 -25 -45 20 c-52 24 -111 76 -132 118 -9 16 -19 57 -23 91 -5 52 -4 63 10 68 17 6 40 76 77 229 l21 91 -61 84 c-34 47 -65 98 -69 114 -11 41 -37 49 -29 10 4 -16 11 -63 17 -104 13 -97 40 -210 49 -210 4 0 2 28 -5 63 -7 34 -16 87 -19 117 l-6 55 19 -40 c11 -22 33 -53 50 -68 l30 -28 -29 -92 c-16 -51 -32 -117 -36 -147 -4 -40 -12 -59 -27 -70 -12 -8 -45 -36 -73 -63 l-53 -50 -43 17 c-44 16 -76 21 -64 9 4 -3 -17 -20 -46 -37 -29 -17 -72 -44 -95 -61 -41 -29 -42 -31 -40 -83 2 -70 -22 -97 -84 -93 -40 2 -175 57 -165 68 3 2 32 -9 66 -26 33 -17 63 -31 66 -31 3 0 3 35 -1 78 -6 68 -4 80 12 97 25 25 160 112 186 121 19 6 16 9 -21 21 -42 14 -42 14 -79 -18 -20 -17 -43 -45 -50 -60 -13 -31 -25 -40 -15 -11 4 10 2 14 -3 9 -5 -5 -46 -43 -91 -85 -45 -41 -80 -79 -77 -84 8 -13 -13 -9 -24 5 -21 25 136 183 258 262 30 19 61 35 68 35 7 0 48 -18 90 -39 117 -59 152 -74 159 -68 3 4 -49 33 -117 66 -122 59 -123 60 -159 45 -70 -29 -161 -96 -234 -174 -88 -91 -99 -115 -66 -138 87 -63 179 -97 234 -86 43 8 48 -11 8 -27 -61 -23 -158 12 -242 87 l-49 44 -17 -43 c-10 -23 -23 -73 -29 -112 -12 -66 -14 -69 -45 -78 -18 -4 -35 -7 -36 -5 -2 2 -5 33 -6 70 -1 37 -6 73 -11 80 -6 8 -8 -15 -5 -64 3 -42 3 -79 0 -81 -8 -9 -158 57 -201 89 -2 1 3 44 11 96 23 142 11 226 -59 423 -37 106 -34 103 -92 79 -28 -12 -54 -19 -59 -15 -5 3 -15 21 -22 39 -8 18 -25 42 -40 53 -14 11 -31 30 -38 42 -12 21 -12 21 -13 -9 0 -20 8 -38 22 -50 12 -10 18 -13 13 -5 -5 10 -4 12 3 7 7 -4 12 -13 12 -21 0 -8 9 -30 21 -49 18 -32 19 -37 6 -56 -13 -19 -13 -26 3 -68 35 -89 61 -200 56 -234 -3 -18 -8 -53 -10 -78 -5 -53 -39 -146 -90 -247 -41 -81 -42 -87 -21 -79 20 7 20 -24 0 -50 -8 -10 -14 -30 -14 -44 0 -20 4 -15 20 21 20 45 22 46 48 36 35 -13 98 -1 110 21 38 72 62 211 50 287 l-8 50 2 -47 c2 -48 2 -48 -30 -48 -51 0 -59 7 -55 45 4 31 9 36 45 46 22 6 51 18 64 26 l23 15 -6 -63 c-9 -95 -49 -268 -93 -406 -43 -131 -60 -172 -127 -305 -31 -61 -42 -93 -36 -107 7 -19 8 -19 19 5 10 22 10 24 -3 14 -22 -19 -17 -3 14 43 100 150 230 564 235 752 2 62 5 74 25 89 l23 18 -5 -34 c-3 -18 -8 -63 -11 -99 -5 -72 -30 -192 -46 -220 -5 -10 -11 -34 -14 -54 -7 -56 -72 -257 -115 -356 -21 -49 -59 -123 -85 -165 -25 -42 -44 -81 -42 -87 2 -6 14 7 26 30 l23 41 57 -34 c54 -33 194 -84 229 -84 9 0 -17 12 -58 26 -74 25 -210 93 -210 104 0 4 23 51 50 105 28 54 50 104 50 111 0 7 66 -21 147 -62 80 -41 155 -74 165 -74 15 0 17 -6 12 -47 -3 -27 -12 -73 -20 -103 -7 -30 -11 -56 -8 -59 9 -10 24 16 30 54 9 58 17 58 12 0 -2 -40 0 -50 14 -53 15 -3 16 7 11 91 -3 52 -2 97 3 100 5 3 26 8 47 12 32 6 37 5 37 -11 0 -37 34 -194 42 -194 10 0 10 5 -2 55 -5 22 -19 105 -31 185 -18 120 -20 174 -16 315 6 208 42 422 65 389 11 -15 133 -104 143 -104 5 0 2 -11 -6 -24 -16 -24 -29 -27 -52 -13 -7 5 -13 4 -13 -1 0 -10 58 -38 63 -31 2 2 9 17 15 33 12 27 16 28 55 23 32 -5 51 -1 74 13 l32 19 6 -67 c3 -37 12 -98 21 -137 8 -38 16 -90 19 -115 2 -25 11 -72 20 -105 9 -33 21 -82 26 -110 9 -49 116 -274 146 -307 17 -19 43 -24 43 -10 0 5 -19 38 -41 73 -84 129 -148 279 -119 279 7 0 26 10 43 21 25 17 24 14 -8 -15 -49 -43 -39 -46 21 -5 46 32 66 67 77 135 7 40 6 42 -29 59 -19 9 -50 19 -69 22 l-34 5 16 32 c38 75 90 140 145 183 33 25 63 41 67 37 4 -5 13 -27 20 -49 22 -67 69 -157 111 -213 25 -33 45 -72 51 -102 6 -28 16 -53 22 -57 6 -4 8 -1 5 8 -3 8 -11 40 -18 72 -6 31 -15 57 -20 57 -16 0 -92 120 -112 177 -11 33 -18 74 -16 101 3 44 5 46 62 78 33 18 64 30 68 28 5 -3 15 0 23 6 8 7 26 9 44 5 25 -5 31 -13 37 -43 4 -20 10 -42 15 -47 4 -6 22 -45 38 -87 23 -56 31 -93 31 -140 1 -62 1 -63 16 -35 17 32 13 76 -14 164 -15 52 -15 53 9 79 61 66 221 177 195 136 -3 -6 -2 -13 4 -17 7 -4 7 -12 0 -25 -14 -27 -12 -34 5 -20 8 7 12 17 8 23 -3 5 -1 7 4 4 6 -4 32 5 57 19 69 39 66 23 -4 -22 -33 -22 -58 -43 -56 -49 2 -5 -6 -21 -18 -34 -11 -14 6 -4 39 21 33 25 84 60 113 77 50 31 73 53 33 31 -26 -13 -28 -13 -28 5 0 9 6 14 14 11 8 -3 12 -2 9 2 -3 5 20 20 50 35 l54 27 0 -28 c0 -17 -3 -23 -8 -14 -6 8 -9 0 -9 -20 0 -18 -3 -44 -7 -58 -5 -20 -4 -20 8 5 8 17 18 51 22 77 4 28 13 49 22 53 8 3 16 4 18 2 2 -2 -24 -84 -58 -183 -55 -164 -75 -234 -63 -234 8 0 136 402 131 415 -2 7 7 18 20 24 24 11 25 31 1 31 -8 0 -8 -3 1 -9 11 -7 10 -10 -3 -15 -22 -8 -21 -9 -22 11 -1 12 15 26 48 42 28 13 48 26 45 28 -2 3 -13 0 -24 -6 -30 -16 -49 -13 -26 4 38 29 94 13 108 -31 6 -19 -4 -30 -63 -73 -88 -64 -95 -77 -87 -160 4 -36 8 -71 8 -78 1 -11 36 -10 76 3 6 2 -1 -20 -17 -49 -48 -85 -118 -124 -423 -232 -117 -42 -157 -61 -197 -95 -28 -24 -51 -47 -51 -52 0 -5 25 11 55 37 48 41 69 51 177 82 68 20 163 53 212 74 50 21 91 37 92 36 3 -3 -56 -271 -61 -275 -1 -2 -26 4 -54 14 -41 13 -70 15 -146 9 -107 -8 -102 -4 -141 -114 -15 -44 -16 -55 -6 -59 24 -8 82 -63 126 -121 35 -45 42 -60 35 -79 -5 -13 -5 -22 1 -22 5 0 25 33 45 73 50 102 63 122 77 122 15 0 19 -82 5 -110 -7 -13 -6 -20 2 -23 9 -3 9 -7 0 -18 -9 -12 -5 -14 27 -14 22 -1 50 -7 64 -15 14 -8 36 -14 50 -14 l25 -1 -24 13 c-13 6 -29 26 -35 43 -11 30 -11 31 -30 13 -11 -11 -28 -19 -38 -19 -15 0 -18 8 -18 45 0 31 4 45 14 45 9 0 16 20 20 62 10 84 51 273 83 381 22 74 32 92 62 116 58 45 66 47 37 8 -16 -20 -31 -37 -35 -37 -5 0 -17 -24 -36 -70 -1 -3 -7 -18 -14 -35 -23 -58 -22 -54 -36 -163 -8 -63 12 -13 24 62 25 143 144 307 272 376 33 18 73 44 87 60 36 36 61 41 150 30 103 -13 106 -18 69 -88 -17 -31 -34 -59 -37 -62 -4 -3 -15 -20 -24 -38 -19 -37 -41 -44 -33 -10 6 22 6 22 -8 4 -8 -11 -15 -23 -15 -27 0 -8 37 -19 68 -19 12 0 22 -2 22 -5 0 -17 -100 -151 -170 -228 -84 -93 -253 -237 -277 -237 -4 0 -27 19 -51 41 -43 41 -44 47 -12 84 10 11 28 45 41 75 12 30 31 67 41 82 31 45 6 32 -48 -24 -45 -47 -91 -108 -81 -108 12 0 45 38 39 45 -4 5 -2 5 5 2 6 -4 14 -1 17 5 3 7 3 0 -1 -17 -3 -16 -14 -38 -24 -47 -29 -29 -33 -57 -12 -87 23 -30 20 -51 -7 -51 -17 0 -25 18 -36 78 -1 8 -6 17 -10 20 -7 7 0 -47 11 -98 6 -21 1 -27 -27 -38 -18 -8 -28 -16 -21 -19 6 -2 23 3 36 12 25 16 25 15 32 -15 4 -17 12 -29 19 -28 7 2 25 -12 40 -29 27 -32 95 -69 142 -77 13 -3 28 -7 32 -10 11 -6 36 44 27 53 -4 3 -15 -5 -27 -19 -12 -16 -18 -19 -14 -8 3 10 0 20 -6 24 -6 4 -8 3 -4 -4 14 -22 -14 -21 -61 3 -60 31 -83 49 -83 64 0 6 -7 14 -16 18 -13 5 -12 7 4 17 11 6 28 16 39 23 15 9 25 9 48 -2 64 -30 136 -53 133 -43 -3 7 -27 19 -55 29 -28 9 -60 22 -73 29 -22 12 -22 12 9 28 16 9 40 26 53 37 13 11 38 27 56 34 19 8 31 20 30 29 -2 9 23 31 67 58 39 23 75 46 80 52 6 5 17 12 25 16 20 8 -19 1 -42 -9 -10 -4 -18 -3 -18 3 0 5 28 25 63 42 34 18 65 37 68 42 3 5 8 9 10 7 2 -1 14 1 27 5 22 7 31 26 12 26 -5 0 -10 -5 -10 -12 0 -6 -3 -8 -7 -5 -3 4 -30 -7 -58 -23 -29 -17 -56 -30 -61 -30 -9 0 56 55 66 55 16 0 70 29 70 37 0 5 5 6 12 2 7 -4 8 -3 4 4 -9 15 -9 15 -36 -8 -12 -11 -27 -17 -31 -14 -5 3 -9 1 -9 -3 0 -5 -9 -9 -19 -9 -26 0 -10 20 29 36 16 7 27 16 24 21 -3 5 -10 7 -15 4 -5 -4 -9 -2 -9 3 0 6 7 12 15 16 8 3 15 12 15 20 0 8 3 16 8 18 4 2 15 19 24 38 9 19 24 46 32 60 8 14 20 40 27 58 11 30 38 41 31 12 -1 -6 3 -10 10 -7 18 6 85 -29 97 -50 9 -15 10 -13 11 12 0 32 2 31 -202 132 -31 15 -57 30 -57 33 0 3 22 23 50 45 47 39 175 187 198 232 21 42 15 52 -24 40 -19 -6 -38 -8 -41 -4 -13 12 6 37 28 37 13 0 30 5 38 11 12 8 10 10 -10 5 -14 -2 -53 -8 -88 -12 -64 -7 -79 -21 -16 -15 28 2 34 -1 34 -18 0 -17 -9 -21 -57 -26 -88 -10 -88 -16 0 -10 43 3 89 10 103 15 30 12 32 -3 2 -18 -33 -17 -137 -42 -175 -42 -17 0 -34 -4 -37 -8 -6 -10 100 3 154 18 48 13 55 13 40 -5 -7 -9 -19 -14 -27 -11 -7 3 -13 1 -13 -3 0 -10 -109 -31 -158 -31 -18 0 -32 -5 -32 -10 0 -7 14 -9 35 -5 19 3 52 7 73 10 20 3 50 8 66 11 19 4 26 3 22 -5 -4 -6 -19 -11 -34 -12 -23 0 -24 -2 -7 -8 18 -7 18 -8 1 -18 -10 -5 -17 -14 -16 -19 3 -15 -21 -22 -110 -33 l-85 -10 85 4 c55 3 76 1 60 -5 -14 -4 -19 -8 -11 -9 11 -1 11 -4 1 -16 -9 -11 -37 -16 -109 -17 l-96 -2 88 -3 89 -4 -24 -23 c-18 -18 -39 -25 -96 -30 -64 -6 -75 -5 -103 14 -24 18 -27 25 -18 36 6 8 15 14 20 14 9 0 128 115 190 187 25 28 83 101 129 162 45 61 90 111 99 111 9 0 23 5 31 11 12 8 9 9 -12 5 -16 -4 -28 -2 -28 4 0 5 9 10 19 10 11 0 23 5 26 10 3 6 1 10 -5 10 -7 0 -8 6 0 19 5 11 10 27 10 36 0 10 -39 -36 -86 -101 -48 -66 -124 -164 -169 -219 -80 -97 -236 -255 -253 -255 -5 0 -18 17 -30 39 -23 41 -29 123 -14 206 6 34 11 40 40 46 38 8 124 64 167 109 25 26 30 39 28 76 -2 52 20 61 39 17 30 -72 61 -79 109 -29 32 35 102 156 94 164 -2 2 -22 -3 -45 -12 -38 -15 -40 -15 -40 2 0 10 -9 35 -20 57 -11 22 -20 56 -20 76 0 21 -13 73 -29 116 -15 43 -31 109 -35 147 -8 77 -16 96 -87 201 -114 170 -308 316 -476 360 -69 18 -213 18 -269 1z m-123 -106 c-22 -28 -58 -83 -80 -123 -31 -55 -58 -87 -116 -135 -42 -35 -79 -62 -82 -59 -16 17 60 137 138 218 51 52 164 149 175 149 2 0 -13 -23 -35 -50z m-71 -165 c-7 -9 -15 -13 -18 -10 -3 2 1 11 8 20 7 9 15 13 18 10 3 -2 -1 -11 -8 -20z m8 -92 c6 -32 16 -100 22 -151 11 -92 11 -92 -14 -123 -26 -30 -27 -30 -30 14 -1 6 -6 17 -13 22 -6 6 -13 19 -15 30 -2 11 -10 26 -18 33 -13 12 -13 13 0 6 11 -6 10 -2 -2 13 -10 11 -18 28 -18 37 0 12 -5 16 -16 12 -9 -3 -20 -6 -25 -6 -5 0 -9 -4 -9 -9 0 -5 10 -7 23 -5 20 4 20 4 2 -5 -11 -4 -23 -7 -26 -5 -4 2 -14 -5 -24 -16 -10 -11 -22 -20 -28 -20 -5 0 -26 -17 -45 -37 -21 -23 -32 -30 -28 -18 5 11 16 46 25 78 17 57 20 60 117 132 54 41 101 74 104 75 4 0 11 -26 18 -57z m594 -37 c-10 -20 -22 -31 -30 -28 -9 3 -5 13 14 33 35 37 37 36 16 -5z m468 -401 c0 -8 -2 -15 -4 -15 -2 0 -6 7 -10 15 -3 8 -1 15 4 15 6 0 10 -7 10 -15z m-2537 -447 c15 -46 36 -114 47 -153 l19 -70 -21 -18 c-12 -10 -30 -16 -39 -14 -10 3 -19 1 -21 -4 -2 -5 -17 -11 -34 -15 -30 -6 -32 -4 -36 30 -4 35 -4 35 14 16 18 -19 28 -25 28 -16 0 2 -16 23 -35 46 -19 22 -37 58 -41 78 -4 20 -11 45 -16 55 -7 14 -3 28 16 56 33 47 33 61 1 31 -27 -25 -43 -22 -27 5 9 18 76 53 102 54 10 1 24 -25 43 -81z m1774 -75 c-3 -10 -5 -4 -5 12 0 17 2 24 5 18 2 -7 2 -21 0 -30z m395 -11 c-7 -2 -12 -11 -12 -20 0 -15 2 -15 10 -2 6 9 10 10 10 3 0 -6 -4 -14 -10 -18 -5 -3 -6 -13 -3 -22 4 -11 3 -14 -5 -9 -7 4 -12 19 -12 33 0 21 -2 24 -15 13 -8 -7 -15 -9 -15 -4 0 15 55 53 59 41 2 -6 -1 -13 -7 -15z m-1392 -64 c0 -7 -15 -23 -33 -36 -41 -28 -50 -9 -11 24 33 26 44 29 44 12z m328 -25 c-9 -10 -30 -44 -48 -76 -29 -52 -36 -58 -59 -54 -14 3 -38 -1 -53 -9 -53 -28 -28 3 46 55 40 29 83 63 95 77 11 13 24 24 27 24 4 0 0 -8 -8 -17z m79 -140 c8 -12 31 -32 50 -44 19 -12 32 -23 29 -26 -2 -3 -25 9 -51 27 -25 17 -68 41 -95 52 l-49 20 31 61 31 61 19 -63 c11 -36 27 -75 35 -88z m-201 107 l26 -10 -40 -33 c-22 -17 -50 -45 -62 -60 -12 -15 -44 -39 -70 -52 -27 -14 -51 -29 -55 -35 -11 -18 -25 -10 -21 13 3 12 5 31 5 42 1 12 21 34 52 55 27 19 59 43 71 53 20 16 33 21 51 18 4 0 7 4 7 9 0 12 2 12 36 0z m936 -61 c-46 -22 -100 -41 -120 -43 -20 -2 -48 -9 -62 -15 l-25 -11 28 5 c35 7 34 -1 -3 -20 -16 -9 -30 -20 -30 -26 0 -5 28 5 63 24 34 18 70 37 80 40 30 11 10 -10 -23 -23 -24 -10 -28 -15 -18 -22 9 -7 8 -8 -5 -4 -10 3 -35 -2 -55 -12 -52 -26 -74 -23 -79 11 -2 15 1 27 7 27 21 0 25 2 40 14 15 13 144 58 168 59 6 0 12 4 12 9 0 5 4 6 10 3 5 -3 19 0 29 7 11 8 30 14 43 15 12 1 -14 -16 -60 -38z m243 13 c-8 -8 -25 10 -19 20 4 6 9 5 15 -3 4 -7 6 -15 4 -17z m-2128 -38 c-27 -24 -52 -42 -57 -39 -4 3 -13 -2 -20 -10 -7 -8 -20 -15 -30 -15 -23 0 -23 60 0 60 8 0 44 13 80 29 36 15 67 26 70 23 3 -2 -17 -24 -43 -48z m1920 20 c-27 -14 -51 -23 -54 -20 -6 6 74 44 92 45 6 0 -12 -11 -38 -25z m213 -27 c0 -6 7 -18 16 -28 14 -16 13 -21 -23 -67 -32 -42 -59 -63 -115 -90 -5 -2 -8 30 -8 72 0 42 4 76 9 76 4 0 28 15 52 34 32 24 48 31 57 24 6 -6 12 -15 12 -21z m-1553 6 c0 -10 -5 -21 -11 -25 -8 -5 -7 -8 2 -8 14 0 17 -76 3 -85 -6 -3 -34 6 -63 19 -29 14 -48 25 -43 26 6 0 32 20 59 45 27 25 50 45 51 45 1 0 2 -8 2 -17z m561 -69 c57 -32 62 -38 46 -47 -207 -109 -282 -180 -353 -328 -27 -55 -51 -97 -54 -92 -2 4 -10 46 -16 93 l-12 85 36 66 c25 48 62 93 127 154 51 49 82 82 69 76 -50 -27 -169 -152 -201 -212 -17 -33 -34 -58 -37 -56 -2 3 0 15 7 26 6 12 10 27 8 34 -8 35 78 123 212 216 55 38 76 36 168 -15z m-183 28 c-6 -5 -40 -29 -76 -55 -68 -47 -110 -94 -134 -149 l-14 -33 -2 30 c-7 92 -7 94 25 118 40 31 110 67 161 83 50 16 51 16 40 6z m645 -17 c0 -2 -16 -12 -36 -21 -19 -9 -65 -46 -101 -82 l-66 -65 -19 22 c-23 30 -24 80 0 87 9 4 31 12 47 19 35 16 68 24 113 29 18 2 36 6 39 10 7 7 23 8 23 1z m657 -53 l23 -23 -23 -8 c-21 -8 -64 -37 -192 -130 -42 -30 -46 -31 -35 -10 28 53 122 179 148 197 29 22 35 20 79 -26z m-477 24 c0 -4 -72 -52 -120 -80 -31 -18 7 15 56 49 46 32 64 41 64 31z m675 -16 c3 -5 1 -10 -4 -10 -6 0 -11 5 -11 10 0 6 2 10 4 10 3 0 8 -4 11 -10z m74 -164 c-40 -76 -53 -93 -68 -89 -16 4 -13 15 31 104 43 86 52 98 67 89 17 -8 14 -17 -30 -104z m-2639 94 c32 0 48 -72 27 -130 -41 -120 -48 -128 -110 -116 -21 4 -36 15 -44 32 -10 21 -10 24 2 14 11 -9 19 5 45 72 38 98 45 108 54 72 8 -31 36 -75 36 -56 0 18 -43 102 -52 102 -4 0 -8 5 -8 11 0 6 7 8 16 5 9 -3 24 -6 34 -6z m50 -16 c0 -8 -4 -12 -10 -9 -5 3 -10 10 -10 16 0 5 5 9 10 9 6 0 10 -7 10 -16z m145 -75 c28 -15 68 -32 90 -39 l40 -12 2 -90 c1 -49 4 -100 7 -114 6 -22 3 -24 -26 -24 -18 1 -43 6 -55 13 -29 16 -116 145 -107 159 4 6 3 8 -4 4 -5 -3 -12 0 -15 6 -2 7 -8 10 -12 6 -7 -7 59 -112 96 -152 10 -11 17 -21 15 -23 -4 -4 -69 23 -79 34 -5 4 -12 8 -15 8 -21 2 -52 18 -52 27 0 23 54 228 59 226 3 -2 29 -15 56 -29z m222 -176 c-9 -110 -12 -123 -29 -123 -29 0 -48 58 -48 149 l0 80 43 9 c23 5 42 8 43 8 1 -1 -3 -56 -9 -123z m1623 53 c0 -3 -4 -8 -10 -11 -5 -3 -10 -1 -10 4 0 6 5 11 10 11 6 0 10 -2 10 -4z m-1855 -146 c22 -7 66 -16 98 -19 32 -3 58 -8 59 -11 2 -10 -14 -270 -17 -270 -2 0 -36 14 -76 31 -101 43 -239 122 -234 134 2 6 16 49 31 97 l27 87 36 -18 c20 -10 54 -24 76 -31z m803 33 c-10 -2 -28 -2 -40 0 -13 2 -5 4 17 4 22 1 32 -1 23 -4z m77 -25 c1 -2 -1 -12 -6 -23 -7 -18 -8 -18 -9 5 -1 23 -2 23 -15 -9 -8 -18 -15 -43 -15 -56 0 -16 -13 -29 -49 -48 l-50 -25 -12 53 c-9 43 -9 60 1 85 l13 31 70 -5 c38 -3 71 -6 72 -8z m-644 -138 c4 -47 10 -101 14 -121 8 -40 5 -43 -42 -54 l-33 -7 0 137 0 136 28 -3 c27 -3 27 -4 33 -88z m623 56 c-3 -15 -8 -25 -11 -23 -2 3 -1 17 3 31 3 15 8 25 11 23 2 -3 1 -17 -3 -31z m1386 -14 c0 -13 -12 -22 -22 -16 -10 6 -1 24 13 24 5 0 9 -4 9 -8z m-525 -62 c23 -9 25 -12 14 -32 -12 -22 -13 -22 -18 -3 -6 20 -10 22 -71 35 l-35 8 42 1 c23 0 53 -3 68 -9z m-121 -15 c49 -7 93 -18 99 -24 6 -6 -8 -35 -37 -81 -26 -39 -52 -91 -58 -115 -14 -52 -11 -53 -98 45 l-60 67 27 62 c14 33 29 61 32 61 3 0 46 -7 95 -15z m170 -17 c-5 -7 -9 -17 -10 -23 -1 -5 -7 -31 -13 -57 -6 -26 -8 -60 -5 -77 4 -20 2 -31 -5 -31 -6 0 -11 9 -11 19 0 11 -4 23 -10 26 -5 3 -10 12 -10 20 0 19 61 147 67 141 3 -3 1 -11 -3 -18z m159 -123 c3 -12 -63 -56 -74 -49 -17 10 -9 34 19 48 29 17 52 17 55 1z m-282 -28 c-10 -9 -11 -8 -5 6 3 10 9 15 12 12 3 -3 0 -11 -7 -18z m-51 -117 c0 -5 -2 -10 -4 -10 -3 0 -8 5 -11 10 -3 6 -1 10 4 10 6 0 11 -4 11 -10z m207 -26 c-3 -3 -12 -4 -19 -1 -8 3 -5 6 6 6 11 1 17 -2 13 -5z"/> <path d="M1683 2140 c0 -25 2 -35 4 -22 2 12 2 32 0 45 -2 12 -4 2 -4 -23z"/> <path d="M1535 2140 c4 -6 11 -8 16 -5 14 9 11 15 -7 15 -8 0 -12 -5 -9 -10z"/> <path d="M1708 2033 c7 -3 16 -2 19 1 4 3 -2 6 -13 5 -11 0 -14 -3 -6 -6z"/> <path d="M168 1393 c7 -3 16 -2 19 1 4 3 -2 6 -13 5 -11 0 -14 -3 -6 -6z"/> <path d="M181 1321 c-11 -37 -9 -43 19 -87 16 -26 30 -51 30 -55 0 -4 5 -20 12 -36 6 -15 10 -32 9 -36 -1 -5 3 -6 8 -3 12 8 7 35 -23 131 -14 44 -26 90 -26 103 0 35 -16 26 -29 -17z m32 -51 c4 -17 3 -19 -9 -9 -8 6 -14 18 -14 26 0 20 16 8 23 -17z"/> <path d="M2375 1006 c-5 -6 -23 -31 -39 -56 l-29 -45 27 24 c14 14 26 29 26 34 0 6 7 19 17 29 9 10 14 20 12 22 -2 2 -8 -1 -14 -8z"/> <path d="M1354 984 l69 -36 -91 -49 c-64 -35 -105 -65 -142 -106 -50 -56 -100 -141 -114 -193 -4 -14 11 9 33 52 59 112 130 183 240 241 50 27 91 50 91 53 0 5 -137 74 -147 74 -5 -1 23 -17 61 -36z"/> <path d="M1208 901 c-29 -33 -68 -81 -86 -108 l-33 -48 33 39 c18 22 59 70 91 108 71 84 68 89 -5 9z"/> <path d="M1259 913 c-25 -27 -59 -66 -75 -88 -17 -23 0 -9 41 34 64 67 91 101 83 101 -2 0 -24 -21 -49 -47z"/> <path d="M1316 922 l-19 -27 24 22 c12 12 21 24 18 27 -2 2 -13 -8 -23 -22z"/> <path d="M2454 942 c-34 -29 -77 -87 -87 -114 -11 -30 0 -20 27 26 14 24 45 60 68 80 23 20 37 36 32 36 -5 0 -23 -13 -40 -28z"/> <path d="M2464 904 c-18 -14 -18 -15 4 -4 12 6 22 13 22 15 0 8 -5 6 -26 -11z"/> <path d="M345 730 c-3 -5 1 -10 10 -10 9 0 13 5 10 10 -3 6 -8 10 -10 10 -2 0 -7 -4 -10 -10z"/> <path d="M380 719 c0 -11 11 -15 65 -24 52 -9 35 9 -22 23 -26 6 -43 6 -43 1z"/> <path d="M273 601 c1 -11 7 -23 14 -25 17 -7 16 4 -2 28 -13 18 -14 18 -12 -3z"/> <path d="M520 706 c0 -9 39 -13 51 -5 10 6 4 9 -18 9 -18 0 -33 -2 -33 -4z"/> <path d="M373 463 c57 -61 82 -83 107 -97 8 -5 -4 11 -27 35 -23 24 -49 52 -58 62 -9 9 -21 17 -27 17 -7 0 -4 -8 5 -17z"/> <path d="M454 461 c11 -11 23 -21 28 -21 14 0 -1 19 -25 31 -22 12 -22 12 -3 -10z"/> <path d="M1132 464 c-12 -19 -20 -34 -18 -34 7 0 49 61 44 65 -2 2 -13 -12 -26 -31z"/> <path d="M555 360 c20 -23 29 -21 19 4 -3 9 -13 16 -22 16 -13 0 -12 -3 3 -20z"/> <path d="M540 312 c0 -10 22 -32 32 -32 15 0 8 15 -12 28 -11 7 -20 9 -20 4z"/> <path d="M1981 296 c-13 -7 -20 -15 -15 -18 5 -3 18 3 28 13 23 22 20 23 -13 5z"/> <path d="M1895 250 c-3 -5 -1 -10 4 -10 6 0 11 5 11 10 0 6 -2 10 -4 10 -3 0 -8 -4 -11 -10z"/> <path d="M545 2540 c-3 -6 1 -7 9 -4 18 7 21 14 7 14 -6 0 -13 -4 -16 -10z"/> <path d="M1323 2505 l-36 -36 -22 21 c-12 11 -31 20 -44 20 -26 0 -71 -42 -71 -66 0 -9 17 -48 37 -86 75 -144 153 -137 229 19 34 69 36 119 5 144 -34 28 -59 23 -98 -16z m87 -43 c0 -27 -45 -114 -74 -145 -37 -40 -64 -33 -104 27 -38 57 -49 93 -35 114 17 28 33 25 68 -13 19 -20 35 -32 35 -26 0 5 15 26 34 46 30 31 38 35 55 25 12 -6 21 -18 21 -28z"/> <path d="M2103 2454 c-37 -32 -81 -72 -96 -89 -46 -49 -108 -145 -102 -155 3 -5 -6 -28 -20 -50 -15 -23 -24 -47 -21 -53 3 -8 5 -8 5 1 1 18 81 132 92 132 5 0 9 6 9 13 0 18 116 126 177 166 53 34 66 54 21 30 -39 -20 -159 -121 -191 -161 -17 -21 -32 -36 -35 -33 -15 15 149 183 237 242 2 2 2 6 -1 9 -4 3 -37 -21 -75 -52z m-173 -229 c-7 -9 -15 -13 -18 -10 -3 2 1 11 8 20 7 9 15 13 18 10 3 -2 -1 -11 -8 -20z"/> <path d="M967 2289 c-9 -5 -24 -23 -32 -40 l-16 -30 -29 25 c-44 37 -68 41 -99 19 -36 -27 -38 -69 -7 -136 37 -77 83 -124 129 -132 34 -5 42 -2 71 27 31 31 64 111 81 194 11 58 -48 102 -98 73z m56 -83 c-2 -63 -58 -180 -89 -184 -29 -4 -70 32 -104 92 -60 103 -27 159 55 92 47 -39 55 -42 55 -23 0 6 9 27 20 45 15 24 27 32 43 30 20 -3 22 -8 20 -52z"/> <path d="M900 2110 c0 -5 5 -10 11 -10 5 0 7 5 4 10 -3 6 -8 10 -11 10 -2 0 -4 -4 -4 -10z"/> <path d="M1751 2274 c0 -11 3 -14 6 -6 3 7 2 16 -1 19 -3 4 -6 -2 -5 -13z"/> <path d="M2030 2269 c0 -5 5 -7 10 -4 6 3 10 8 10 11 0 2 -4 4 -10 4 -5 0 -10 -5 -10 -11z"/> <path d="M2076 2265 c4 -8 8 -15 10 -15 2 0 4 7 4 15 0 8 -4 15 -10 15 -5 0 -7 -7 -4 -15z"/> <path d="M1980 2224 c0 -3 7 -12 15 -20 16 -17 18 -14 9 10 -6 15 -24 23 -24 10z"/> <path d="M1960 2205 c0 -5 5 -17 10 -25 5 -8 10 -10 10 -5 0 6 -5 17 -10 25 -5 8 -10 11 -10 5z"/> <path d="M2246 2038 c3 -18 12 -69 19 -113 l14 -80 -5 75 c-6 99 -15 150 -25 150 -4 0 -5 -15 -3 -32z"/> <path d="M1800 2045 c-7 -9 -11 -17 -9 -20 3 -2 10 5 17 15 14 24 10 26 -8 5z"/> <path d="M500 2009 c-25 -4 -95 -8 -156 -8 l-111 -1 -32 -72 c-41 -95 -151 -278 -167 -278 -6 0 -15 -7 -18 -16 -4 -10 -2 -13 7 -8 6 4 4 -2 -6 -13 -13 -15 -15 -23 -7 -28 12 -7 80 51 80 68 0 4 14 29 32 55 35 50 128 235 128 253 0 8 5 7 16 -2 22 -18 257 -20 275 -2 10 10 5 11 -22 8 -90 -11 -159 -14 -159 -6 0 9 44 17 178 31 l84 9 30 -35 c35 -40 88 -80 88 -66 0 5 -16 20 -35 33 -19 13 -37 29 -39 36 -3 6 11 1 31 -12 19 -14 50 -27 69 -31 19 -3 34 -9 34 -13 0 -3 -21 -15 -48 -25 -26 -11 -56 -26 -67 -34 -19 -13 -18 -14 9 -7 48 11 196 88 196 102 0 7 2 13 5 13 18 0 72 -34 139 -87 44 -35 81 -61 84 -58 7 7 -76 80 -115 102 -38 21 -41 29 -12 36 14 4 18 10 13 19 -4 7 4 4 17 -8 47 -40 185 -114 213 -114 17 0 2 19 -19 24 -14 4 -25 11 -25 17 0 7 10 9 28 4 15 -3 45 -9 67 -11 l40 -5 -35 20 c-19 11 -53 20 -75 21 -41 0 -122 36 -161 71 -25 24 -36 24 -82 0 -25 -13 -43 -16 -53 -10 -11 6 -26 1 -49 -16 -35 -26 -65 -32 -74 -16 -3 5 -23 12 -43 16 -21 3 -58 17 -82 31 -46 25 -87 28 -171 13z"/> <path d="M1800 1974 c-21 -49 -26 -71 -9 -41 16 27 40 87 35 87 -3 0 -14 -21 -26 -46z"/> <path d="M1238 1999 c-7 -4 -10 -11 -6 -14 10 -11 143 -64 147 -59 14 14 -122 84 -141 73z"/> <path d="M1831 1965 c-29 -62 -26 -71 4 -11 14 27 23 51 21 53 -2 2 -13 -17 -25 -42z"/> <path d="M1861 1952 c-6 -12 -11 -27 -11 -34 0 -7 7 0 15 16 9 16 13 31 11 33 -2 3 -9 -4 -15 -15z"/> <path d="M580 1935 c28 -29 99 -80 105 -74 4 5 -111 99 -121 99 -4 0 3 -11 16 -25z"/> <path d="M1210 1950 c-12 -8 -10 -10 8 -10 13 0 20 4 17 10 -7 12 -6 12 -25 0z"/> <path d="M1270 1920 c8 -5 32 -12 52 -15 21 -4 40 -11 44 -16 3 -5 16 -9 30 -9 13 0 24 -4 24 -8 0 -5 11 -14 25 -20 14 -6 25 -19 25 -27 0 -13 -4 -14 -20 -5 -11 6 -25 8 -30 5 -6 -3 -10 -2 -10 4 0 6 -14 18 -31 26 -30 16 -31 16 -27 -7 2 -15 10 -23 23 -24 11 0 35 -8 53 -17 23 -13 32 -25 33 -45 1 -19 4 -13 10 18 5 25 11 54 13 66 5 17 -3 24 -42 42 -62 27 -208 55 -172 32z"/> <path d="M235 1869 c-24 -46 -13 -54 12 -9 12 22 17 40 12 40 -4 0 -16 -14 -24 -31z"/> <path d="M267 1868 c-3 -7 -12 -30 -21 -50 -9 -21 -14 -38 -11 -38 8 0 48 90 43 96 -3 3 -8 -1 -11 -8z"/> <path d="M1586 1852 l-19 -27 29 25 c16 14 31 26 33 28 2 1 -2 2 -10 2 -8 0 -23 -13 -33 -28z"/> <path d="M470 1849 c-14 -4 -53 -7 -87 -8 l-61 -1 -11 -48 c-5 -27 -21 -78 -34 -115 -14 -37 -21 -67 -16 -67 16 0 60 113 66 168 l6 52 71 0 c39 0 78 4 86 10 20 13 10 18 -20 9z"/> <path d="M510 1853 c0 -11 41 -49 76 -69 17 -10 17 -12 -3 -61 -15 -37 -18 -54 -10 -62 19 -19 -1 -12 -39 14 -20 14 -44 25 -54 25 -28 0 -60 -43 -60 -82 0 -58 107 -244 163 -283 26 -18 78 -20 95 -3 9 9 12 9 12 -2 0 -24 57 39 88 99 55 102 79 230 54 278 -31 57 -114 30 -165 -54 l-33 -54 -23 25 -23 25 21 64 c25 75 22 73 189 82 l92 6 59 -42 c53 -38 58 -44 59 -81 1 -23 9 -83 17 -135 8 -51 15 -99 15 -107 0 -15 -29 -27 -233 -92 l-149 -47 -37 -51 c-35 -48 -57 -90 -95 -179 -10 -23 -15 -63 -15 -100 l2 -62 7 61 c9 67 47 169 85 226 30 45 83 81 151 101 27 9 87 29 134 45 47 16 104 35 126 42 66 20 65 17 49 105 -7 44 -17 115 -20 158 -8 87 -3 80 -110 160 -38 29 -61 41 -63 33 -4 -17 -82 -26 -148 -17 -39 5 -51 4 -47 -5 7 -19 -56 -22 -92 -6 -16 8 -40 24 -52 35 -13 11 -23 16 -23 10z m284 -159 c42 -41 -14 -226 -95 -319 -41 -47 -88 -49 -128 -5 -55 60 -124 188 -129 238 -9 94 48 95 142 1 33 -32 60 -59 61 -59 1 0 12 24 25 53 43 93 88 127 124 91z"/> <path d="M2330 1840 c-8 -5 -11 -12 -7 -16 4 -4 15 0 24 9 18 18 8 23 -17 7z"/> <path d="M1244 1823 c45 -148 65 -201 104 -271 60 -108 66 -90 9 24 -25 49 -57 128 -73 177 -15 48 -32 87 -37 87 -4 0 -6 -8 -3 -17z"/> <path d="M2010 1824 c59 -18 97 -17 45 1 -22 8 -51 14 -65 14 -18 0 -12 -4 20 -15z"/> <path d="M2679 1813 c-13 -16 -12 -17 4 -4 16 13 21 21 13 21 -2 0 -10 -8 -17 -17z"/> <path d="M1290 1816 c0 -2 11 -6 25 -8 13 -3 22 -1 19 3 -5 9 -44 13 -44 5z"/> <path d="M1555 1810 c-3 -5 -1 -10 4 -10 6 0 11 5 11 10 0 6 -2 10 -4 10 -3 0 -8 -4 -11 -10z"/> <path d="M409 1723 c-14 -49 -30 -97 -34 -107 -5 -13 -5 -17 2 -13 20 13 78 207 61 207 -2 0 -15 -39 -29 -87z"/> <path d="M1150 1789 c0 -22 72 -184 122 -277 48 -90 46 -87 54 -80 3 3 -11 38 -30 76 -20 39 -56 117 -81 174 -47 105 -65 135 -65 107z"/> <path d="M2000 1780 c10 -19 50 -29 50 -12 0 8 -43 32 -56 32 -3 0 0 -9 6 -20z"/> <path d="M2605 1789 c-4 -6 -5 -12 -2 -15 2 -3 7 2 10 11 7 17 1 20 -8 4z"/> <path d="M2070 1780 c8 -5 20 -10 25 -10 6 0 3 5 -5 10 -8 5 -19 10 -25 10 -5 0 -3 -5 5 -10z"/> <path d="M523 1740 c-5 -22 -7 -40 -3 -40 4 0 11 11 14 24 3 13 9 31 12 40 3 9 2 16 -3 16 -5 0 -14 -18 -20 -40z"/> <path d="M1414 1765 c11 -8 22 -12 25 -9 6 6 -19 24 -34 24 -5 -1 -1 -7 9 -15z"/> <path d="M2662 1760 c0 -14 2 -19 5 -12 2 6 2 18 0 25 -3 6 -5 1 -5 -13z"/> <path d="M180 1738 c-12 -22 -12 -22 6 -6 10 10 15 20 12 24 -4 3 -12 -5 -18 -18z"/> <path d="M1510 1749 c0 -5 5 -7 10 -4 6 3 10 8 10 11 0 2 -4 4 -10 4 -5 0 -10 -5 -10 -11z"/> <path d="M1320 1745 c0 -5 5 -17 10 -25 5 -8 10 -10 10 -5 0 6 -5 17 -10 25 -5 8 -10 11 -10 5z"/> <path d="M249 1713 c-13 -16 -12 -17 4 -4 9 7 17 15 17 17 0 8 -8 3 -21 -13z"/> <path d="M468 1723 c7 -3 16 -2 19 1 4 3 -2 6 -13 5 -11 0 -14 -3 -6 -6z"/> <path d="M1114 1705 c50 -120 80 -184 84 -180 3 2 -12 43 -32 91 -21 47 -36 88 -33 90 2 3 18 -27 36 -66 17 -38 33 -70 36 -70 3 0 -7 26 -21 58 -15 31 -28 65 -31 74 -3 9 -14 16 -24 15 -11 -1 -18 -6 -15 -12z"/> <path d="M2090 1690 c0 -5 4 -10 9 -10 6 0 13 5 16 10 3 6 -1 10 -9 10 -9 0 -16 -4 -16 -10z"/> <path d="M2132 1679 c2 -6 37 -22 78 -36 41 -14 81 -30 88 -36 9 -7 16 -7 24 1 15 15 18 13 -86 50 -96 35 -110 38 -104 21z"/> <path d="M226 1655 c-9 -26 -7 -32 5 -12 6 10 9 21 6 23 -2 3 -7 -2 -11 -11z"/> <path d="M1637 1550 c-4 -63 -6 -124 -3 -135 2 -11 5 -65 5 -119 1 -103 6 -119 16 -50 4 21 8 48 11 59 4 16 3 17 -5 5 -7 -11 -11 39 -13 170 l-3 185 -8 -115z"/> <path d="M1682 1600 c0 -36 3 -87 8 -115 l7 -50 1 55 c0 30 -4 82 -8 115 l-7 60 -1 -65z"/> <path d="M2056 1652 c-3 -5 9 -13 27 -17 37 -9 31 -7 79 -28 21 -10 49 -17 62 -17 15 0 30 -8 36 -21 9 -16 14 -18 26 -8 19 15 18 26 -3 32 -72 20 -191 56 -204 62 -10 3 -20 2 -23 -3z"/> <path d="M78 1600 c-11 -36 -10 -68 3 -75 14 -10 15 -7 9 50 -4 41 -6 46 -12 25z"/> <path d="M195 1584 c-9 -50 -1 -52 12 -4 5 22 7 40 3 40 -4 0 -11 -16 -15 -36z"/> <path d="M2010 1595 c0 -14 4 -25 9 -25 4 0 6 11 3 25 -2 14 -6 25 -8 25 -2 0 -4 -11 -4 -25z"/> <path d="M285 1600 c3 -5 8 -10 11 -10 2 0 4 5 4 10 0 6 -5 10 -11 10 -5 0 -7 -4 -4 -10z"/> <path d="M2065 1600 c3 -5 16 -10 28 -9 21 0 21 1 2 9 -28 12 -37 12 -30 0z"/> <path d="M2620 1587 c0 -9 -5 -17 -11 -17 -5 0 -8 -4 -5 -9 3 -4 1 -22 -4 -40 -5 -17 -5 -31 -1 -31 9 0 34 101 26 108 -3 3 -5 -2 -5 -11z"/> <path d="M290 1571 c0 -24 81 -125 129 -161 30 -22 56 -39 58 -36 5 5 -58 65 -69 66 -4 0 -30 32 -59 70 -52 70 -59 78 -59 61z"/> <path d="M350 1570 c-18 -6 -20 -8 -7 -9 11 -1 15 -5 11 -13 -5 -8 -2 -9 10 -5 10 4 26 7 37 7 12 0 16 5 13 15 -7 16 -25 18 -64 5z"/> <path d="M440 1487 c11 -32 41 -76 52 -77 4 0 -3 15 -15 34 -12 18 -28 42 -34 52 -11 16 -11 15 -3 -9z"/> <path d="M2040 1458 c0 -12 1 -19 3 -17 1 2 9 12 16 22 12 14 11 17 -3 17 -10 0 -16 -8 -16 -22z"/> <path d="M2970 1460 c0 -13 5 -18 15 -14 8 4 15 10 15 14 0 4 -7 10 -15 14 -10 4 -15 -1 -15 -14z"/> <path d="M2120 1455 c-7 -9 -11 -17 -9 -20 3 -2 10 5 17 15 14 24 10 26 -8 5z"/> <path d="M1410 1402 c0 -24 -9 -51 -25 -75 -14 -20 -22 -37 -18 -37 4 0 19 16 31 34 26 39 42 116 23 116 -6 0 -11 -16 -11 -38z"/> <path d="M2083 1414 c-3 -10 -11 -22 -17 -26 -8 -5 -7 -8 1 -8 14 0 38 39 29 47 -3 3 -9 -3 -13 -13z"/> <path d="M2913 1415 c-8 -9 -8 -16 -1 -23 15 -15 3 -29 -33 -36 -18 -3 -30 -8 -27 -11 4 -5 104 11 138 21 13 5 13 6 0 14 -12 8 -13 13 -2 30 10 17 10 20 -3 20 -10 0 -15 -10 -15 -30 0 -24 -4 -30 -21 -30 -17 0 -20 4 -15 24 7 29 -4 40 -21 21z"/> <path d="M500 1391 c0 -5 5 -13 10 -16 6 -3 10 -2 10 4 0 5 -4 13 -10 16 -5 3 -10 2 -10 -4z"/> <path d="M1272 1335 c-28 -39 -52 -74 -52 -79 0 -12 4 -8 64 67 26 32 45 64 43 70 -2 6 -27 -20 -55 -58z"/> <path d="M2028 1363 c7 -3 16 -2 19 1 4 3 -2 6 -13 5 -11 0 -14 -3 -6 -6z"/> <path d="M494 1348 c19 -63 27 -106 29 -159 1 -36 4 -53 8 -42 18 44 1 165 -27 199 -13 16 -15 16 -10 2z"/> <path d="M530 1347 c0 -14 42 -48 74 -60 32 -12 0 19 -34 33 -16 7 -27 16 -25 20 3 5 1 11 -5 15 -5 3 -10 0 -10 -8z"/> <path d="M1661 1344 c0 -11 3 -14 6 -6 3 7 2 16 -1 19 -3 4 -6 -2 -5 -13z"/> <path d="M1795 1320 c3 -5 8 -10 11 -10 2 0 4 5 4 10 0 6 -5 10 -11 10 -5 0 -7 -4 -4 -10z"/> <path d="M1825 1310 c3 -5 14 -10 23 -10 15 0 15 2 2 10 -20 13 -33 13 -25 0z"/> <path d="M372 1280 c0 -14 2 -19 5 -12 2 6 2 18 0 25 -3 6 -5 1 -5 -13z"/> <path d="M1781 1279 c18 -11 39 -11 39 0 0 5 -12 9 -26 9 -18 0 -22 -3 -13 -9z"/> <path d="M401 1264 c0 -11 3 -14 6 -6 3 7 2 16 -1 19 -3 4 -6 -2 -5 -13z"/> <path d="M466 1258 c-3 -13 -5 -39 -5 -58 1 -27 3 -22 9 20 9 58 7 77 -4 38z"/> <path d="M831 1258 c-14 -23 -14 -23 8 -4 22 20 25 26 13 26 -4 0 -13 -10 -21 -22z"/> <path d="M1846 1268 c3 -4 9 -8 15 -8 5 0 9 4 9 8 0 5 -7 9 -15 9 -8 0 -12 -4 -9 -9z"/> <path d="M432 1245 c0 -16 2 -22 5 -12 2 9 2 23 0 30 -3 6 -5 -1 -5 -18z"/> <path d="M746 1253 c-6 -14 -5 -15 5 -6 7 7 10 15 7 18 -3 3 -9 -2 -12 -12z"/> <path d="M1750 1260 c0 -5 5 -10 10 -10 6 0 10 5 10 10 0 6 -4 10 -10 10 -5 0 -10 -4 -10 -10z"/> <path d="M1780 1250 c0 -5 5 -10 10 -10 6 0 10 5 10 10 0 6 -4 10 -10 10 -5 0 -10 -4 -10 -10z"/> <path d="M362 1220 c0 -19 2 -27 5 -17 2 9 2 25 0 35 -3 9 -5 1 -5 -18z"/> <path d="M393 1190 c0 -30 2 -43 4 -27 2 15 2 39 0 55 -2 15 -4 2 -4 -28z"/> <path d="M840 1220 c-12 -7 -10 -9 7 -7 12 0 19 5 17 9 -6 10 -6 10 -24 -2z"/> <path d="M1760 1219 c0 -7 3 -10 6 -6 3 3 27 -1 52 -9 57 -17 59 -17 44 -2 -6 6 -20 12 -29 13 -10 1 -30 6 -45 10 -20 5 -28 3 -28 -6z"/> <path d="M764 1209 c-3 -5 6 -9 20 -9 31 0 34 6 6 13 -11 3 -23 1 -26 -4z"/> <path d="M493 1160 c0 -30 2 -43 4 -27 2 15 2 39 0 55 -2 15 -4 2 -4 -28z"/> <path d="M1713 1198 c-3 -6 -1 -8 5 -4 6 3 13 2 17 -4 4 -6 10 -8 15 -5 5 3 11 1 15 -5 7 -12 25 -13 25 -2 0 14 -69 32 -77 20z"/> <path d="M424 1100 c0 -58 1 -81 3 -52 2 28 2 76 0 105 -2 28 -3 5 -3 -53z"/> <path d="M658 1193 c6 -2 18 -2 25 0 6 3 1 5 -13 5 -14 0 -19 -2 -12 -5z"/> <path d="M1818 1143 c6 -2 18 -2 25 0 6 3 1 5 -13 5 -14 0 -19 -2 -12 -5z"/> <path d="M2788 1143 c12 -2 30 -2 40 0 9 3 -1 5 -23 4 -22 0 -30 -2 -17 -4z"/> <path d="M2718 1133 c7 -3 16 -2 19 1 4 3 -2 6 -13 5 -11 0 -14 -3 -6 -6z"/> <path d="M391 1114 c0 -11 3 -14 6 -6 3 7 2 16 -1 19 -3 4 -6 -2 -5 -13z"/> <path d="M453 1055 c0 -44 2 -61 4 -37 2 23 2 59 0 80 -2 20 -4 1 -4 -43z"/> <path d="M2705 1110 l-60 -7 50 0 c28 -1 73 2 100 7 47 7 48 7 10 7 -22 0 -67 -3 -100 -7z"/> <path d="M929 1059 c-2 -50 3 -113 10 -132 7 -19 8 -19 13 6 3 14 2 24 -2 22 -4 -2 -8 23 -9 57 -2 61 -10 94 -12 47z"/> <path d="M2633 1053 c26 -2 68 -2 95 0 26 2 4 3 -48 3 -52 0 -74 -1 -47 -3z"/> <path d="M481 1024 c0 -11 3 -14 6 -6 3 7 2 16 -1 19 -3 4 -6 -2 -5 -13z"/> <path d="M383 975 c0 -33 2 -45 4 -27 2 18 2 45 0 60 -2 15 -4 0 -4 -33z"/> <path d="M352 1000 c0 -14 2 -19 5 -12 2 6 2 18 0 25 -3 6 -5 1 -5 -13z"/> <path d="M2558 993 c12 -2 32 -2 45 0 12 2 2 4 -23 4 -25 0 -35 -2 -22 -4z"/> <path d="M180 949 c0 -5 -4 -7 -10 -4 -15 9 -12 -21 3 -34 11 -8 14 -5 14 19 0 17 -2 30 -4 30 -1 0 -3 -5 -3 -11z"/> <path d="M2013 901 c-82 -55 -136 -101 -118 -101 4 0 2 -6 -4 -14 -9 -11 -9 -16 1 -22 7 -4 10 -4 6 1 -9 9 9 35 24 35 6 0 4 -8 -3 -17 -12 -15 -10 -15 8 1 12 10 22 21 21 25 0 3 1 9 2 14 1 4 3 12 4 19 0 6 6 13 13 15 8 3 11 -4 8 -18 -2 -12 -1 -18 3 -15 4 4 7 13 7 18 0 6 5 13 12 15 9 3 11 -24 3 -34 -2 -2 -3 -6 -4 -10 -3 -16 -18 -33 -28 -33 -6 0 -5 7 3 18 11 14 9 13 -9 -2 -12 -11 -20 -21 -17 -24 3 -3 0 -11 -6 -18 -7 -8 -6 -14 2 -20 7 -4 9 -3 5 4 -4 6 17 27 48 49 31 21 54 43 51 50 -2 6 -1 14 3 18 4 4 7 14 8 23 1 26 15 52 25 47 4 -3 13 4 19 15 6 11 9 20 6 20 -3 0 -44 -27 -93 -59z m33 4 c-11 -8 -15 -15 -9 -15 9 0 11 -20 3 -40 -1 -3 -2 -8 -1 -12 0 -4 -9 -13 -22 -19 -18 -10 -20 -10 -11 2 15 21 11 44 -9 43 -25 -2 -22 2 20 31 40 27 61 34 29 10z m-105 -78 c-6 -8 -9 -16 -6 -18 2 -3 -5 -5 -16 -5 -20 0 -20 1 1 18 26 21 37 24 21 5z"/> <path d="M2015 881 c-6 -11 13 -26 22 -17 4 3 1 6 -6 6 -7 0 -9 5 -6 10 3 6 4 10 1 10 -3 0 -7 -4 -11 -9z"/> <path d="M662 835 c-35 -250 -39 -409 -17 -554 19 -126 55 -281 65 -281 4 0 2 19 -5 43 -15 51 -45 220 -45 256 l0 26 24 -30 c14 -16 20 -32 15 -33 -5 -2 -7 -8 -4 -13 3 -5 8 -22 10 -39 12 -100 42 -187 67 -201 11 -6 22 -8 25 -6 2 3 -5 8 -16 12 -26 8 -47 76 -57 186 -5 60 -4 80 5 75 18 -12 53 -16 67 -8 9 5 2 11 -21 18 -19 6 -32 7 -29 2 8 -12 -10 -10 -24 4 -9 9 -12 9 -12 -1 0 -7 -5 -9 -10 -6 -6 4 -8 10 -5 15 3 4 -6 15 -20 24 -24 16 -25 22 -25 106 0 50 2 90 4 90 2 0 23 -18 47 -41 24 -22 54 -44 65 -49 15 -6 23 -20 26 -47 3 -21 4 -39 2 -41 -3 -5 -49 24 -96 61 -21 16 -38 24 -38 19 0 -14 70 -68 126 -98 39 -21 45 -22 40 -7 -3 10 -8 32 -11 48 -13 58 -16 63 -46 75 -16 7 -28 15 -26 17 3 2 24 -4 47 -13 45 -18 130 -23 166 -10 18 7 22 2 33 -51 15 -64 30 -101 31 -71 0 9 -4 27 -9 40 -5 13 -6 37 -3 54 6 29 6 29 14 -11 5 -22 9 -48 9 -57 0 -10 5 -18 11 -18 6 0 7 11 3 28 -4 15 -9 38 -11 52 -2 14 -7 36 -10 49 -5 22 -6 23 -19 5 -7 -11 -17 -16 -21 -11 -4 4 5 20 20 36 17 17 23 30 16 33 -7 2 -18 42 -25 88 -7 47 -13 77 -14 68 -2 -34 -19 -18 -19 17 0 23 5 35 14 35 8 0 14 4 14 8 0 5 -29 3 -65 -3 -76 -15 -110 -9 -177 30 -59 33 -63 25 -5 -11 53 -34 50 -30 41 -46 -5 -7 -7 -48 -5 -90 1 -43 0 -78 -4 -78 -3 0 -23 12 -43 27 -36 26 -36 26 8 -20 24 -26 48 -47 53 -47 5 0 6 18 2 41 -4 22 -4 70 0 107 l7 67 74 1 74 1 0 -46 c1 -72 18 -173 31 -181 8 -5 3 -14 -16 -26 -55 -36 -185 -12 -272 50 l-43 31 5 85 c3 47 11 126 16 176 15 121 7 154 -9 39z m315 -227 c-3 -8 -6 -5 -6 6 -1 11 2 17 5 13 3 -3 4 -12 1 -19z m10 -54 c-2 -13 0 -24 4 -24 5 0 9 -12 9 -27 -1 -24 -2 -26 -11 -10 -13 22 -18 97 -6 90 5 -3 7 -16 4 -29z"/> <path d="M691 899 c0 -13 3 -18 6 -10 5 11 7 11 14 0 5 -8 9 -9 9 -3 0 6 -7 17 -15 24 -13 10 -15 9 -14 -11z"/> <path d="M2569 894 c-21 -11 -18 -11 23 -7 26 3 58 3 72 -1 l26 -6 -20 -53 c-11 -28 -27 -64 -35 -79 -21 -37 -5 -42 26 -7 15 16 24 29 20 29 -4 0 -7 9 -8 20 -1 11 3 18 8 14 5 -3 8 0 7 7 -2 6 3 14 10 16 6 3 12 -3 13 -14 0 -13 2 -14 6 -4 3 8 -2 20 -11 27 -10 7 -13 15 -7 18 15 9 2 36 -18 36 -13 0 -13 2 -2 9 22 14 -84 10 -110 -5z"/> <path d="M2501 807 c-41 -56 -94 -155 -105 -197 -4 -14 9 8 28 49 20 40 56 102 81 137 25 35 44 64 41 64 -3 0 -23 -24 -45 -53z"/> <path d="M2557 820 c-55 -58 -148 -232 -147 -273 0 -7 15 22 32 63 32 78 91 175 136 223 14 15 23 27 20 27 -2 0 -21 -18 -41 -40z"/> <path d="M958 823 c-13 -3 -16 -11 -11 -36 8 -43 13 -47 13 -11 0 17 5 35 12 42 7 7 10 11 8 11 -3 -1 -13 -3 -22 -6z"/> <path d="M2567 782 c-40 -50 -111 -188 -122 -237 -4 -17 10 8 29 55 36 85 76 150 124 203 14 15 22 27 16 27 -5 -1 -26 -22 -47 -48z"/> <path d="M2581 743 c-28 -38 -51 -72 -51 -78 0 -5 15 13 34 40 18 28 45 62 59 78 14 15 22 27 17 27 -4 0 -31 -30 -59 -67z"/> <path d="M889 772 c-3 -20 -2 -29 4 -23 5 5 7 19 5 32 -3 20 -5 19 -9 -9z"/> <path d="M687 725 c-4 -22 -6 -76 -6 -120 l2 -80 8 95 c11 109 8 170 -4 105z"/> <path d="M877 673 c-6 -9 -27 -154 -27 -184 0 -10 5 -19 11 -19 5 0 7 4 4 10 -3 5 1 50 10 101 15 84 15 114 2 92z"/> <path d="M2649 629 c-24 -29 -44 -57 -44 -61 0 -5 -19 -22 -43 -38 -23 -15 -38 -31 -33 -35 12 -6 -17 -45 -34 -45 -5 0 -19 -13 -30 -29 -10 -16 -24 -27 -30 -24 -5 4 -7 3 -3 -2 6 -7 -42 -55 -55 -55 -4 0 -16 -10 -29 -22 -13 -13 -34 -30 -48 -39 -14 -9 -22 -20 -19 -23 11 -11 182 129 258 210 78 84 167 202 158 210 -2 3 -24 -19 -48 -47z"/> <path d="M140 588 c-30 -76 -51 -118 -59 -118 -4 0 -24 11 -44 24 -20 14 -34 19 -31 12 3 -7 24 -23 47 -36 23 -13 43 -24 45 -25 7 -5 -51 -143 -75 -180 -16 -25 -20 -35 -9 -26 22 18 62 97 87 170 22 63 22 64 9 56 -12 -7 -12 -3 -4 19 3 9 11 13 17 9 5 -3 7 -1 4 4 -7 10 12 67 33 106 6 9 6 17 1 17 -5 0 -14 -15 -21 -32z"/> <path d="M1790 606 c0 -2 7 -7 16 -10 8 -3 12 -2 9 4 -6 10 -25 14 -25 6z"/> <path d="M32 567 c-17 -47 -14 -59 4 -18 8 19 13 39 12 43 -2 5 -9 -6 -16 -25z"/> <path d="M1405 570 c-3 -5 -1 -10 4 -10 6 0 11 5 11 10 0 6 -2 10 -4 10 -3 0 -8 -4 -11 -10z"/> <path d="M2381 573 c-1 -6 -4 -20 -7 -30 -5 -17 -5 -17 6 0 6 10 9 23 6 30 -3 9 -5 9 -5 0z"/> <path d="M2473 529 c-7 -18 -11 -35 -8 -37 6 -6 27 48 23 60 -2 5 -9 -6 -15 -23z"/> <path d="M2530 541 c-8 -6 -18 -7 -24 -4 -5 3 -6 1 -2 -5 5 -9 13 -9 27 -2 10 6 19 13 19 15 0 7 -3 6 -20 -4z"/> <path d="M1348 518 c9 -9 15 -9 24 0 9 9 7 12 -12 12 -19 0 -21 -3 -12 -12z"/> <path d="M2721 501 c-30 -15 -49 -31 -43 -35 6 -3 17 0 25 8 8 8 17 13 19 10 3 -2 11 2 18 11 7 8 19 15 26 15 8 0 14 5 14 10 0 13 5 14 -59 -19z"/> <path d="M2361 504 c0 -11 3 -14 6 -6 3 7 2 16 -1 19 -3 4 -6 -2 -5 -13z"/> <path d="M2807 506 c-8 -8 -18 -12 -22 -8 -5 4 -5 1 -1 -6 6 -9 12 -9 29 -1 29 16 30 16 18 23 -5 3 -16 0 -24 -8z"/> <path d="M2387 481 c-4 -17 -3 -21 5 -13 5 5 8 16 6 23 -3 8 -7 3 -11 -10z"/> <path d="M2493 485 c-3 -9 -3 -18 -1 -21 3 -3 8 4 11 16 6 23 -1 27 -10 5z"/> <path d="M2718 463 c-26 -14 -45 -30 -42 -34 2 -4 11 -6 19 -3 8 4 13 10 10 14 -5 8 53 34 68 31 5 -1 6 3 2 9 -8 12 -2 14 -57 -17z"/> <path d="M2744 434 c-18 -14 -18 -15 4 -4 12 6 22 13 22 15 0 8 -5 6 -26 -11z"/> <path d="M50 392 c-39 -77 -41 -82 -33 -82 10 1 69 118 62 124 -2 3 -15 -16 -29 -42z"/> <path d="M2621 403 c-5 -10 -13 -17 -18 -17 -14 2 -53 -19 -53 -28 0 -5 -3 -7 -8 -4 -10 6 -47 -22 -39 -31 4 -3 14 2 22 13 8 10 15 15 15 11 0 -12 99 45 105 60 7 20 -13 15 -24 -4z"/> <path d="M2686 405 c-11 -8 -16 -15 -10 -15 5 0 18 7 28 15 11 8 16 15 10 15 -5 0 -18 -7 -28 -15z"/> <path d="M2975 368 c-12 -31 -12 -49 0 -36 8 8 24 68 19 68 -3 0 -11 -15 -19 -32z"/> <path d="M920 372 c0 -15 38 -92 45 -92 6 0 -18 59 -34 87 -6 11 -11 13 -11 5z"/> <path d="M681 354 c0 -11 3 -14 6 -6 3 7 2 16 -1 19 -3 4 -6 -2 -5 -13z"/> <path d="M1441 219 c-36 -71 -62 -131 -60 -134 3 -2 34 54 69 125 35 71 62 131 59 134 -2 3 -33 -53 -68 -125z"/> <path d="M2658 304 c-32 -25 -58 -52 -58 -61 0 -8 -18 -36 -41 -61 -49 -56 -62 -79 -50 -86 5 -3 17 7 26 22 26 40 57 72 65 67 4 -3 -7 -20 -25 -39 -34 -36 -89 -126 -81 -133 5 -6 18 10 69 87 24 36 53 69 65 75 12 5 22 13 22 17 0 11 -18 10 -25 -2 -4 -6 -11 -8 -16 -5 -11 7 -12 26 -1 24 21 -4 33 4 56 34 22 28 62 108 54 107 -2 -1 -29 -21 -60 -46z m22 -20 c0 -1 -16 -19 -35 -40 -21 -24 -35 -33 -35 -24 0 21 38 67 56 67 7 0 14 -1 14 -3z"/> <path d="M2936 331 c-4 -7 -5 -15 -2 -18 9 -9 19 4 14 18 -4 11 -6 11 -12 0z"/> <path d="M1489 250 c-52 -100 -55 -109 -41 -95 19 18 93 158 89 169 -2 6 -24 -27 -48 -74z"/> <path d="M2993 275 c0 -33 2 -45 4 -27 2 18 2 45 0 60 -2 15 -4 0 -4 -33z"/> <path d="M2966 303 c-11 -39 -18 -188 -8 -178 5 6 12 52 16 103 6 88 3 112 -8 75z"/> <path d="M2895 299 c-11 -17 1 -21 15 -4 8 9 8 15 2 15 -6 0 -14 -5 -17 -11z"/> <path d="M1020 283 c-23 -11 -64 -16 -120 -16 -77 0 -81 -1 -40 -9 43 -8 99 -6 146 8 17 4 22 0 27 -23 10 -47 49 -127 56 -115 4 7 7 -3 7 -22 0 -34 -18 -40 -30 -10 -3 8 -10 14 -16 14 -6 0 -9 -4 -6 -9 4 -5 -22 1 -56 14 -35 13 -71 26 -80 29 -9 3 -27 28 -39 55 -12 28 -27 51 -35 51 -10 0 -9 -7 4 -29 29 -52 5 -52 -78 0 l-35 22 30 -26 c41 -36 174 -101 275 -136 66 -22 88 -35 98 -55 10 -19 20 -26 40 -25 l27 1 -25 7 c-36 10 -40 40 -4 33 18 -3 25 -1 20 6 -4 6 -13 9 -20 6 -22 -9 -39 21 -26 48 11 22 10 22 -9 -2 l-21 -25 0 28 c0 15 -7 39 -16 52 -9 13 -13 28 -10 33 3 5 -2 32 -12 60 l-17 50 -35 -15z m49 -63 c0 -11 -3 -10 -14 4 -8 11 -15 29 -15 40 1 19 2 19 15 -4 8 -14 14 -32 14 -40z"/> <path d="M170 254 c-22 -20 -37 -41 -34 -46 4 -6 18 4 31 21 24 31 59 41 79 22 16 -16 84 -42 84 -32 0 5 -10 13 -22 17 -13 4 -40 18 -60 31 l-38 23 -40 -36z"/> <path d="M2927 263 c-11 -10 -8 -113 3 -113 6 0 10 27 10 60 0 61 -1 65 -13 53z"/> <path d="M785 250 c-3 -6 1 -7 9 -4 18 7 21 14 7 14 -6 0 -13 -4 -16 -10z"/> <path d="M2893 235 c-14 -15 -13 -95 1 -95 4 0 6 13 4 30 -2 16 0 31 5 33 5 1 7 12 5 24 -2 17 -5 19 -15 8z"/> <path d="M980 228 c1 -14 24 -48 33 -48 3 0 -1 14 -9 30 -16 32 -24 38 -24 18z"/> <path d="M2725 230 c-8 -13 5 -13 25 0 13 8 13 10 -2 10 -9 0 -20 -4 -23 -10z"/> <path d="M340 210 c0 -6 7 -10 15 -10 8 0 15 2 15 4 0 2 -7 6 -15 10 -8 3 -15 1 -15 -4z"/> <path d="M2840 201 c-36 -26 -87 -41 -137 -41 -24 0 -42 -4 -39 -9 8 -12 80 -3 127 14 20 8 39 11 43 8 3 -4 6 -1 6 5 0 7 5 12 11 12 7 0 10 -12 7 -30 -3 -18 -1 -27 4 -22 5 5 8 25 6 45 l-3 36 -25 -18z"/> <path d="M380 190 c0 -5 5 -10 11 -10 5 0 7 5 4 10 -3 6 -8 10 -11 10 -2 0 -4 -4 -4 -10z"/> <path d="M2982 168 c-1 -18 2 -38 6 -45 4 -7 9 7 10 32 1 25 -2 45 -6 45 -4 0 -9 -15 -10 -32z"/> <path d="M420 181 c0 -5 9 -11 20 -14 24 -6 27 8 4 17 -21 8 -24 8 -24 -3z"/> <path d="M575 160 c-14 -27 -22 -140 -9 -127 4 3 6 24 6 47 -1 24 8 55 20 75 11 19 15 35 9 35 -6 0 -17 -13 -26 -30z"/> <path d="M740 170 c0 -4 16 -15 35 -26 19 -10 35 -23 35 -28 0 -5 3 -7 6 -3 12 12 114 -49 114 -68 0 -4 -27 -5 -60 -3 -38 3 -57 1 -51 -5 5 -5 42 -12 81 -15 l71 -5 -13 29 c-7 15 -24 40 -37 54 -13 14 -21 19 -17 13 13 -22 -16 -14 -91 26 -40 21 -73 35 -73 31z"/> <path d="M1020 150 c6 -11 12 -20 14 -20 2 0 2 9 -1 20 -3 11 -9 20 -15 20 -5 0 -4 -9 2 -20z"/> <path d="M2587 113 c-52 -73 -61 -93 -41 -93 11 0 14 5 10 17 -4 10 -4 14 0 11 7 -8 64 65 64 81 0 5 5 11 12 13 9 3 9 6 1 11 -7 4 -26 -13 -46 -40z"/> <path d="M2138 124 c-50 -25 -60 -36 -30 -31 27 5 82 36 82 47 0 12 4 14 -52 -16z"/> <path d="M2471 119 c-22 -36 -17 -62 6 -30 8 12 11 26 7 33 -4 6 -3 8 4 4 6 -3 13 -2 16 3 4 5 2 12 -4 16 -5 3 -19 -9 -29 -26z"/> <path d="M2006 124 c-4 -9 -4 -19 -1 -22 2 -3 7 3 11 12 4 9 4 19 1 22 -2 3 -7 -3 -11 -12z"/> <path d="M2610 87 c-44 -59 -49 -73 -22 -58 22 12 54 66 44 75 -4 4 -1 6 7 4 7 -1 15 5 16 15 5 26 -1 22 -45 -36z"/> <path d="M2810 105 c-52 -18 -111 -36 -129 -40 l-35 -7 18 28 c15 25 13 25 -13 -5 -17 -19 -29 -36 -28 -38 7 -7 130 19 192 41 39 13 72 23 74 21 2 -2 -13 -23 -33 -47 -30 -34 -46 -44 -79 -49 l-42 -6 47 -1 c44 -2 48 0 84 46 21 26 39 49 41 51 1 2 14 -4 29 -13 14 -10 28 -15 32 -12 5 6 -49 66 -58 64 -3 0 -48 -15 -100 -33z"/> <path d="M2435 122 c2 -3 0 -13 -6 -24 -17 -31 -5 -30 14 1 14 23 14 28 2 28 -8 0 -13 -2 -10 -5z"/> <path d="M1976 49 c-9 -23 -15 -43 -13 -46 3 -2 12 15 21 38 9 23 15 43 13 46 -3 2 -12 -15 -21 -38z"/> <path d="M2470 50 c-24 -48 -8 -54 20 -7 22 36 25 47 10 47 -5 0 -19 -18 -30 -40z"/> <path d="M1879 76 c-3 -3 -20 -7 -40 -9 -19 -2 -40 -7 -48 -11 -7 -4 -15 -5 -18 -2 -3 3 -12 1 -20 -5 -7 -6 -13 -9 -13 -6 0 3 -14 2 -31 -3 -17 -5 -63 -12 -102 -15 -90 -8 -99 -15 -21 -15 90 0 314 44 314 61 0 9 -13 12 -21 5z"/> <path d="M960 66 c0 -8 42 -29 75 -36 l30 -7 -25 -11 c-14 -6 -18 -11 -10 -11 9 -1 25 6 37 14 14 10 24 12 28 5 3 -5 12 -10 18 -10 7 0 4 5 -6 11 -10 6 -14 15 -10 22 5 8 2 8 -9 -1 -12 -10 -22 -9 -49 2 -49 20 -79 28 -79 22z"/> <path d="M2006 62 c-3 -5 1 -9 9 -9 8 0 15 4 15 9 0 10 -17 10 -24 0z"/> <path d="M2775 45 c-16 -14 -25 -25 -20 -25 13 0 26 10 44 33 18 23 12 21 -24 -8z"/> <path d="M1908 35 c-3 -3 -34 -12 -69 -20 l-64 -14 60 1 c53 2 97 19 83 33 -3 3 -7 3 -10 0z"/> </g> </svg> 