<?xml version="1.0" standalone="no"?>
<!DOCTYPE svg PUBLIC "-//W3C//DTD SVG 20010904//EN"
 "http://www.w3.org/TR/2001/REC-SVG-20010904/DTD/svg10.dtd">
<svg version="1.0" xmlns="http://www.w3.org/2000/svg"
 width="300.000000pt" height="420.000000pt" viewBox="0 0 300.000000 420.000000"
 preserveAspectRatio="xMidYMid meet">
<metadata>
Created by potrace 1.10, written by Peter Selinger 2001-2011
</metadata>
<g transform="translate(0.000000,420.000000) scale(0.100000,-0.100000)"
fill="#000000" stroke="none">
<path d="M931 4060 c-31 -7 -81 -27 -141 -54 -13 -6 -32 -18 -42 -26 -9 -8
-29 -24 -44 -35 -33 -25 -106 -101 -105 -109 2 -10 -43 -51 -52 -48 -5 1 -6
-1 -3 -6 3 -5 -13 -17 -35 -26 -22 -10 -38 -20 -35 -23 3 -3 -10 -25 -29 -48
-19 -23 -35 -48 -35 -54 0 -7 -7 -19 -15 -27 -8 -9 -15 -27 -16 -42 -3 -112
-27 -178 -78 -218 -10 -8 -15 -33 -15 -80 -1 -38 -4 -74 -8 -79 -4 -6 3 -31
14 -55 11 -25 20 -58 19 -73 -1 -16 2 -33 6 -40 4 -6 8 -23 9 -37 7 -63 17
-94 37 -112 12 -11 16 -16 9 -13 -8 4 -3 -13 12 -39 14 -25 23 -46 20 -46 -11
0 42 -67 94 -117 52 -51 52 -52 30 -64 -13 -7 -43 -11 -68 -10 -25 0 -57 2
-72 2 -16 0 -28 5 -28 10 0 5 -22 9 -50 9 -27 0 -50 -4 -50 -10 0 -5 -17 -14
-39 -20 -39 -10 -88 -43 -106 -70 -18 -27 -23 -79 -8 -91 7 -6 13 -20 13 -30
0 -10 9 -23 20 -29 11 -6 18 -15 15 -20 -3 -6 5 -15 19 -22 31 -14 33 -29 6
-53 -12 -10 -18 -25 -16 -32 3 -7 1 -15 -4 -18 -11 -7 -9 -45 2 -45 10 0 8
-78 -4 -109 -5 -15 -4 -28 3 -37 6 -7 8 -17 5 -22 -6 -10 29 -52 43 -52 12 0
61 -47 61 -58 0 -6 7 -12 15 -16 8 -3 15 -14 15 -25 0 -11 6 -26 14 -34 8 -8
19 -32 25 -53 12 -41 31 -77 31 -58 0 6 -7 28 -15 47 -20 48 -19 70 2 32 9
-16 19 -32 22 -35 13 -10 38 -106 55 -207 7 -43 -7 -49 -23 -10 -7 18 -26 58
-42 89 -16 31 -29 66 -29 78 0 11 -5 20 -11 20 -15 0 -3 -49 29 -119 14 -31
24 -64 23 -75 -1 -10 2 -15 7 -12 5 3 15 -1 21 -8 10 -11 7 -19 -11 -38 l-23
-23 -23 69 c-13 38 -35 94 -49 124 -22 46 -25 64 -20 116 5 64 -1 100 -18 103
-16 2 -19 -185 -4 -204 7 -8 14 -23 16 -33 1 -10 12 -34 24 -54 11 -20 18 -36
14 -36 -4 0 -3 -6 3 -12 5 -7 19 -45 31 -84 11 -39 30 -79 41 -89 24 -22 26
-60 4 -69 -8 -3 -12 -10 -9 -16 3 -6 0 -13 -9 -16 -9 -3 -13 -13 -9 -27 10
-42 11 -77 2 -83 -23 -14 -5 -87 35 -146 10 -16 20 -51 22 -83 5 -86 59 -171
158 -253 8 -6 20 -12 27 -12 6 0 -16 29 -48 64 -74 78 -107 144 -109 212 -1
29 -9 63 -18 78 -9 14 -23 37 -31 51 -19 32 -19 89 0 105 19 16 27 8 31 -26 7
-63 79 -155 182 -231 79 -58 268 -163 295 -163 19 0 23 -5 31 -52 l7 -37 -62
25 c-72 30 -155 75 -224 123 -69 49 -185 151 -182 161 3 12 -36 70 -47 70 -5
0 -1 -9 8 -19 10 -11 19 -25 20 -33 17 -90 62 -182 120 -245 25 -26 46 -56 46
-65 0 -10 4 -18 9 -18 13 0 7 63 -7 68 -7 2 -12 10 -12 18 0 7 -9 19 -20 26
-11 7 -20 18 -20 25 0 7 -5 13 -12 13 -6 0 -8 3 -5 7 4 3 1 13 -5 22 -10 12
-8 12 8 -2 11 -9 26 -17 32 -17 6 0 17 -8 24 -18 7 -11 23 -24 35 -30 12 -7
27 -18 35 -24 7 -7 27 -19 43 -27 17 -7 37 -17 45 -22 8 -5 22 -12 30 -15 8
-3 23 -10 32 -15 10 -5 24 -9 32 -9 8 0 21 -6 28 -13 7 -7 21 -16 31 -20 9 -3
17 -15 17 -26 0 -11 7 -27 16 -35 8 -9 12 -16 8 -16 -4 0 8 -11 26 -25 30 -22
42 -25 92 -21 32 2 60 0 64 -5 3 -5 15 -7 27 -5 87 16 139 35 131 47 -3 5 2 6
10 3 9 -3 16 -1 16 5 0 6 7 11 15 11 8 0 15 4 15 8 0 11 48 35 72 38 10 1 23
-5 29 -12 13 -16 35 -18 44 -4 3 5 -13 19 -35 30 -37 19 -40 23 -28 38 11 14
8 14 -17 -2 -16 -10 -52 -34 -79 -53 -68 -49 -130 -73 -184 -73 -44 1 -46 2
-28 15 11 8 30 15 42 15 28 0 74 20 74 32 0 5 -14 1 -31 -7 -35 -18 -45 -14
-34 12 5 10 9 22 9 27 1 5 12 13 26 17 24 9 24 9 5 -7 -19 -16 -19 -16 5 -9
49 15 67 23 96 47 29 25 109 75 109 70 0 -5 36 8 80 28 131 61 330 142 408
166 54 17 61 27 15 22 -17 -2 -33 2 -35 9 -6 16 26 21 63 10 25 -8 58 -1 185
41 85 27 201 69 258 92 58 23 114 39 124 36 20 -5 83 21 74 31 -3 2 -17 -3
-31 -12 -17 -11 -30 -14 -41 -7 -15 8 -12 13 21 40 40 33 54 39 54 22 0 -5
-14 -17 -31 -25 -17 -9 -29 -18 -26 -21 2 -2 17 2 33 10 32 17 45 7 36 -28 -7
-26 -20 -35 -52 -37 -23 0 -24 -1 -5 -10 17 -8 16 -9 -8 -5 -15 2 -25 1 -23
-2 7 -7 -78 -46 -203 -94 -58 -22 -110 -45 -115 -53 -6 -7 -37 -27 -69 -42
-31 -16 -54 -32 -51 -36 3 -3 -20 -19 -52 -34 -33 -16 -115 -59 -184 -94 -69
-36 -141 -72 -160 -79 -19 -8 -39 -16 -44 -18 -5 -3 -6 0 -2 7 4 6 3 11 -2 11
-6 0 -12 -6 -15 -14 -7 -17 -77 -29 -94 -14 -19 15 -16 38 5 38 10 0 22 4 28
10 10 10 282 132 347 156 21 7 35 9 32 4 -9 -15 11 -12 24 4 7 8 35 22 64 31
28 9 72 28 97 41 25 14 36 22 25 18 -11 -4 -54 -19 -95 -34 -41 -15 -127 -42
-190 -60 -118 -33 -264 -89 -358 -138 -30 -15 -60 -26 -68 -24 -8 2 -42 -14
-76 -34 -63 -36 -126 -84 -112 -84 4 0 17 9 29 20 12 11 50 36 85 54 l63 34
39 -25 c21 -14 38 -32 38 -39 0 -26 199 9 225 39 6 7 15 12 20 13 37 3 75 19
75 31 0 8 4 12 9 9 4 -3 17 1 27 9 10 8 26 15 35 15 8 0 24 8 35 18 11 9 54
35 95 56 40 22 82 48 91 58 9 11 19 19 22 19 13 -1 43 14 71 35 17 12 48 28
70 35 22 7 45 17 52 22 13 10 73 19 73 11 0 -11 -29 -34 -42 -34 -10 0 -10 -2
1 -9 12 -8 9 -11 -12 -16 -15 -4 -27 -11 -27 -17 0 -5 -4 -6 -10 -3 -5 3 -10
2 -10 -4 0 -5 -18 -17 -39 -27 -22 -10 -39 -22 -38 -28 1 -5 -2 -10 -8 -11
-20 -2 -75 -36 -75 -47 0 -6 -3 -8 -6 -5 -8 8 -59 -20 -86 -46 -10 -10 -24
-15 -30 -11 -7 4 -8 3 -4 -4 5 -8 0 -12 -14 -12 -11 0 -30 -9 -42 -20 -12 -10
-25 -17 -30 -14 -4 3 -11 -1 -14 -9 -3 -9 -16 -18 -30 -21 -13 -4 -24 -10 -24
-15 0 -5 -15 -13 -32 -16 -18 -4 -37 -10 -43 -13 -5 -4 -19 -8 -30 -9 -48 -7
-103 -35 -113 -58 -7 -16 -8 -26 -1 -30 5 -4 7 -10 4 -15 -3 -5 14 -14 37 -21
47 -12 139 -4 150 13 3 7 14 13 22 15 27 5 51 11 51 13 0 1 12 3 26 5 15 2 42
12 60 22 19 10 39 18 44 18 6 0 24 10 41 22 17 12 34 20 38 16 3 -3 6 -1 6 6
0 7 14 17 30 22 16 6 30 18 30 26 0 8 4 12 9 9 5 -3 14 1 21 9 7 8 21 15 31
15 10 0 21 5 25 11 3 6 21 18 38 26 57 26 76 40 68 48 -4 5 -1 5 6 0 10 -5 11
-10 3 -18 -18 -18 -12 -44 14 -65 13 -11 22 -22 19 -24 -2 -3 9 -5 26 -4 16 1
30 3 30 6 0 3 13 7 30 8 16 1 41 7 56 12 14 6 29 8 33 6 4 -3 28 -8 52 -11 37
-5 50 -2 72 15 15 12 27 26 27 32 0 16 -70 118 -81 118 -5 0 -8 3 -7 8 0 4 -3
16 -7 26 -12 27 18 46 65 41 53 -6 81 19 74 66 -3 19 -12 39 -20 45 -8 6 -14
19 -14 28 0 9 -4 16 -10 16 -5 0 -20 11 -34 25 -27 27 -21 37 27 49 15 3 27
12 27 19 0 7 9 20 19 29 13 11 18 24 14 39 -4 15 -3 20 5 15 7 -4 12 -2 12 4
0 6 5 8 10 5 6 -3 10 1 10 9 0 9 5 16 10 16 6 0 10 7 10 16 0 8 5 12 10 9 6
-3 10 1 10 9 0 9 7 16 16 16 8 0 13 4 10 9 -3 5 2 15 11 22 14 12 16 12 9 -1
-4 -8 0 -6 8 4 9 11 16 23 16 28 0 4 7 8 15 8 12 0 15 13 15 60 0 33 -4 60
-10 60 -5 0 -10 11 -10 23 0 13 -3 27 -7 31 -5 4 -8 11 -9 14 -2 15 -18 47
-26 53 -5 3 -10 16 -11 28 -1 12 -12 26 -28 33 -17 8 -25 17 -21 27 3 9 1 12
-6 7 -7 -4 -12 -2 -12 4 0 6 -5 8 -12 4 -6 -4 -8 -3 -5 3 4 6 -21 37 -55 69
l-62 58 2 75 c1 42 5 87 7 101 3 14 7 36 10 50 3 14 9 26 15 28 5 2 10 19 10
37 0 38 -40 78 -67 68 -11 -4 -14 -2 -9 5 4 7 -1 10 -14 7 -11 -2 -22 0 -24 3
-15 25 -156 -14 -156 -42 0 -4 -6 -3 -14 3 -9 8 -16 8 -20 2 -8 -12 -36 -3
-36 11 0 6 7 8 15 4 25 -9 17 19 -12 45 -16 14 -31 26 -35 27 -30 10 -36 15
-32 27 8 19 -13 53 -36 60 -14 4 -20 15 -20 34 0 15 -5 32 -12 39 -9 9 -9 15
0 24 7 7 8 17 1 30 -7 12 -6 18 1 18 6 0 8 5 4 12 -5 7 -2 9 9 5 11 -4 14 -2
11 8 -4 9 0 12 14 8 23 -5 167 44 188 64 8 8 14 12 14 8 0 -3 12 3 28 13 31
23 114 102 106 102 -2 0 9 13 26 30 16 16 31 36 31 45 2 20 3 24 23 70 32 70
54 173 54 250 0 41 -4 75 -9 75 -5 0 -9 8 -9 17 0 24 -42 123 -52 123 -4 0 -8
6 -8 13 0 8 -9 22 -21 33 -12 10 -27 30 -34 44 -7 14 -43 43 -79 64 -37 22
-69 43 -72 48 -6 9 -141 76 -164 80 -8 2 -20 10 -26 18 -9 11 -39 14 -135 14
-103 0 -129 -3 -151 -18 -16 -10 -28 -15 -28 -12 0 10 -75 -31 -89 -48 -8 -9
-20 -16 -27 -16 -15 0 -134 -114 -134 -129 0 -5 -13 -14 -28 -20 -16 -7 -35
-21 -43 -33 -8 -11 -22 -30 -31 -42 -15 -19 -17 -19 -18 -3 0 10 6 32 14 50
14 35 12 93 -6 122 -7 12 -19 93 -23 152 -3 51 -52 154 -77 161 -10 2 -18 10
-18 17 0 14 -47 48 -66 48 -7 0 -10 6 -7 14 3 7 -1 13 -9 13 -8 0 -24 9 -36
20 -12 11 -28 20 -37 20 -8 0 -15 4 -15 8 0 4 -12 13 -27 20 -16 7 -46 23 -68
36 -21 14 -43 22 -47 20 -4 -3 -8 0 -8 6 0 6 -4 8 -10 5 -5 -3 -10 -2 -10 3 0
21 -202 37 -269 22z m219 -46 c98 -28 315 -158 387 -233 35 -37 61 -104 62
-163 0 -21 9 -74 21 -119 16 -64 17 -85 8 -102 -6 -12 -15 -38 -18 -57 -3 -19
-11 -34 -18 -33 -15 3 -6 -20 30 -76 28 -46 34 -67 20 -73 -19 -8 -61 -76 -72
-116 -6 -23 -15 -40 -20 -37 -6 4 -10 1 -10 -4 0 -17 31 -13 52 6 23 21 24 40
1 22 -15 -11 -16 -11 -5 1 6 8 12 24 12 36 0 13 5 26 11 30 6 4 10 -1 8 -12
-1 -11 3 -32 10 -49 14 -34 7 -79 -12 -69 -7 4 -9 4 -5 -1 5 -5 -3 -23 -17
-41 -14 -18 -25 -38 -25 -45 0 -8 -7 -6 -19 5 -11 10 -25 15 -31 11 -9 -5 -10
-1 -5 15 5 15 4 20 -4 16 -6 -4 -9 -26 -6 -53 3 -35 0 -50 -13 -60 -18 -15
-13 -15 47 2 28 8 34 -9 11 -30 -24 -21 -26 -37 -5 -29 9 4 15 0 15 -9 0 -8
11 -17 25 -19 14 -3 25 -1 25 4 0 5 9 7 19 3 11 -3 22 -2 24 2 3 5 26 8 51 6
25 -1 48 2 51 7 3 5 12 7 20 4 8 -4 12 -11 8 -17 -3 -6 -1 -7 6 -3 6 4 9 12 6
17 -3 5 0 6 8 3 10 -3 22 10 37 43 12 26 25 56 30 65 5 9 7 39 3 66 -4 41 -3
50 12 56 25 9 28 4 27 -51 0 -42 1 -45 9 -23 6 14 8 35 6 48 -3 17 0 22 11 20
20 -4 31 -46 20 -76 -11 -33 -10 -85 2 -77 6 3 10 16 10 28 0 38 20 97 34 97
7 0 22 -9 34 -20 19 -18 21 -28 16 -63 -4 -23 -10 -46 -15 -51 -12 -13 -11
-63 0 -85 13 -23 3 -61 -15 -61 -8 0 -17 -7 -20 -15 -4 -10 -11 -12 -23 -6 -9
5 -26 9 -36 8 -15 -2 -19 3 -17 18 2 18 1 18 -10 4 -9 -11 -41 -20 -93 -27
-144 -19 -244 -53 -222 -77 7 -7 16 -11 21 -8 4 3 2 9 -5 14 -10 6 -3 9 20 9
29 0 32 -2 20 -16 -13 -16 -9 -16 77 6 17 4 38 4 45 -1 17 -11 100 -11 157 0
53 10 56 -5 5 -38 -36 -23 -38 -23 -143 -11 -59 6 -134 8 -168 4 -78 -8 -108
-1 -116 30 -6 25 20 96 36 96 11 0 10 67 -1 74 -5 3 -14 -1 -21 -9 -7 -9 -8
-15 -2 -15 7 0 7 -13 0 -40 -6 -22 -16 -40 -24 -40 -7 0 -16 -5 -20 -12 -4 -7
-3 -8 4 -4 7 4 12 3 12 -3 0 -5 -4 -12 -8 -15 -9 -6 -87 15 -98 27 -4 4 -19 7
-33 7 -25 0 -285 81 -331 104 -24 11 -25 16 -28 123 -3 107 -2 111 20 116 28
8 29 6 38 -40 l8 -38 1 38 c1 46 17 41 31 -12 12 -46 90 -191 103 -191 5 0 -3
20 -17 43 -23 40 -55 121 -56 140 0 4 11 7 25 7 19 0 26 -7 31 -27 11 -43 52
-103 102 -150 25 -24 47 -43 48 -43 8 0 -6 52 -19 71 -22 31 -21 39 3 39 13 0
20 -7 20 -18 0 -27 37 -59 52 -44 8 8 15 7 25 -6 12 -16 14 -16 28 2 8 11 12
22 9 25 -3 3 -9 -1 -15 -9 -8 -13 -10 -13 -19 0 -13 20 -13 43 0 35 6 -3 10
-1 10 4 0 23 22 10 31 -19 13 -35 32 -38 53 -8 21 30 11 36 -12 8 l-19 -23
-11 46 c-18 69 -16 80 10 71 21 -6 21 -5 9 10 -8 9 -20 15 -27 12 -9 -3 -11 0
-7 11 4 11 3 14 -6 9 -7 -5 -9 -16 -5 -29 6 -19 5 -20 -10 -8 -12 11 -19 11
-31 1 -8 -6 -19 -9 -25 -5 -6 4 -6 -3 2 -19 13 -29 6 -41 -17 -32 -32 12 3 76
43 79 12 0 19 3 17 6 -3 2 3 10 13 17 15 12 15 13 1 14 -9 0 -22 -7 -29 -15
-7 -8 -25 -15 -41 -15 -16 0 -29 -4 -29 -10 0 -5 4 -10 10 -10 5 0 3 -15 -5
-32 -7 -19 -20 -33 -29 -32 -64 3 -64 3 -68 39 -4 35 -4 36 26 29 17 -3 36
-10 41 -15 7 -5 11 -1 12 11 1 14 -9 20 -50 28 -90 18 -125 29 -160 51 -19 11
-45 21 -58 21 -15 0 -51 23 -91 58 -76 64 -168 127 -168 113 0 -5 12 -16 26
-26 14 -9 23 -19 20 -23 -10 -9 46 -62 65 -62 20 0 43 -25 35 -39 -5 -7 -15
-7 -33 0 -40 15 -40 2 1 -15 20 -8 36 -20 36 -25 0 -18 -40 -12 -92 14 -28 14
-53 23 -56 21 -2 -3 18 -15 44 -28 60 -28 59 -27 52 -33 -3 -3 -18 -1 -34 5
-25 9 -27 8 -11 -4 19 -14 22 -26 8 -26 -20 0 -140 105 -131 114 19 19 -43
110 -70 101 -9 -3 -25 3 -35 15 -19 21 -15 37 6 24 7 -4 23 -8 36 -9 12 0 32
-10 45 -21 52 -46 56 -47 55 -17 0 16 -2 22 -4 15 -3 -6 -9 -10 -14 -7 -5 4
-1 17 8 31 12 19 13 28 4 37 -8 8 -11 6 -11 -11 0 -24 -1 -25 -24 -16 -12 5
-13 10 -4 30 6 13 15 21 21 17 5 -3 6 3 2 16 -8 25 0 27 22 6 16 -17 34 -16
40 2 3 7 -4 9 -16 6 -12 -3 -21 -1 -21 6 0 6 7 11 15 11 20 0 19 5 -6 57 -24
49 -32 55 -110 73 -60 13 -63 17 -83 105 -3 11 -4 -1 -3 -27 2 -44 0 -47 -25
-50 -37 -6 -48 3 -54 43 -4 25 -1 39 10 48 9 7 16 20 16 28 0 8 9 31 19 51 11
20 27 57 37 82 10 25 24 52 31 61 18 22 16 37 -4 41 -24 5 105 141 162 172
131 70 262 91 375 60z m-530 -247 c0 -15 -42 -48 -55 -43 -23 8 -18 23 13 34
30 11 42 14 42 9z m-67 -49 c8 -22 -13 -50 -31 -43 -13 5 -14 3 -5 -6 14 -14
6 -39 -13 -39 -16 0 -44 -39 -44 -60 1 -8 7 0 16 19 8 19 16 32 18 30 6 -6
-18 -101 -31 -125 -7 -12 -10 -39 -7 -62 5 -40 4 -41 -31 -48 -43 -8 -50 -3
-36 24 6 12 11 37 11 56 0 20 5 36 11 36 8 0 8 5 -1 15 -7 9 -9 22 -5 32 5 10
7 24 6 31 -1 6 2 12 6 12 5 0 20 20 33 45 14 25 30 43 37 41 7 -3 10 1 7 8 -6
16 21 46 41 46 7 0 15 -6 18 -12z m1727 -119 c43 -7 88 -23 135 -50 228 -131
262 -163 324 -304 39 -89 40 -91 30 -165 -23 -184 -55 -266 -143 -361 -65 -71
-111 -109 -130 -109 -5 0 -2 8 7 18 21 23 21 36 3 51 -18 15 -76 23 -76 10 0
-5 13 -9 28 -9 15 0 33 -5 39 -11 18 -18 -17 -67 -52 -75 -16 -4 -39 -13 -51
-21 -23 -14 -71 -11 -107 8 -16 9 -17 13 -6 20 10 6 4 9 -18 9 -62 0 -177 59
-167 85 3 7 1 16 -5 20 -6 3 -11 11 -11 17 0 7 12 0 28 -14 29 -28 71 -52 78
-45 2 2 -11 12 -29 22 -36 19 -51 49 -63 124 -5 32 -4 42 4 37 7 -4 12 -13 12
-21 0 -8 4 -16 9 -19 10 -6 8 21 -4 65 -9 34 12 48 25 17 l10 -23 -3 25 c-1
18 3 25 15 24 10 -1 14 4 11 12 -4 10 4 14 26 14 17 0 31 5 31 10 0 10 -23 7
-85 -10 -53 -15 -70 -15 -94 2 -20 14 -22 20 -11 33 15 18 7 20 -19 3 -27 -17
-54 -3 -46 24 5 20 5 21 -5 5 -11 -17 -13 -17 -36 -2 -13 8 -24 11 -24 6 0 -6
-17 -13 -37 -16 -21 -4 -52 -13 -70 -21 -18 -8 -43 -12 -57 -8 -13 3 -27 1
-30 -5 -5 -7 9 -11 41 -11 26 0 55 -5 63 -10 12 -8 12 -10 1 -10 -11 0 -10 -4
3 -19 23 -25 29 -76 10 -91 -8 -7 -14 -23 -14 -37 0 -13 -4 -22 -8 -19 -15 9
-1 65 17 69 12 4 11 5 -4 6 -11 1 -32 7 -47 15 -23 12 -29 12 -39 0 -11 -13
-14 -13 -21 0 -11 19 -38 21 -39 4 0 -10 -2 -10 -6 0 -2 6 -10 12 -16 12 -18
0 -47 -32 -47 -52 0 -10 -7 -18 -16 -18 -11 0 -14 6 -8 23 3 12 11 24 16 25 5
2 4 10 -2 17 -9 11 0 31 40 90 41 60 50 82 47 108 -3 31 -3 31 -11 -11 -5 -23
-12 -45 -17 -48 -10 -6 0 88 10 96 3 3 7 41 9 85 3 63 9 89 28 122 30 51 36
55 84 55 21 0 46 6 56 14 17 12 15 13 -14 3 -18 -6 -36 -8 -40 -4 -4 3 23 35
60 71 63 62 68 64 117 64 28 0 51 4 51 9 0 5 -19 7 -42 5 l-43 -5 50 27 c49
27 140 51 200 53 17 0 59 -4 95 -10z m-1603 -219 c34 0 53 -11 53 -30 0 -28
-22 -41 -44 -24 -11 8 -27 14 -35 13 -10 0 -7 -4 7 -9 33 -14 27 -21 -8 -8
-17 5 -48 8 -69 6 -22 -2 -37 0 -35 3 2 4 -2 12 -10 18 -11 9 -15 7 -19 -9 -3
-11 -10 -20 -17 -20 -6 0 -8 5 -4 13 5 6 -8 0 -27 -14 -44 -33 -106 -56 -118
-44 -4 6 -11 22 -15 37 -5 23 -2 30 22 42 16 8 38 12 50 10 12 -4 35 4 58 20
46 31 58 33 51 6 -3 -11 -1 -20 4 -20 5 0 9 9 9 21 0 14 5 19 15 16 8 -4 17
-2 20 3 3 5 24 0 48 -10 23 -11 52 -20 64 -20z m88 -57 c19 -44 6 -66 -24 -39
-16 15 -17 22 -8 47 6 16 13 29 14 29 2 0 10 -17 18 -37z m-432 -33 c3 -11 16
-24 29 -29 21 -9 21 -10 -9 -10 -18 -1 -33 2 -33 7 0 4 -3 17 -6 30 -4 12 -2
22 4 22 5 0 12 -9 15 -20z m187 -34 c0 -14 5 -28 11 -32 8 -5 10 1 7 20 -4 19
-1 26 11 28 9 0 23 2 31 3 8 1 23 -3 34 -8 12 -6 16 -6 12 1 -9 15 76 2 94
-14 10 -10 11 -14 2 -14 -7 0 -11 -4 -8 -9 3 -4 0 -16 -7 -25 -10 -14 -18 -15
-39 -7 -41 15 -105 14 -191 -5 -55 -12 -75 -20 -68 -27 18 -18 13 -47 -8 -47
-11 0 -23 -4 -26 -10 -11 -17 51 -11 96 10 57 26 69 25 69 -4 0 -13 -6 -27
-12 -29 -8 -3 -6 -6 5 -6 13 -1 17 7 17 30 0 28 2 31 23 24 12 -4 42 -10 66
-14 53 -7 74 -32 49 -57 -14 -14 -20 -15 -33 -4 -23 19 -151 8 -196 -18 -20
-11 -47 -22 -60 -25 -22 -4 -22 -4 3 -6 25 -1 27 -3 18 -25 -7 -19 -4 -30 11
-51 25 -31 19 -55 -14 -55 -32 0 -47 18 -47 56 0 18 -4 36 -10 39 -5 3 -10 11
-10 16 0 6 5 7 10 4 15 -9 12 11 -4 24 -20 17 -28 54 -10 47 22 -8 10 42 -16
66 -24 22 -25 39 -5 77 12 23 21 29 49 29 19 0 45 3 57 6 17 4 16 2 -6 -9 -16
-8 -23 -14 -15 -14 8 0 26 6 39 13 24 13 24 14 4 20 -11 4 -29 4 -39 0 -18 -5
-18 -5 -1 6 10 6 25 9 33 6 8 -3 24 -1 36 4 35 13 38 12 38 -14z m57 -93 c3
-7 -8 -12 -29 -12 -73 -1 -88 -3 -83 -11 8 -13 -16 -23 -27 -12 -7 7 -1 15 20
26 16 8 32 12 36 9 3 -4 6 -2 6 4 0 14 72 11 77 -4z m33 -113 c0 -5 -5 -10
-12 -10 -7 0 -4 -6 5 -12 9 -7 18 -24 19 -38 2 -19 -2 -26 -19 -28 -18 -3 -23
1 -23 19 0 28 -17 14 -22 -19 l-3 -22 -27 25 c-32 29 -35 26 -12 -11 20 -29 9
-46 -23 -38 -19 5 -21 11 -16 38 3 17 10 37 16 44 7 8 5 12 -7 12 -9 0 -16 4
-16 9 0 10 41 23 49 16 2 -3 -1 -5 -7 -5 -6 0 -9 -7 -6 -15 4 -8 10 -15 16
-15 5 0 6 5 2 11 -5 8 2 10 21 6 l29 -5 -25 20 -24 20 27 -6 c15 -3 30 -2 33
4 8 13 25 13 25 0z m89 -45 c9 -8 35 -33 59 -55 24 -22 40 -44 37 -50 -4 -6
-10 -8 -15 -5 -5 3 -20 -6 -34 -20 -21 -20 -25 -32 -19 -53 6 -25 5 -26 -10
-10 -9 9 -18 22 -19 29 -2 8 -9 19 -17 25 -13 10 -17 27 -20 72 -1 7 -6 10
-11 7 -10 -6 -7 21 6 63 5 16 24 15 43 -3z m270 -69 c-11 -9 -59 -15 -59 -8 0
12 54 30 59 19 1 -4 1 -10 0 -11z m-386 -33 c-3 -39 -2 -45 7 -30 7 10 10 27
7 37 -5 21 17 47 27 31 4 -5 8 -23 10 -40 2 -23 -1 -32 -15 -36 -11 -4 -25
-17 -32 -31 -12 -23 -14 -23 -35 -8 -21 14 -33 62 -12 49 6 -4 8 5 4 22 -4 22
-1 30 18 39 13 6 24 12 24 13 1 0 0 -20 -3 -46z m-63 -15 c0 -7 -4 -19 -9 -27
-8 -12 -14 -13 -37 -2 -25 11 -26 11 -13 -5 12 -15 12 -17 0 -13 -22 8 -24 25
-6 43 19 19 65 21 65 4z m398 6 c12 -4 22 -12 22 -19 0 -7 9 -24 21 -39 18
-23 19 -27 4 -32 -13 -6 -12 -11 10 -40 31 -41 27 -42 -25 -9 -34 22 -40 30
-40 60 0 37 -18 47 -39 21 -8 -9 -27 -12 -64 -8 -74 6 -78 17 -14 36 31 9 59
21 62 26 7 11 29 13 63 4z m642 -51 c0 -7 -9 -13 -20 -13 -20 0 -25 15 -14 44
6 15 8 15 20 -1 7 -10 14 -24 14 -30z m-110 -13 c0 -4 -7 -10 -15 -14 -18 -7
-39 29 -30 52 6 15 9 14 26 -7 10 -13 19 -27 19 -31z m262 5 c4 -19 1 -25 -13
-25 -19 0 -24 16 -13 44 8 21 20 12 26 -19z m-1045 -12 c8 -21 24 -51 36 -67
16 -23 18 -32 9 -47 -16 -25 -15 -29 8 -29 24 0 25 -8 3 -32 -23 -25 -28 -23
-54 20 -13 20 -28 43 -32 51 -7 10 -4 12 14 7 24 -7 24 -7 -1 8 -14 9 -32 15
-40 16 -22 0 -39 20 -33 36 7 18 27 18 43 -1 7 -8 17 -15 23 -15 6 0 1 10 -11
23 -20 21 -21 25 -6 45 8 12 17 22 20 22 3 0 12 -17 21 -37z m988 -15 c-8 -59
-13 -71 -25 -63 -9 6 -7 73 4 98 17 36 28 17 21 -35z m105 27 c0 -17 -6 -25
-17 -25 -17 -1 -17 -1 -1 -14 15 -11 16 -16 4 -31 -12 -17 -13 -17 -20 8 -6
26 0 52 17 75 14 18 17 15 17 -13z m-1290 -14 c0 -5 10 -11 23 -13 14 -2 23
-11 25 -24 3 -18 -4 -23 -33 -28 -42 -8 -58 0 -52 25 3 10 1 22 -4 25 -18 10
-9 24 16 24 14 0 25 -4 25 -9z m466 -77 c16 -11 37 -23 46 -27 14 -5 16 -11 8
-29 -6 -13 -15 -35 -21 -50 -6 -16 -12 -28 -14 -28 -10 0 -57 29 -58 36 -1 5
-7 9 -14 9 -6 0 -20 9 -32 19 -15 14 -29 17 -52 12 -17 -3 -42 -3 -56 0 l-24
6 31 19 c38 24 136 34 119 12 -7 -7 -9 -16 -5 -20 3 -3 6 -1 6 6 0 7 20 -2 45
-20 25 -18 48 -30 51 -26 3 3 -7 14 -23 23 -40 26 -63 53 -56 70 7 18 -21 19
-36 0 -9 -11 -18 -11 -56 2 -25 8 -45 18 -45 23 0 4 17 11 38 15 20 3 51 9 67
13 26 6 31 4 41 -18 6 -14 24 -35 40 -47z m348 68 c8 -13 -11 -35 -23 -28 -16
10 -14 36 3 36 8 0 17 -4 20 -8z m114 -27 c-6 -14 -17 -25 -23 -25 -7 0 -15
11 -17 25 -5 22 -2 25 23 25 27 0 28 -2 17 -25z m207 5 c7 -12 -14 -54 -23
-46 -8 9 -12 38 -6 48 7 11 22 10 29 -2z m97 -15 c-5 -30 -26 -28 -30 3 -3 16
2 22 16 22 15 0 18 -5 14 -25z m-1101 -95 c7 -19 28 -54 47 -77 l34 -43 -30 0
c-26 0 -38 9 -71 53 -21 29 -51 61 -65 70 -32 21 -34 51 -3 64 29 13 71 -18
88 -67z m586 -42 c45 -16 83 -34 83 -38 0 -5 8 -11 18 -13 9 -3 -1 -6 -23 -7
-75 -5 -152 1 -185 13 -8 4 -28 7 -45 9 -33 3 -40 31 -15 61 19 21 53 16 167
-25z m963 -18 c3 -3 30 -16 60 -29 59 -25 92 -49 85 -61 -7 -11 -71 5 -102 26
-19 12 -28 13 -31 6 -2 -7 -10 -12 -18 -12 -9 0 -12 5 -8 11 4 7 3 10 -2 8
-56 -24 -105 -41 -108 -38 -2 2 -6 26 -10 54 -5 45 -3 51 21 71 l27 22 41 -26
c22 -14 42 -28 45 -32z m-1299 34 c8 -9 31 -28 52 -41 34 -21 38 -28 32 -51
-10 -43 -18 -44 -69 -12 -39 25 -46 34 -40 52 5 18 3 20 -12 13 -28 -12 -82
-18 -100 -11 -13 5 -9 11 18 30 60 40 97 46 119 20z m13 -119 c35 -25 71 -45
79 -45 9 0 18 -4 21 -9 11 -18 -89 -23 -128 -7 -20 8 -36 17 -36 20 0 3 21 4
48 2 26 -2 37 -2 24 1 -12 2 -20 8 -17 13 3 4 -2 13 -10 20 -9 8 -15 8 -15 2
0 -6 -24 -18 -54 -26 -64 -19 -69 -19 -61 -6 9 14 -1 12 -37 -6 -22 -11 -46
-15 -77 -11 l-46 6 50 -18 c28 -10 99 -39 158 -65 114 -49 140 -55 131 -32 -3
8 -27 20 -54 26 -59 14 -83 30 -75 51 6 16 50 19 72 6 5 -3 26 -7 46 -9 l37
-2 -5 -47 -4 -47 96 -36 c54 -19 99 -33 102 -31 7 8 1 11 -94 44 -77 26 -83
30 -40 23 80 -11 168 -9 173 6 2 7 25 -7 60 -38 71 -63 90 -65 25 -3 -38 38
-182 133 -201 133 -12 0 -62 43 -57 50 3 4 -3 14 -13 21 -16 13 -16 13 -2 -5
13 -17 13 -19 0 -14 -16 5 -16 46 -1 61 5 5 48 4 97 -2 49 -6 110 -11 137 -11
40 0 47 -3 47 -20 0 -14 -7 -20 -23 -20 -13 0 -27 -3 -31 -7 -8 -8 77 -63 98
-63 7 0 20 -7 27 -16 12 -15 11 -16 -10 -9 -56 17 -92 37 -98 51 -4 11 -8 12
-13 4 -5 -8 -23 -4 -61 16 -35 18 -48 29 -37 32 9 2 27 -2 40 -9 20 -11 21
-10 11 3 -11 13 -8 15 18 16 17 0 34 3 37 6 8 9 -46 6 -97 -3 -32 -7 -53 -5
-78 6 -20 8 -37 12 -40 9 -3 -2 40 -26 96 -53 75 -36 100 -52 97 -64 -5 -22
126 -165 142 -155 7 4 -14 31 -58 73 -71 68 -81 83 -56 83 18 0 76 -48 76 -62
0 -16 32 -37 58 -38 22 0 22 -1 6 -31 -13 -26 -14 -33 -2 -40 8 -5 -2 -7 -24
-4 -30 4 -36 2 -32 -10 8 -20 -11 -19 -81 5 -95 33 -82 10 17 -29 31 -13 62
-20 68 -16 5 3 70 -13 143 -36 126 -41 139 -43 289 -48 128 -5 154 -4 146 7
-13 15 4 36 40 47 31 9 27 -9 -5 -23 -28 -11 -28 -11 7 -7 25 3 42 -1 60 -16
20 -17 21 -19 5 -14 -37 14 -87 15 -82 2 2 -7 17 -11 34 -9 29 3 40 -9 56 -58
3 -9 6 -6 6 8 1 13 5 20 11 17 17 -10 12 -28 -24 -83 -29 -43 -32 -53 -20 -60
19 -10 7 -45 -12 -38 -37 15 -49 17 -29 5 11 -6 22 -14 24 -15 2 -2 -24 -31
-59 -64 -39 -35 -67 -55 -71 -49 -8 14 -21 -5 -25 -36 -1 -13 -10 -35 -20 -51
l-19 -28 -3 27 c-4 29 64 161 78 152 4 -3 14 3 21 13 13 15 12 16 -3 3 -12 -9
-18 -10 -18 -2 0 12 6 15 55 26 l30 7 -24 -26 c-14 -14 -20 -26 -14 -26 5 0
20 11 32 24 l23 25 -37 15 c-21 9 -45 16 -55 16 -18 0 -121 40 -130 50 -10 13
-223 80 -253 80 -8 0 -17 3 -19 8 -3 7 -67 31 -213 79 -44 15 -82 29 -85 33
-3 3 -32 14 -65 24 -33 10 -100 34 -150 53 -49 19 -108 37 -130 38 -22 2 -51
7 -65 13 -58 22 -312 61 -395 60 -41 0 -45 -2 -20 -7 l30 -7 -25 -7 c-58 -16
-140 6 -140 37 0 8 -7 17 -16 20 -10 4 -14 14 -11 25 3 13 0 18 -7 15 -9 -3
-11 4 -8 25 2 18 12 33 23 36 10 4 19 12 19 18 0 14 115 67 145 67 11 0 27 -5
35 -10 11 -7 6 -10 -20 -11 -19 0 -44 -4 -55 -9 -25 -11 -5 -11 57 -1 26 4 49
4 50 0 2 -5 32 -15 68 -24 36 -9 73 -19 83 -21 9 -3 17 -1 17 5 0 5 -8 12 -17
15 -10 3 0 3 23 1 46 -5 148 21 139 35 -3 5 7 12 22 16 15 3 33 7 38 9 29 10
52 1 109 -40z m-249 14 c4 -6 21 -8 38 -5 23 5 26 4 12 -2 -33 -15 -82 -24
-65 -13 9 7 -7 9 -50 6 -36 -2 -87 0 -115 3 -44 6 -39 8 50 13 55 3 105 6 112
7 6 1 15 -3 18 -9z m731 -1 c4 -5 16 -8 27 -8 10 0 31 -9 45 -20 14 -12 35
-20 46 -19 38 2 41 -2 16 -17 -16 -10 -18 -13 -5 -8 53 19 119 -6 112 -43 -2
-12 -1 -21 3 -20 4 1 28 -13 52 -30 45 -32 64 -75 51 -110 -9 -22 -23 -14 -23
12 0 14 -8 29 -20 35 -15 8 -20 8 -20 -2 0 -17 -20 12 -20 30 0 16 15 15 34
-3 16 -17 26 -19 26 -7 0 5 -24 22 -52 37 -37 20 -49 23 -39 11 17 -21 22 -88
7 -98 -6 -4 -18 -8 -26 -8 -13 0 -13 1 0 10 27 17 -15 12 -70 -9 -39 -15 -52
-16 -60 -6 -5 6 -6 16 -2 20 4 5 2 5 -5 1 -6 -3 -14 -2 -17 3 -3 5 34 21 82
37 86 26 88 28 70 46 -10 10 -30 18 -45 17 l-28 -1 28 -10 c15 -5 27 -13 27
-16 0 -11 -73 -8 -95 4 -11 7 -39 15 -62 19 -29 5 -50 16 -67 36 -14 16 -29
28 -33 27 -12 -4 -53 21 -53 33 0 22 33 21 50 -2 14 -18 29 -24 67 -25 54 -2
93 -12 93 -25 0 -9 -28 -1 -48 14 -15 12 -32 -7 -31 -33 1 -11 3 -10 6 3 5 18
19 23 25 9 5 -13 58 -24 58 -12 0 5 20 10 45 10 25 0 45 -5 45 -10 0 -6 6 -5
14 2 21 20 8 30 -35 26 -22 -2 -39 0 -39 4 0 5 -16 8 -35 8 -19 0 -35 5 -35
10 0 6 8 10 18 10 14 0 15 2 2 10 -20 13 -33 13 -25 0 3 -5 2 -10 -4 -10 -5 0
-12 3 -15 8 -5 9 -70 7 -87 -3 -7 -5 -10 -4 -5 3 3 6 -3 17 -15 25 -15 11 -17
16 -7 20 8 4 7 6 -5 6 -36 2 -8 16 31 16 22 0 44 -3 48 -7z m838 -23 c10 -8
22 -12 26 -10 4 3 15 -4 25 -15 10 -11 24 -20 32 -20 7 0 13 -5 13 -10 0 -18
-29 -23 -58 -11 -32 13 -117 19 -117 8 0 -4 -13 -15 -30 -25 l-30 -19 -6 41
c-8 49 -2 57 48 66 58 12 76 11 97 -5z m-182 -85 c4 -45 11 -95 17 -111 l10
-29 -57 6 c-54 6 -58 5 -84 -25 -18 -19 -28 -42 -28 -61 0 -54 -23 -65 -128
-63 -52 0 -95 3 -97 5 -8 7 29 70 44 76 28 10 43 32 48 66 4 29 -3 40 -56 95
-34 35 -61 69 -61 76 0 29 60 35 200 20 94 -10 108 -8 133 17 9 9 25 15 34 14
15 -2 19 -17 25 -86z m-1260 31 c4 -3 4 -12 -1 -19 -7 -11 -15 -11 -46 2 -21
9 -35 19 -32 23 4 3 13 0 22 -7 9 -7 19 -10 22 -6 4 4 1 12 -7 17 -11 8 -9 9
10 4 14 -4 28 -10 32 -14z m1470 -31 c14 -11 39 -25 54 -31 26 -9 27 -11 11
-21 -11 -5 -47 -10 -80 -10 -60 0 -127 -25 -127 -48 0 -5 15 0 34 11 36 21 98
21 161 0 17 -5 42 -12 58 -15 15 -4 27 -11 27 -16 0 -10 -57 -37 -99 -46 -21
-5 -23 -3 -11 5 29 22 -43 -1 -82 -25 l-37 -24 -20 29 c-12 16 -21 35 -21 42
0 7 -7 20 -15 29 -9 10 -18 34 -22 53 -5 34 -3 37 28 50 95 40 110 42 141 17z
m-1209 4 c50 -9 47 -24 -6 -24 -24 0 -48 -5 -55 -12 -9 -9 -12 -7 -12 8 0 35
8 38 73 28z m307 -45 c11 -6 8 -8 -11 -9 -15 0 -33 7 -40 16 -12 15 -11 16 11
9 14 -4 32 -11 40 -16z m-201 -8 l34 -18 -34 -5 c-47 -8 -135 2 -117 13 7 5
21 6 31 3 9 -3 17 0 17 6 0 8 -13 10 -42 5 -31 -4 -39 -3 -28 4 23 17 102 12
139 -8z m-664 -72 c-36 -11 -125 -21 -125 -14 0 9 66 23 110 23 43 0 43 0 15
-9z m1213 -45 c-2 -14 -14 -20 -41 -22 -20 -2 -37 -1 -37 2 0 13 41 46 50 41
6 -4 10 -1 10 6 0 10 3 10 11 2 6 -6 9 -19 7 -29z m-1173 16 c-3 -5 0 -10 7
-10 7 0 34 -14 59 -32 47 -32 89 -97 89 -139 0 -31 -18 -13 -41 41 -12 27 -28
55 -37 62 -10 9 -8 -1 7 -31 31 -59 18 -64 -16 -6 -15 26 -34 54 -41 63 -10
14 -11 13 -2 -10 28 -81 49 -105 140 -163 128 -81 171 -95 299 -100 112 -4
179 -12 196 -25 6 -5 37 -11 70 -15 33 -4 67 -12 75 -17 11 -7 10 -8 -5 -3
-13 4 -16 3 -10 -3 6 -6 33 -12 60 -14 28 -3 59 -8 70 -13 16 -6 18 -6 8 6 -7
7 -13 26 -13 41 0 15 -4 28 -9 28 -4 0 -6 -10 -4 -22 4 -19 0 -23 -21 -24 -25
-2 -26 0 -20 38 6 33 4 39 -9 36 -9 -2 -16 2 -15 7 0 6 5 9 11 7 5 -2 14 3 19
10 6 11 10 10 17 -1 7 -11 10 -10 13 5 4 16 6 14 12 -8 11 -39 27 -35 21 5
l-5 32 14 -30 c8 -16 17 -52 21 -80 9 -71 24 -115 40 -115 8 0 15 -20 20 -56
6 -54 8 -55 32 -49 14 3 39 8 57 11 51 9 74 24 69 45 -3 10 -10 16 -16 12 -6
-4 -7 -1 -2 6 4 7 -2 22 -14 35 -27 29 -19 60 13 50 19 -6 19 -5 7 10 -8 9
-11 19 -8 22 6 7 76 -84 79 -102 5 -50 3 -96 -6 -103 -22 -17 -128 -51 -159
-51 l-32 1 30 15 c29 14 29 14 3 9 -19 -4 -28 0 -32 12 -3 10 -4 -2 -2 -27 3
-50 40 -156 62 -181 11 -12 16 -45 17 -108 2 -84 -3 -110 -16 -78 -3 6 -3 -3
0 -22 6 -32 5 -33 -16 -22 -25 14 -25 15 -9 41 17 26 3 36 -32 23 -31 -12 -40
-3 -16 16 18 15 27 86 14 122 -10 30 -28 40 -28 15 0 -14 -34 -28 -44 -18 -12
12 -5 38 14 50 29 18 25 42 -9 48 -26 5 -29 11 -34 52 -3 30 0 53 9 67 17 25
7 38 -37 48 -24 6 -25 10 -23 58 3 47 14 84 14 46 0 -9 5 -19 11 -23 7 -4 10
2 8 17 -2 13 0 30 5 37 14 23 -2 25 -25 3 -13 -12 -36 -21 -53 -21 -30 0 -190
21 -309 39 -81 13 -160 42 -144 54 8 5 5 6 -9 3 -45 -13 -284 79 -269 104 3 5
-9 18 -26 31 -32 23 -64 82 -53 100 3 5 -15 32 -40 59 -25 27 -46 52 -46 56 0
3 11 4 25 2 13 -3 22 -1 19 3 -3 5 -13 9 -22 10 -14 0 -13 2 3 9 27 11 27 11
20 0z m186 -10 c23 -7 65 -25 94 -41 28 -16 77 -38 108 -48 32 -11 70 -29 85
-39 41 -28 77 -39 187 -57 132 -22 163 -32 170 -56 4 -11 4 -23 2 -26 -11 -11
-197 16 -244 36 -26 11 -100 40 -163 64 -133 52 -229 96 -248 114 -13 12 -35
18 -57 13 -5 -1 -7 2 -2 6 4 4 -10 15 -30 25 -36 16 -36 17 -11 18 14 1 28 -3
30 -7 3 -7 61 -32 133 -57 33 -12 -37 30 -75 45 -36 14 -70 38 -38 27 9 -3 36
-11 59 -17z m734 -5 c39 -40 33 -59 -10 -34 -40 24 -49 35 -40 49 10 16 22 12
50 -15z m-990 7 c6 -4 11 -13 10 -21 0 -12 -19 -15 -88 -15 -84 -1 -90 -2
-113 -29 -13 -15 -24 -35 -24 -43 0 -8 -7 -14 -15 -14 -20 0 -19 19 3 43 12
15 13 18 2 13 -8 -4 5 11 30 33 43 39 47 40 115 41 39 0 75 -4 80 -8z m1596
-29 c44 -20 59 -32 59 -48 0 -14 3 -16 8 -8 6 10 12 10 28 -2 18 -14 18 -14
-10 -15 -27 0 -28 -1 -14 -22 17 -25 78 -65 78 -51 0 5 -17 17 -37 27 -29 14
-34 20 -22 27 21 13 52 11 75 -6 12 -8 39 -13 61 -12 29 1 48 -6 77 -28 21
-16 46 -30 54 -32 19 -2 65 -53 89 -98 20 -37 51 -83 77 -113 17 -19 20 -37
20 -120 0 -53 -6 -126 -13 -162 -7 -36 -14 -90 -16 -120 l-4 -55 -53 3 c-49 2
-51 1 -34 -13 21 -16 89 -11 116 9 8 6 4 -2 -9 -17 -14 -15 -27 -25 -29 -22
-3 3 -11 0 -18 -6 -13 -11 -81 12 -99 34 -6 7 -19 17 -30 23 -24 13 -74 101
-75 130 0 36 -30 97 -63 130 -18 18 -40 44 -51 59 -25 37 -104 67 -208 79 -10
1 -21 5 -24 9 -8 7 23 58 41 69 6 4 12 28 13 54 0 25 5 51 11 57 6 6 11 21 11
34 0 26 3 27 30 13 11 -6 17 -17 14 -24 -4 -10 0 -13 13 -11 10 2 18 4 18 5 0
1 13 3 28 5 22 3 35 -4 57 -28 25 -28 27 -34 14 -48 -8 -8 -14 -22 -14 -30 0
-8 9 -3 23 13 21 26 24 26 52 14 52 -24 165 -125 201 -182 39 -60 53 -71 29
-21 l-16 32 21 -24 c11 -13 23 -35 26 -50 3 -14 10 -37 14 -51 8 -23 8 -22 9
10 0 19 -5 47 -12 62 -15 35 -185 191 -235 217 -21 11 -60 39 -88 64 -61 55
-111 82 -117 64 -5 -15 -57 10 -65 33 -8 20 -19 30 -74 68 -65 44 -64 90 1
101 1 1 30 -11 62 -26z m-1045 -53 c83 -32 176 -65 207 -74 88 -26 75 -34 -24
-15 -95 18 -138 32 -179 59 -14 9 -67 34 -117 55 -51 21 -93 39 -93 42 0 8 60
-12 206 -67z m618 35 c23 -21 25 -27 15 -49 -7 -14 -18 -27 -27 -31 -19 -7
-42 12 -36 30 3 7 0 16 -7 21 -9 5 -10 2 -6 -9 10 -27 -15 -36 -48 -17 -21 11
-31 25 -33 46 l-2 29 20 -24 c11 -12 17 -27 14 -32 -3 -5 3 -9 12 -9 14 0 15
3 6 12 -13 13 -16 32 -4 24 4 -2 14 -1 22 5 10 6 11 9 3 9 -7 0 -13 5 -13 10
0 20 57 10 84 -15z m-205 1 c11 -7 11 -10 0 -18 -10 -7 -8 -8 7 -3 14 3 28 -1
38 -10 25 -26 20 -26 -36 -5 -29 11 -61 20 -70 20 -18 0 -24 11 -13 22 8 8 58
4 74 -6z m1019 -1 c40 -7 59 -25 27 -25 -9 0 -38 -11 -65 -25 -54 -27 -75 -32
-64 -13 5 8 2 9 -12 4 -49 -19 -73 -17 -119 8 l-49 25 43 19 c45 20 152 24
239 7z m-2014 -27 c-5 -7 -2 -9 7 -6 22 8 70 -15 102 -50 27 -28 28 -31 14
-58 -11 -22 -12 -46 -7 -96 6 -57 16 -81 63 -160 31 -51 87 -155 125 -231 37
-76 72 -134 76 -130 5 4 6 -1 2 -13 -3 -12 -1 -32 7 -45 51 -95 81 -139 86
-130 4 5 31 -43 61 -107 30 -64 86 -180 125 -257 68 -135 72 -140 118 -162 54
-26 64 -42 46 -74 -11 -22 -12 -22 -19 -4 -8 21 -68 70 -76 62 -3 -3 9 -15 25
-27 25 -17 30 -26 25 -46 -5 -18 -2 -24 10 -24 9 0 16 -4 16 -9 0 -13 -51 -85
-67 -95 -13 -7 -13 -10 -2 -17 10 -6 7 -9 -11 -10 -23 0 -23 -1 -5 -9 18 -8
17 -9 -7 -9 -15 -1 -29 3 -32 8 -3 5 -14 7 -24 4 -10 -2 -25 4 -33 14 -35 41
-67 165 -37 147 8 -5 9 -2 3 12 -4 10 -15 46 -24 79 -24 82 -81 201 -91 185
-5 -8 -20 -5 -58 15 -50 26 -62 44 -62 95 1 24 1 24 15 6 8 -11 15 -14 15 -8
0 28 29 9 48 -30 l20 -43 -22 -6 c-19 -6 -19 -7 8 -14 19 -5 31 -4 36 5 6 9
10 7 14 -8 4 -11 14 -26 23 -34 12 -9 10 -1 -7 29 -13 23 -27 40 -31 38 -4 -3
-10 2 -13 11 -4 10 -2 13 7 8 8 -5 7 -2 -2 9 -7 9 -10 17 -5 17 5 0 1 7 -8 14
-10 7 -51 87 -93 177 -41 90 -85 182 -96 204 -12 22 -51 99 -87 170 -67 135
-119 210 -162 239 -14 9 -56 41 -94 71 -38 29 -73 52 -76 50 -27 -17 -54 88
-36 143 5 14 3 22 -4 22 -6 0 -8 5 -5 10 3 6 11 10 16 10 6 0 8 -4 5 -9 -4 -5
-1 -11 5 -13 9 -3 9 -10 0 -26 -7 -12 -9 -27 -6 -32 11 -17 25 0 25 28 0 65
27 92 106 111 54 13 56 12 48 -1z m262 4 c17 -11 31 -73 24 -107 -6 -30 -6
-30 -14 10 -4 22 -17 55 -28 73 -19 32 -11 43 18 24z m2087 -49 c16 -15 16
-19 -10 -62 -25 -42 -27 -56 -29 -170 -3 -130 -6 -141 -51 -141 -12 0 -25 -4
-28 -10 -3 -6 4 -10 16 -10 32 0 9 -22 -25 -23 l-26 -2 23 -17 22 -17 -23 6
c-24 6 -36 36 -30 74 2 19 11 25 38 30 34 6 34 6 5 8 -16 1 -37 6 -45 12 -11
7 2 9 48 7 34 -2 62 0 62 5 0 4 -7 7 -15 7 -8 0 -15 5 -15 12 0 9 -3 9 -12 0
-7 -7 -16 -12 -20 -12 -15 0 -8 18 18 50 24 28 25 34 14 58 -8 15 -13 30 -12
35 1 4 -16 7 -38 7 -22 0 -40 5 -40 10 0 6 -14 19 -31 29 l-31 19 32 17 c26
13 29 19 19 31 -6 8 -18 14 -25 14 -10 0 -11 6 -5 22 17 46 167 53 214 11z
m-1956 -23 c21 -11 43 -20 50 -20 7 0 13 -7 13 -15 0 -8 6 -12 14 -9 20 8 28
-11 20 -51 -6 -32 -9 -34 -33 -28 -30 7 -87 35 -115 56 -15 11 -17 21 -12 50
8 43 13 44 63 17z m1720 6 c4 -3 -23 -7 -58 -7 l-64 -1 52 -8 c79 -12 104 -20
98 -30 -11 -17 -86 -52 -101 -46 -22 8 -17 21 9 24 13 1 35 6 48 11 17 7 8 8
-33 4 -48 -5 -61 -2 -84 16 -16 12 -21 21 -13 22 10 0 11 2 1 6 -6 2 -10 9 -7
13 6 10 142 6 152 -4z m-1552 -66 c42 -17 44 -20 16 -15 -18 3 -42 5 -52 5
-11 0 -19 7 -19 15 0 18 -5 19 55 -5z m-387 -56 c1 0 -4 -27 -11 -60 l-14 -59
-11 53 c-7 29 -12 65 -12 79 0 26 0 26 23 7 12 -10 23 -19 25 -20z m216 6 c32
-17 65 -30 72 -30 8 0 14 -5 14 -11 0 -18 -118 29 -140 56 -17 20 -14 19 54
-15z m1761 0 c21 -23 4 -28 -19 -5 -8 8 -25 14 -38 14 -19 -1 -20 -2 -4 -6 11
-3 25 -11 32 -18 7 -7 35 -16 61 -20 45 -6 83 -28 83 -47 0 -12 -68 -10 -92 3
-15 8 -19 8 -13 0 4 -8 -2 -11 -19 -9 -33 5 -95 86 -74 99 23 15 64 10 83 -11z
m-1495 -9 c3 -5 14 -10 24 -12 11 -2 21 -9 23 -16 5 -13 -78 -12 -109 2 -10 4
-25 5 -33 1 -8 -3 -15 -1 -15 4 0 6 -4 9 -9 8 -5 -2 -11 1 -12 7 -8 21 118 26
131 6z m455 -29 c22 -11 48 -27 59 -34 17 -14 17 -15 1 -32 -17 -16 -18 -16
-34 6 -9 13 -16 26 -16 30 0 3 -4 10 -9 15 -5 5 -6 3 -2 -4 4 -7 2 -13 -3 -13
-17 0 -51 38 -51 58 0 10 3 13 8 6 4 -6 25 -21 47 -32z m-885 -15 c0 -5 -10
-31 -21 -58 -22 -50 -46 -68 -36 -26 3 12 9 43 12 69 7 43 9 46 26 35 10 -6
19 -16 19 -20z m683 -9 c15 -11 12 -13 -23 -15 -22 0 -40 3 -40 9 0 5 5 6 10
3 6 -3 10 -1 10 4 0 15 22 14 43 -1z m327 -8 c21 -21 19 -37 -13 -83 -15 -22
-27 -28 -51 -27 -17 1 -34 2 -38 1 -5 -1 -11 -1 -15 0 -4 0 -10 -8 -14 -18 -7
-16 -8 -16 -8 -1 -1 9 4 20 9 23 6 4 8 10 5 15 -3 4 5 10 18 14 34 8 67 44 67
71 0 30 13 32 40 5z m-842 -52 l82 -23 0 -42 c0 -24 -3 -43 -6 -43 -3 0 -31 7
-61 16 -30 9 -56 14 -59 12 -2 -3 15 -10 38 -17 68 -20 88 -30 88 -41 0 -5 -4
-10 -9 -10 -21 0 -177 66 -178 75 -1 6 6 9 15 7 15 -2 15 -1 0 8 -10 6 -18 18
-18 27 0 14 4 12 24 -6 16 -15 39 -23 75 -26 63 -5 58 11 -7 21 -54 7 -92 28
-92 49 0 20 11 19 108 -7z m1836 1 c-29 -33 -53 -42 -70 -28 -17 14 -19 33 -1
24 6 -4 3 1 -7 9 -19 15 -16 16 39 16 l58 0 -19 -21z m-1971 -9 c3 -11 1 -20
-5 -20 -5 0 -6 -5 -2 -12 4 -7 3 -8 -5 -4 -6 4 -8 12 -5 18 5 7 1 9 -9 5 -14
-5 -15 -3 -4 13 15 25 23 25 30 0z m1081 -5 c-4 -9 1 -12 13 -9 11 2 25 -5 36
-21 17 -24 17 -25 -2 -25 -12 0 -35 15 -52 33 -17 17 -36 31 -41 29 -5 -1 -7
2 -4 6 9 15 55 2 50 -13z m101 5 c28 -7 28 -8 5 -9 -14 0 -38 6 -55 15 -32 15
-23 14 50 -6z m-1367 -158 c28 -42 52 -78 52 -81 0 -10 -68 -50 -74 -44 -10
10 -7 35 4 28 15 -9 -3 32 -61 142 l-52 98 39 -34 c21 -19 63 -68 92 -109z
m247 54 c61 -24 156 -54 211 -65 85 -18 335 -41 424 -38 62 1 85 -3 70 -13
-10 -6 -11 -10 -2 -10 27 0 10 -28 -20 -34 -47 -8 -260 -4 -223 5 23 5 13 7
-40 9 -38 1 -81 1 -94 0 -28 -2 -231 51 -226 60 2 3 -9 6 -23 7 -15 0 -28 6
-30 12 -2 5 -29 15 -60 22 -44 9 -64 19 -89 47 -34 36 -43 59 -20 48 6 -3 62
-25 122 -50z m330 31 c11 -1 26 -6 33 -10 14 -9 120 -26 196 -32 47 -3 88 -27
72 -42 -11 -11 -272 -4 -321 9 -22 5 -54 12 -72 15 -40 6 -57 25 -48 53 6 19
12 21 63 15 32 -4 66 -7 77 -8z m537 -99 c-29 -8 -54 6 -46 27 3 7 1 16 -5 20
-6 3 -11 14 -11 24 0 13 11 7 44 -23 l44 -41 -26 -7z m377 31 c-47 -44 -24
-34 26 12 26 24 39 28 73 20 2 -1 -11 -13 -30 -28 -18 -16 -44 -38 -58 -50
-14 -13 -29 -23 -35 -23 -5 0 -32 -15 -60 -33 -145 -97 -175 -112 -175 -87 0
6 7 10 15 10 8 0 29 15 47 33 18 18 49 44 68 57 19 13 53 41 75 61 53 50 89
78 94 74 2 -3 -16 -23 -40 -46z m829 -8 c29 -27 52 -57 52 -66 0 -8 9 -33 20
-55 27 -53 26 -61 -7 -49 -37 13 -67 75 -59 120 3 19 3 28 0 22 -10 -22 -28
-14 -51 22 -46 70 -26 73 45 6z m-82 4 c-1 -22 -5 -25 -41 -24 -38 0 -39 1
-15 12 14 6 29 17 33 24 13 21 25 15 23 -12z m-817 6 c17 -11 5 -32 -14 -24
-8 3 -15 0 -15 -6 0 -13 -70 -81 -83 -81 -4 0 -2 9 5 19 7 11 15 18 19 15 7
-4 31 31 33 46 1 8 30 40 36 40 3 0 11 -4 19 -9z m-1097 -66 c54 -18 99 -31
100 -30 2 2 4 -12 5 -30 1 -33 1 -33 -35 -28 -66 9 -106 24 -91 34 9 6 4 8
-16 3 -24 -4 -27 -3 -15 6 12 9 12 10 -6 6 -27 -8 -53 13 -56 44 -2 14 -7 29
-13 33 -6 5 -1 6 10 2 11 -4 64 -22 117 -40z m1398 25 c13 -9 10 -14 -15 -35
-98 -81 -368 -231 -398 -220 -7 3 -21 -2 -32 -10 -19 -16 -19 -16 2 -6 27 13
40 14 28 2 -15 -14 -113 -50 -119 -43 -4 3 -6 8 -6 12 0 8 105 80 116 80 17 0
264 148 302 181 38 33 58 43 97 47 6 1 17 -3 25 -8z m548 -10 c6 0 12 -5 12
-11 0 -6 -10 -8 -22 -5 -13 3 -17 3 -10 0 18 -9 16 -64 -4 -64 -25 0 -54 19
-54 36 0 8 -5 12 -11 9 -6 -4 -8 -22 -6 -41 4 -27 1 -37 -14 -45 -17 -8 -19
-6 -19 20 0 16 4 41 10 55 6 17 6 26 0 26 -6 0 -10 -7 -10 -16 0 -24 -25 -11
-28 15 -3 21 0 22 30 18 18 -2 42 0 53 4 11 4 29 6 40 4 11 -3 26 -5 33 -5z
m-734 -51 c5 -4 -3 -11 -18 -15 -14 -3 -26 -10 -26 -15 0 -5 -11 -9 -25 -9
-27 0 -31 10 -15 40 8 15 17 18 43 13 17 -3 36 -9 41 -14z m905 -46 c7 -21 20
-46 29 -55 14 -16 14 -20 0 -35 -9 -10 -14 -23 -11 -29 2 -6 -9 -22 -24 -35
-15 -14 -52 -52 -81 -87 -30 -34 -59 -62 -64 -62 -6 0 -5 6 2 15 21 25 -2 17
-31 -11 -23 -22 -30 -24 -48 -15 -12 7 -21 17 -21 23 0 9 -3 9 -12 0 -7 -7
-25 -12 -40 -12 -27 0 -28 2 -16 23 7 12 11 27 9 32 -7 20 0 110 8 113 5 2 6
22 4 46 -5 38 -3 44 17 49 21 5 22 4 16 -51 -3 -31 -6 -64 -7 -72 -1 -8 2 -29
6 -47 6 -25 4 -32 -11 -36 -16 -4 -16 -5 3 -6 12 0 23 -5 25 -9 2 -5 20 -12
41 -15 35 -6 41 -3 93 49 66 66 117 145 104 158 -6 6 -10 21 -10 36 0 14 -9
38 -19 54 -11 17 -17 34 -14 39 8 14 38 -19 52 -60z m-1169 11 c0 -3 -7 -13
-16 -22 -15 -15 -18 -14 -41 13 -13 17 -21 23 -18 14 4 -10 1 -20 -6 -25 -7
-4 -10 -3 -5 4 3 6 1 14 -5 18 -8 4 -4 11 12 20 19 10 29 10 51 -2 16 -8 28
-17 28 -20z m513 15 c3 -12 3 -18 0 -15 -4 3 -16 -3 -28 -14 -22 -20 -93 -41
-82 -24 3 6 -9 8 -30 6 -25 -3 -34 -1 -29 7 14 23 98 57 147 60 9 1 19 -8 22
-20z m345 -24 c0 -19 -5 -35 -10 -35 -6 0 -5 -6 2 -15 8 -10 10 -30 5 -61 -9
-63 -12 -70 -35 -71 -22 -2 -24 16 -10 72 7 28 8 27 9 -12 0 -24 5 -43 11 -43
5 0 7 33 3 84 -3 46 -3 91 0 100 11 28 25 17 25 -19z m-2058 4 c0 -5 -4 -9
-10 -9 -5 0 -10 -4 -10 -10 0 -5 6 -7 14 -4 11 4 13 0 9 -15 -3 -12 -10 -24
-16 -28 -6 -4 -8 0 -4 10 4 11 2 14 -9 10 -23 -8 3 -41 65 -83 28 -19 58 -48
66 -64 22 -43 24 -43 -80 -1 -33 13 -76 14 -101 0 l-24 -12 45 -45 c24 -25 71
-65 105 -89 33 -24 83 -60 110 -81 27 -20 54 -38 59 -40 6 -1 17 -20 26 -40
l15 -38 -42 22 c-81 42 -203 126 -257 177 -29 28 -57 51 -63 51 -14 0 -46 79
-41 100 3 10 18 24 34 30 17 8 26 17 22 24 -4 6 4 3 17 -6 56 -39 62 -39 27 3
-49 56 -56 84 -29 110 12 10 26 19 32 19 5 0 9 3 9 8 -3 16 2 21 16 16 8 -4
15 -10 15 -15z m203 6 c8 -8 17 -11 21 -8 3 4 6 1 6 -6 0 -7 4 -10 9 -7 12 8
42 -4 37 -13 -3 -4 11 -6 30 -5 19 2 32 -1 29 -6 -3 -4 8 -14 25 -22 16 -7 30
-16 30 -19 0 -3 33 -11 73 -18 39 -7 94 -17 120 -22 61 -11 189 -12 219 0 36
13 138 23 138 13 0 -5 -23 -19 -52 -33 -47 -22 -64 -24 -197 -24 -133 0 -157
3 -279 34 -73 19 -128 37 -122 41 6 3 -6 14 -25 23 -39 19 -61 23 -32 6 9 -6
14 -15 11 -21 -5 -7 -2 -9 8 -6 8 4 15 0 15 -8 0 -7 -5 -10 -11 -7 -6 4 -7 2
-3 -3 5 -5 16 -9 25 -10 50 -3 51 -4 58 -50 3 -25 13 -48 20 -51 8 -3 14 -13
14 -22 0 -14 -2 -14 -10 -1 -5 8 -10 10 -10 4 0 -7 -8 -11 -17 -10 -16 1 -101
134 -94 145 2 2 -3 8 -11 12 -10 7 -10 9 2 9 13 0 13 1 0 10 -8 5 -15 13 -15
17 0 4 -10 18 -22 31 -24 23 -30 42 -14 42 5 0 16 -7 24 -15z m1146 -24 c-12
-33 -109 -88 -121 -68 -6 9 -8 9 -8 -1 0 -36 -119 -69 -137 -38 -4 8 -12 15
-18 15 -5 0 -11 4 -13 10 -2 7 14 11 42 11 26 0 63 7 83 15 20 9 43 13 50 11
7 -3 13 1 13 9 0 8 6 15 14 15 7 0 19 7 26 15 19 22 32 18 20 -6 -7 -11 -10
-23 -7 -25 6 -7 28 22 32 43 4 22 2 20 19 20 11 0 12 -6 5 -26z m890 7 c4 -12
6 -30 3 -40 -4 -16 -7 -16 -29 8 -19 20 -21 29 -12 40 16 20 28 17 38 -8z
m-1735 -3 c13 -6 17 -5 13 2 -16 25 128 -25 145 -51 5 -7 8 -6 8 3 0 8 2 12 5
9 3 -3 3 -13 -1 -22 -7 -18 -63 -22 -110 -6 -16 5 -42 11 -59 14 -91 14 -107
22 -112 55 -1 10 9 12 45 8 26 -2 56 -8 66 -12z m329 -6 c31 -14 39 -54 10
-45 -10 2 -67 17 -128 31 -60 15 -112 29 -114 31 -10 9 209 -7 232 -17z m264
-11 c1 -11 -5 -18 -16 -18 -22 0 -31 8 -25 24 7 19 40 14 41 -6z m639 -15 c-2
-9 -9 -19 -16 -21 -8 -3 -10 0 -5 9 5 8 4 11 -1 6 -5 -5 -9 -14 -9 -19 0 -6
-6 -13 -14 -16 -9 -3 -11 0 -6 8 5 9 4 11 -4 6 -6 -4 -9 -12 -6 -17 4 -5 1 -9
-6 -9 -7 0 -10 -3 -6 -6 3 -4 22 4 42 16 20 12 39 20 42 16 4 -3 4 -7 2 -9
-65 -42 -121 -82 -126 -91 -4 -6 5 -3 20 7 43 28 87 20 67 -12 -6 -10 -23 -12
-61 -9 -45 5 -61 2 -94 -18 -63 -36 -245 -115 -300 -129 -27 -7 -72 -23 -99
-35 -34 -16 -51 -19 -59 -11 -15 15 17 48 57 60 134 40 393 161 444 208 14 12
28 23 32 23 4 0 27 15 51 34 44 36 59 38 55 9z m464 -35 c16 -29 8 -47 -12
-31 -7 6 -26 13 -42 17 -21 5 -26 10 -17 15 9 6 10 11 2 15 -6 4 -11 16 -11
28 0 20 0 20 32 1 18 -10 39 -31 48 -45z m-620 -8 c-10 -6 -17 -4 -23 6 -5 8
-12 12 -18 9 -5 -4 -9 -2 -9 4 0 16 34 19 50 4 13 -12 13 -15 0 -23z m750 30
c12 -7 9 -13 -13 -30 -24 -19 -80 -95 -113 -155 -12 -21 -54 -34 -54 -16 0 6
14 20 30 33 17 12 30 28 30 36 0 21 84 142 99 142 3 0 13 -4 21 -10z m-1497
-16 c15 -3 27 -10 27 -14 0 -5 -20 -2 -45 7 -42 14 -65 30 -27 19 9 -3 29 -8
45 -12z m665 -39 c23 -1 45 -5 48 -8 5 -5 -80 -47 -97 -47 -26 0 -109 23 -109
30 0 9 35 7 62 -5 10 -4 23 -5 30 -2 7 3 2 6 -12 7 -23 1 -23 2 -5 10 16 7 14
9 -15 9 -27 1 -32 4 -20 11 8 6 29 8 45 4 17 -3 49 -7 73 -9z m262 -7 c0 -8
-15 -14 -38 -15 l-37 -2 30 14 c38 18 45 18 45 3z m670 -13 c0 -7 -7 -15 -15
-19 -11 -4 -15 1 -15 19 0 18 4 23 15 19 8 -4 15 -12 15 -19z m-2031 -10 c23
-8 78 -21 123 -30 45 -8 88 -21 97 -28 12 -9 13 -9 7 1 -4 6 -4 12 1 12 14 0
173 -75 173 -81 0 -17 -35 -17 -68 0 -59 29 -183 72 -193 65 -5 -3 -9 0 -9 6
0 6 -4 9 -8 6 -5 -3 -32 4 -61 14 -28 11 -60 20 -72 20 -11 0 -27 7 -35 15
-19 19 -8 19 45 0z m912 -51 c-16 -55 -17 -55 -84 -84 -37 -15 -67 -26 -67
-23 0 2 5 23 11 47 9 37 17 46 55 64 25 12 51 22 58 22 8 0 16 7 20 15 3 8 10
15 15 15 5 0 2 -25 -8 -56z m842 31 c33 -29 33 -30 3 -61 -27 -30 -31 -26 -41
39 -8 53 -2 57 38 22z m194 -57 c-90 -107 -89 -141 1 -39 34 37 58 72 54 75
-12 12 21 26 35 14 10 -8 10 -14 2 -24 -6 -8 -8 -14 -4 -14 4 0 -25 -34 -66
-75 -40 -41 -76 -79 -79 -85 -5 -8 -15 -8 -34 -1 l-26 11 24 47 c28 56 128
171 134 154 2 -6 -16 -35 -41 -63z m-2067 6 c26 -47 27 -47 121 -70 52 -13
126 -26 164 -30 88 -8 211 10 247 36 15 11 31 20 36 20 5 0 31 16 58 35 55 39
84 45 84 16 0 -21 -62 -81 -109 -105 -79 -41 -147 -59 -221 -59 -89 0 -204 19
-276 43 -29 10 -56 15 -60 12 -4 -4 -4 1 -1 11 4 10 3 16 -2 13 -5 -4 -25 23
-45 59 -51 94 -48 109 4 19z m1515 36 c17 -19 17 -21 -1 -41 -20 -23 -89 -69
-101 -69 -5 1 12 20 37 43 25 23 37 35 25 27 -40 -29 -74 -63 -70 -70 3 -4
-17 -17 -44 -28 -26 -12 -53 -28 -60 -36 -6 -7 -34 -23 -61 -35 -28 -12 -50
-26 -50 -32 0 -6 -8 -9 -17 -8 -33 3 -44 -1 -37 -13 4 -6 3 -8 -3 -5 -10 7
-123 -37 -123 -48 0 -2 7 -1 17 2 10 4 14 2 10 -4 -4 -6 -16 -13 -27 -16 -13
-3 -18 -1 -13 6 4 7 -4 4 -17 -6 -47 -33 -145 -77 -162 -72 -9 3 -19 1 -23 -4
-3 -7 1 -9 12 -6 11 4 9 1 -4 -6 -22 -12 -53 -7 -53 8 0 12 9 16 305 168 310
158 378 195 420 231 l30 25 -30 -6 c-23 -5 -26 -4 -15 4 22 16 35 13 55 -9z
m-1325 -27 c14 -6 26 -9 53 -16 6 -2 29 -11 51 -20 21 -9 43 -14 49 -10 5 3 7
1 3 -5 -3 -5 0 -13 6 -15 24 -10 -84 -7 -121 3 -20 5 -52 12 -72 15 -25 4 -39
13 -47 30 -8 18 -8 25 1 28 14 5 54 0 77 -10z m322 -9 c36 -18 47 -29 39 -37
-7 -7 -25 -4 -63 14 -29 14 -64 30 -78 37 -24 10 -23 11 13 11 22 1 59 -10 89
-25z m-748 -28 c32 -13 62 -30 67 -37 12 -19 11 -59 -1 -59 -5 0 -10 5 -10 12
0 6 -3 9 -6 5 -3 -3 -15 3 -27 13 -11 11 -24 17 -28 15 -4 -3 -10 4 -14 14 -3
11 -15 23 -26 26 -10 4 -19 11 -19 16 0 6 -5 7 -12 3 -7 -4 -8 -3 -4 4 10 16
12 16 80 -12z m1767 -57 c-51 -48 -67 -56 -98 -56 -21 -1 -59 -5 -85 -10 -27
-6 -48 -8 -48 -4 0 3 51 31 113 61 61 30 111 60 110 67 -2 7 3 10 11 7 8 -3
17 0 21 6 5 8 11 7 22 -2 14 -11 8 -20 -46 -69z m59 6 c-19 -19 -30 -35 -24
-35 5 0 23 17 40 37 28 33 34 36 48 24 15 -13 15 -15 -1 -33 -9 -10 -23 -16
-30 -14 -7 3 -15 0 -19 -6 -5 -7 -2 -8 6 -3 9 5 11 4 6 -4 -4 -6 -11 -9 -16
-6 -4 3 -19 -4 -31 -15 -22 -18 -15 -30 7 -12 5 4 1 -1 -9 -10 -10 -10 -35
-20 -55 -24 -20 -4 -54 -15 -75 -26 -66 -33 -52 -13 35 50 46 33 94 72 107 86
14 14 29 26 35 26 5 0 -5 -16 -24 -35z m-376 -1 c44 -6 45 -7 26 -21 -16 -11
-37 -13 -81 -9 -34 4 -59 3 -59 -3 0 -11 48 -24 60 -16 6 4 10 1 10 -6 0 -8
-15 -10 -52 -6 -39 5 -49 4 -38 -4 11 -8 8 -9 -15 -4 -50 11 -48 27 8 51 59
25 75 27 141 18z m-1324 -28 c0 -7 9 -31 20 -54 27 -56 25 -73 -5 -32 -13 18
-22 37 -20 41 3 4 1 10 -5 14 -5 3 -10 17 -10 31 0 14 4 22 10 19 6 -3 10 -12
10 -19z m776 0 c19 -15 19 -15 -3 -37 l-21 -22 -32 23 -32 23 23 13 c31 17 41
17 65 0z m84 -2 c0 -4 -21 -35 -46 -71 -52 -73 -62 -101 -65 -183 -2 -50 -7
-63 -33 -92 -17 -18 -57 -49 -88 -68 -32 -19 -58 -38 -58 -43 0 -5 7 -4 15 3
18 15 24 11 30 -19 5 -24 -13 -81 -25 -81 -5 0 -15 7 -23 15 -12 12 -17 12
-26 1 -8 -10 -3 -15 26 -24 32 -10 40 -9 58 8 18 17 156 90 170 90 3 0 152 73
331 161 178 89 328 159 331 155 3 -3 2 -6 -3 -6 -6 0 -19 -7 -30 -16 -18 -14
-18 -14 6 -3 14 6 36 19 50 29 14 9 61 29 105 44 44 16 99 36 121 47 139 61
225 70 232 22 4 -30 -39 -60 -122 -83 -205 -58 -385 -118 -501 -167 -71 -30
-147 -62 -167 -70 -21 -9 -35 -19 -33 -23 3 -4 -19 -17 -48 -30 -77 -32 -83
-34 -72 -23 6 6 31 18 58 28 26 10 46 20 44 22 -7 6 -108 -36 -167 -71 -32
-19 -68 -37 -81 -41 -13 -4 -26 -10 -29 -14 -15 -19 -133 -77 -172 -86 -15 -3
-43 -21 -62 -40 -22 -22 -45 -35 -61 -35 -30 0 -30 0 -3 46 17 28 19 40 10 54
-6 11 -7 21 -1 27 16 16 29 72 18 79 -5 3 -32 0 -59 -7 l-50 -13 45 -19 c25
-11 42 -23 39 -28 -3 -5 -13 -5 -24 1 -10 5 -28 10 -38 10 -12 0 -28 14 -41
35 -20 35 -20 35 0 35 11 0 32 6 47 14 15 7 44 16 64 20 20 4 38 10 40 14 2 4
23 20 47 37 49 33 91 92 88 124 -2 27 -27 27 -60 1 -34 -27 -142 -50 -238 -50
-81 0 -102 9 -114 49 -6 19 -4 23 8 18 66 -25 263 -3 326 36 20 12 39 21 43
19 5 -1 7 3 5 9 -1 7 36 45 83 85 79 69 100 83 100 68z m1190 -11 c-1 -45 -32
-49 -38 -5 -3 17 2 22 17 22 13 0 21 -6 21 -17z m-71 -7 c10 -12 8 -17 -8 -26
-19 -9 -21 -8 -21 15 0 28 12 32 29 11z m-2182 -18 c18 -13 33 -25 33 -28 0
-3 -18 -5 -39 -5 -25 -1 -37 3 -34 10 3 5 0 5 -6 -1 -32 -29 221 -231 367
-294 36 -15 58 -33 68 -52 9 -17 13 -32 10 -35 -12 -13 -228 110 -286 163 -14
12 -37 29 -52 37 -38 19 -155 131 -162 155 -8 23 25 52 59 52 16 0 17 2 5 10
-8 5 -11 10 -6 10 6 0 25 -10 43 -22z m518 -9 c44 -10 93 -19 108 -19 28 0
100 -32 172 -78 l40 -25 -31 -13 c-30 -12 -39 -10 -145 37 -63 28 -127 57
-144 65 -16 7 -48 20 -69 27 -22 8 -42 20 -44 27 -3 9 1 11 14 6 11 -4 55 -16
99 -27z m800 0 c13 -40 -3 -63 -65 -96 -33 -18 -62 -33 -65 -33 -3 0 -5 26 -5
59 l0 58 53 16 c70 21 75 20 82 -4z m-428 -11 c6 -9 0 -22 -17 -40 -25 -26
-27 -26 -59 -11 -40 20 -29 34 28 36 40 2 53 11 29 20 -8 4 -9 6 -2 6 6 1 16
-5 21 -11z m1404 2 c17 0 9 -29 -11 -40 -11 -6 -20 -9 -21 -8 0 2 -2 16 -4 31
-3 22 0 27 11 23 9 -3 20 -6 25 -6z m-1190 -46 c59 -45 66 -57 50 -82 -6 -10
-15 -7 -39 13 -18 15 -32 25 -32 22 0 -3 -14 8 -31 24 -22 21 -29 34 -24 49 3
11 9 20 11 20 3 0 32 -21 65 -46z m1089 36 c13 -8 13 -13 -2 -37 -9 -15 -25
-30 -35 -32 -10 -2 -15 0 -11 4 4 5 3 13 -2 20 -6 7 -4 19 6 33 17 24 22 26
44 12z m-530 -18 c0 -9 -32 -33 -55 -42 -26 -10 -92 -13 -67 -3 6 2 12 11 12
19 0 8 9 14 19 14 11 0 22 4 26 10 5 8 65 10 65 2z m-1175 -23 c-3 -3 17 -12
43 -19 26 -6 56 -19 66 -28 15 -13 17 -13 11 -2 -8 13 -7 13 8 1 30 -24 14
-35 -44 -32 -57 3 -89 21 -89 53 0 10 -4 18 -10 18 -5 0 -10 4 -10 8 0 5 7 9
15 9 8 0 12 -4 10 -8z m1791 -3 c15 4 24 2 24 -5 0 -6 -7 -11 -15 -11 -8 0
-15 -7 -15 -15 0 -9 -6 -12 -15 -9 -8 4 -15 14 -15 23 0 10 -5 8 -13 -9 -8
-16 -21 -25 -35 -24 -15 0 -22 -5 -22 -18 0 -10 -6 -18 -14 -18 -9 0 -14 9
-13 20 1 11 7 20 13 20 7 0 21 11 31 24 19 24 55 38 61 24 2 -4 15 -5 28 -2z
m-246 -21 c0 -2 -15 -12 -32 -21 -18 -9 -35 -20 -38 -24 -5 -8 -124 -60 -136
-60 -4 0 14 17 41 37 48 38 165 86 165 68z m-1902 -34 c26 -22 28 -31 7 -31
-8 0 -15 8 -15 18 0 10 -3 13 -8 6 -5 -8 -13 -5 -26 7 -19 19 -19 19 0 19 10
-1 29 -9 42 -19z m904 0 c8 -10 21 -20 28 -23 24 -8 2 -44 -29 -46 -27 -2 -28
0 -28 43 0 50 5 54 29 26z m459 3 c27 -9 49 -18 49 -20 0 -2 -8 -8 -18 -13
-13 -7 -36 -6 -73 4 -36 10 -55 11 -60 4 -4 -7 -12 -4 -23 6 -20 20 -20 25 0
25 9 0 12 -5 8 -12 -4 -6 3 -4 17 5 29 21 38 21 100 1z m-1307 -30 c20 -8 11
-24 -15 -24 -19 0 -25 11 -12 23 8 8 8 8 27 1z m1122 -30 c-3 -9 -6 -30 -6
-47 0 -29 -6 -35 -70 -68 -39 -20 -73 -32 -76 -27 -3 5 -3 27 1 48 6 37 11 42
73 73 79 40 86 42 78 21z m864 0 c0 -7 18 -23 40 -34 22 -11 40 -24 40 -29 0
-4 9 -18 20 -31 11 -13 20 -34 20 -48 0 -21 -3 -24 -27 -18 -16 3 -50 8 -78
10 -40 4 -43 3 -15 -3 l35 -7 -30 -8 c-46 -12 -85 -28 -91 -38 -3 -5 6 -6 20
-2 22 5 26 3 26 -16 0 -18 -4 -21 -25 -18 -14 3 -28 1 -31 -3 -3 -5 9 -9 26
-9 46 0 82 -23 108 -69 13 -23 27 -41 33 -41 14 0 11 -30 -3 -35 -7 -2 -35 -6
-61 -10 -46 -6 -48 -5 -42 14 8 26 -1 26 -59 1 -25 -10 -68 -22 -96 -26 -48
-6 -49 -6 -44 17 3 13 8 43 11 67 5 36 9 42 29 42 12 0 30 7 39 16 22 22 10
32 -13 11 -10 -10 -27 -17 -38 -17 -12 0 -3 9 26 26 50 30 120 92 120 108 0 5
-15 -4 -33 -22 -49 -47 -54 -39 -9 16 39 46 59 92 41 92 -9 0 -11 -5 -13 -32
-2 -24 -103 -138 -123 -138 -8 0 -12 -4 -8 -9 3 -5 -13 -20 -35 -32 -22 -13
-40 -27 -40 -31 0 -5 -4 -6 -10 -3 -9 5 -14 -7 -12 -26 1 -4 -6 -6 -16 -5 -9
0 -16 -4 -15 -11 2 -8 -4 -10 -14 -6 -9 4 -14 2 -10 -3 3 -5 -3 -11 -14 -12
-42 -4 -48 -6 -44 -13 6 -9 -23 -28 -155 -101 -58 -33 -116 -61 -130 -64 -14
-3 -34 -9 -45 -14 -75 -31 -145 -47 -193 -42 -29 2 -52 7 -52 10 0 13 46 42
66 42 23 0 194 58 234 80 12 6 19 14 17 17 -3 2 -19 -3 -36 -11 -16 -9 -36
-16 -43 -15 -16 0 90 49 107 49 14 0 256 146 265 160 3 4 23 17 46 28 22 11
63 41 92 67 44 40 50 49 42 69 -6 17 -4 29 5 42 13 17 14 16 9 -13 -3 -17 -2
-38 3 -47 7 -12 16 -8 56 28 26 24 47 52 47 62 0 13 -8 7 -26 -19 -14 -21 -28
-37 -30 -34 -7 7 40 76 52 77 6 0 16 6 22 13 15 17 62 18 62 1z m-1126 -85
c36 -33 66 -65 66 -70 0 -33 -148 45 -149 79 -1 17 12 15 45 -9 16 -11 12 -6
-9 13 -36 32 -46 48 -28 48 4 0 38 -27 75 -61z m-958 3 c-5 -9 54 -48 66 -44
4 1 5 -4 2 -11 -5 -13 34 -37 61 -37 8 0 17 -5 21 -12 5 -7 2 -9 -7 -4 -8 4
-6 1 4 -7 13 -11 15 -16 5 -19 -16 -6 -58 12 -58 24 0 5 -11 13 -25 18 -14 5
-25 14 -25 20 0 6 -4 8 -10 5 -5 -3 -15 3 -22 15 -7 11 -17 20 -21 20 -13 0
-37 27 -30 34 9 9 45 7 39 -2z m562 -18 c18 -7 30 -9 27 -4 -7 12 -3 12 20 4
12 -5 13 -9 5 -14 -6 -4 1 -7 17 -7 15 0 37 -3 48 -6 11 -4 -2 4 -30 18 -27
14 -58 23 -67 21 -10 -2 -18 0 -18 5 0 5 14 9 31 9 33 0 129 -47 129 -62 0 -5
-4 -6 -10 -3 -5 3 -10 1 -10 -5 0 -8 -7 -9 -17 -5 -42 16 -47 17 -28 2 30 -25
-2 -22 -50 4 -22 12 -60 33 -85 46 -45 24 -24 22 38 -3z m-43 -24 c-5 -9 15
-15 37 -11 4 0 7 -10 6 -23 -2 -18 -7 -23 -22 -20 -29 5 -48 28 -40 47 3 9 10
17 16 17 5 0 6 -4 3 -10z m391 -36 c27 -24 31 -39 8 -30 -8 3 -13 2 -10 -3 3
-5 -1 -12 -10 -15 -10 -4 -13 -2 -8 6 5 7 0 9 -14 6 -21 -6 -43 23 -23 30 6 2
11 10 11 18 0 18 17 14 46 -12z m-78 -55 c19 -17 32 -32 30 -33 -29 -26 -50
-26 -83 0 -40 30 -41 32 -17 50 25 19 33 17 70 -17z m-618 -3 c0 -14 5 -28 10
-31 7 -4 9 2 4 19 -5 22 1 18 45 -26 51 -51 74 -62 45 -20 -8 12 -19 20 -23
17 -5 -2 -19 7 -31 20 -27 29 -19 31 29 7 26 -13 38 -28 49 -60 16 -49 9 -66
-14 -34 -8 12 -24 22 -34 22 -10 0 -25 7 -34 15 -8 8 -22 15 -31 15 -17 0 -22
9 -29 53 -3 15 0 27 5 27 5 0 9 -11 9 -24z"/>
<path d="M708 3880 c-9 -6 -27 -25 -39 -43 l-22 -32 39 35 c21 19 43 38 49 42
14 12 -7 9 -27 -2z"/>
<path d="M1044 3821 c7 -46 27 -66 21 -21 -2 18 -9 38 -15 44 -9 8 -10 2 -6
-23z"/>
<path d="M665 3786 c-9 -14 -15 -33 -13 -43 3 -13 9 -7 21 21 20 46 16 58 -8
22z"/>
<path d="M1064 3752 c3 -5 -1 -30 -9 -55 -16 -52 -3 -65 14 -16 14 40 14 79 0
79 -5 0 -8 -4 -5 -8z"/>
<path d="M679 3588 c-7 -32 -6 -88 1 -93 6 -4 10 13 10 44 0 28 -2 51 -5 51
-3 0 -5 -1 -6 -2z"/>
<path d="M1367 3537 c-5 -13 -1 -14 23 -6 22 8 36 6 69 -10 41 -21 71 -27 71
-13 0 10 -68 33 -116 39 -31 4 -43 1 -47 -10z"/>
<path d="M1168 3478 c17 -6 32 -17 32 -24 0 -7 11 -26 25 -42 19 -22 25 -41
25 -75 0 -25 5 -49 12 -53 8 -5 10 9 6 52 -8 83 -55 154 -101 153 l-32 -1 33
-10z"/>
<path d="M1576 3381 c-18 -35 -19 -41 -7 -41 11 0 36 59 28 66 -3 3 -13 -8
-21 -25z"/>
<path d="M1383 3354 c-32 -14 -64 -54 -43 -54 5 0 10 5 10 10 0 6 20 19 45 30
44 19 57 31 33 29 -7 0 -27 -7 -45 -15z"/>
<path d="M1447 3293 c-20 -16 -54 -40 -75 -55 -32 -22 -41 -35 -44 -65 -7 -51
11 -102 44 -126 l27 -20 42 29 c23 15 46 40 52 54 6 14 18 34 26 44 14 16 14
18 1 14 -8 -2 -19 -13 -25 -24 -21 -40 -41 -61 -64 -69 -15 -4 -21 -4 -17 3 3
6 1 12 -6 14 -8 3 -4 12 11 27 28 28 41 63 41 111 0 21 5 42 10 45 6 3 10 -3
10 -14 0 -12 5 -21 10 -21 13 0 13 27 -1 36 -6 3 -9 15 -6 25 6 24 7 24 -36
-8z m-25 -113 c-2 -16 -9 -30 -14 -30 -5 0 -6 -5 -2 -12 4 -6 3 -8 -4 -4 -6 3
-14 1 -18 -5 -12 -20 -23 13 -12 40 18 48 57 57 50 11z"/>
<path d="M835 3220 c-10 -16 111 -80 153 -80 28 0 0 18 -54 35 -31 10 -65 26
-75 36 -10 10 -21 14 -24 9z"/>
<path d="M1247 3175 c-9 -19 -17 -49 -17 -65 0 -36 -7 -40 -74 -47 -45 -5 -59
-2 -85 16 -17 12 -31 17 -31 12 0 -16 61 -51 87 -51 13 0 43 5 68 12 42 11 45
14 45 46 0 18 7 47 16 63 8 17 14 35 12 40 -2 6 -11 -6 -21 -26z"/>
<path d="M1216 3178 c-8 -12 -18 -36 -22 -51 -7 -32 -45 -51 -77 -41 -13 4
-17 2 -13 -5 15 -23 106 -8 106 18 1 9 7 34 15 56 17 46 13 56 -9 23z"/>
<path d="M1267 3137 c-9 -41 -2 -73 20 -98 12 -15 11 -16 -14 -11 -33 6 -30 1
14 -20 29 -14 31 -14 26 1 -6 15 -5 15 13 -1 25 -22 70 -33 78 -19 5 7 -2 11
-16 11 -38 0 -87 36 -81 58 2 11 -1 23 -7 27 -9 5 -10 1 -5 -16 4 -14 4 -20
-1 -16 -5 5 -11 34 -14 65 l-5 57 -8 -38z"/>
<path d="M1744 2719 c-10 -12 -38 -31 -62 -41 -51 -23 -51 -32 -1 -18 34 10
98 64 87 75 -2 3 -13 -5 -24 -16z"/>
<path d="M2367 3436 c-32 -24 -87 -58 -123 -76 -36 -17 -63 -34 -60 -37 2 -3
41 14 87 36 45 23 76 34 69 26 -7 -9 -11 -17 -9 -19 2 -3 28 22 57 55 29 32
50 59 45 58 -4 0 -34 -20 -66 -43z"/>
<path d="M2097 3381 c-37 -24 -43 -31 -26 -31 8 0 30 11 49 25 38 28 20 33
-23 6z"/>
<path d="M1957 3333 c-6 -31 7 -73 23 -73 7 0 7 6 0 21 -15 26 -6 49 18 49 10
0 19 7 19 14 0 11 -5 12 -18 5 -23 -12 -32 -12 -24 1 3 6 2 10 -3 10 -5 0 -12
-12 -15 -27z"/>
<path d="M1760 3320 c0 -5 9 -10 20 -10 11 0 20 -4 20 -10 0 -5 -4 -10 -10
-10 -5 0 -15 -10 -21 -22 -11 -21 -11 -22 4 -9 16 12 16 11 1 -24 -8 -21 -13
-44 -10 -52 4 -9 2 -11 -6 -7 -8 5 -9 2 -5 -9 4 -10 10 -24 14 -33 5 -15 3
-15 -20 1 -34 22 -35 6 -1 -19 26 -18 26 -18 62 15 20 19 42 39 49 46 24 22
15 67 -23 111 -33 38 -74 56 -74 32z"/>
<path d="M2034 3170 c-12 -4 -24 -15 -27 -24 -8 -21 9 -66 25 -66 9 0 9 3 0
12 -20 20 -14 45 16 67 28 21 22 26 -14 11z"/>
<path d="M1932 3135 l-24 -13 34 -25 c39 -30 145 -87 161 -87 16 0 -22 25 -85
57 -60 29 -70 40 -62 66 6 19 7 19 -24 2z"/>
<path d="M2430 3100 c0 -16 -63 -50 -93 -50 -32 0 -67 -16 -67 -31 0 -6 7 -6
19 1 11 5 32 10 46 10 31 0 61 14 93 43 23 22 29 37 12 37 -5 0 -10 -5 -10
-10z"/>
<path d="M1783 3074 c3 -4 0 -16 -8 -28 -21 -30 -18 -42 5 -21 22 20 27 55 8
55 -6 0 -8 -3 -5 -6z"/>
<path d="M2381 2960 c-18 -4 -44 -20 -57 -36 -24 -28 -32 -64 -14 -64 6 0 10
7 10 15 0 23 51 75 74 75 12 0 28 5 36 10 13 9 13 10 0 9 -8 -1 -30 -5 -49 -9z"/>
<path d="M2671 2933 c-22 -62 -53 -85 -128 -96 -12 -2 -26 -7 -30 -11 -14 -14
81 5 112 23 29 17 57 56 70 99 11 38 -10 24 -24 -15z"/>
<path d="M2240 2795 c-7 -8 -19 -15 -27 -15 -8 0 -11 -5 -8 -11 5 -6 16 -4 32
7 19 12 40 15 74 12 57 -6 66 7 12 16 -56 9 -69 7 -83 -9z"/>
<path d="M2153 2745 c15 -14 33 -25 39 -25 5 0 0 9 -13 20 l-24 21 33 -16 c17
-8 32 -11 32 -6 0 11 -26 22 -65 27 l-30 3 28 -24z"/>
<path d="M2480 2720 c0 -12 27 -12 55 0 16 7 13 9 -17 9 -21 1 -38 -3 -38 -9z"/>
<path d="M2051 2618 c-40 -26 -36 -31 12 -14 44 15 52 22 34 29 -8 3 -28 -4
-46 -15z"/>
<path d="M240 2510 c0 -6 6 -10 14 -10 7 0 19 -7 26 -15 11 -13 10 -14 -5 -9
-12 5 -16 4 -12 -3 7 -12 67 -23 67 -13 0 8 -50 44 -72 53 -10 3 -18 2 -18 -3z"/>
<path d="M434 2492 c8 -13 174 -67 182 -59 3 3 -32 17 -78 32 -46 16 -89 30
-97 33 -9 3 -12 1 -7 -6z"/>
<path d="M190 2471 c0 -5 7 -14 15 -21 8 -7 12 -17 8 -24 -4 -6 1 -5 10 3 16
13 16 15 1 32 -18 20 -34 25 -34 10z"/>
<path d="M1104 2445 c11 -8 24 -15 29 -15 4 0 5 -4 2 -10 -3 -5 -2 -10 4 -10
24 0 19 20 -8 35 -38 19 -52 19 -27 0z"/>
<path d="M458 2363 c17 -2 47 -2 65 0 17 2 3 4 -33 4 -36 0 -50 -2 -32 -4z"/>
<path d="M545 2352 c-23 -3 -7 -10 70 -28 111 -25 138 -29 116 -15 -7 5 -47
15 -87 22 -40 7 -71 16 -68 21 3 4 4 7 2 7 -2 -1 -16 -4 -33 -7z"/>
<path d="M1281 2126 c6 -6 225 -86 237 -86 24 0 -29 24 -113 51 -55 17 -107
34 -115 37 -8 3 -12 2 -9 -2z"/>
<path d="M1844 2056 c-11 -8 -15 -18 -10 -23 5 -4 11 -2 13 5 3 6 13 12 24 12
10 0 19 5 19 10 0 14 -23 12 -46 -4z"/>
<path d="M1315 2524 c-20 -21 -11 -31 11 -13 10 8 19 13 21 12 1 -2 9 -3 16
-3 8 0 7 4 -3 10 -21 13 -26 13 -45 -6z"/>
<path d="M950 1947 c14 -5 41 -17 60 -25 23 -11 72 -17 145 -18 l110 -3 -108
14 c-60 7 -112 17 -115 21 -4 4 11 4 33 1 23 -4 34 -3 25 2 -8 5 -51 11 -95
13 -59 4 -73 3 -55 -5z"/>
<path d="M1489 1710 c-3 -8 0 -33 7 -55 9 -29 12 -33 12 -15 -1 42 -13 87 -19
70z"/>
<path d="M1520 1493 c0 -7 5 -15 11 -19 6 -3 20 -20 31 -38 17 -27 19 -28 13
-6 -8 27 -55 82 -55 63z"/>
<path d="M2219 2096 c18 -19 71 -42 71 -31 0 5 -77 55 -85 55 -5 0 2 -11 14
-24z"/>
<path d="M2200 2083 c0 -3 19 -23 43 -45 42 -38 101 -62 139 -56 28 4 31 18
10 46 -17 21 -18 22 -18 3 0 -11 4 -17 9 -14 5 3 7 0 5 -8 -10 -31 -89 -3
-145 50 -32 31 -43 37 -43 24z"/>
<path d="M2430 1991 c0 -7 10 -30 22 -50 20 -33 21 -35 3 -21 -11 7 -26 21
-32 29 -7 8 -16 12 -19 8 -4 -3 15 -25 41 -49 26 -24 54 -56 63 -73 9 -17 17
-25 20 -17 2 7 -10 34 -26 60 -16 26 -39 65 -50 87 -12 22 -21 34 -22 26z"/>
<path d="M2080 1957 c-1 -28 27 -107 48 -135 25 -33 120 -108 127 -100 3 2
-16 20 -42 39 -54 40 -103 103 -103 133 -1 20 -29 80 -30 63z"/>
<path d="M2249 1913 c-9 -23 -6 -38 17 -85 15 -32 34 -58 42 -58 9 0 4 17 -18
56 -24 41 -31 63 -26 85 7 37 -1 38 -15 2z"/>
<path d="M2163 1895 c0 -8 3 -15 7 -15 3 0 14 -16 24 -36 9 -20 19 -34 22 -31
6 6 -38 96 -47 97 -3 0 -6 -7 -6 -15z"/>
<path d="M1980 1858 l-25 -21 24 8 c16 5 21 4 17 -4 -9 -14 4 -14 24 -1 13 8
13 10 -2 10 -11 0 -15 5 -12 15 8 20 4 19 -26 -7z"/>
<path d="M2370 1504 c0 -27 35 -72 47 -61 4 5 0 13 -10 18 -9 6 -17 16 -17 24
0 10 9 9 40 -6 47 -23 57 -24 57 -4 0 10 -6 14 -15 10 -12 -5 -13 -3 -2 10 12
14 11 15 -13 4 -14 -6 -33 -9 -41 -6 -9 4 -19 6 -22 6 -4 0 -11 5 -15 13 -6 9
-9 7 -9 -8z"/>
<path d="M330 2110 c6 -11 15 -20 20 -20 18 0 70 -53 70 -71 0 -25 16 -17 23
11 3 13 1 19 -6 18 -7 -1 -25 9 -41 24 -70 64 -84 72 -66 38z"/>
<path d="M366 2121 c19 -18 51 -22 51 -6 0 10 -10 15 -31 15 -18 0 -26 -4 -20
-9z"/>
<path d="M249 2089 c-9 -18 -7 -25 17 -48 16 -14 21 -17 11 -5 -22 26 -22 43
1 60 16 12 16 13 0 14 -10 0 -22 -10 -29 -21z"/>
<path d="M300 2083 c0 -14 49 -58 57 -50 3 4 4 8 2 10 -2 1 -16 13 -31 26 -16
14 -28 20 -28 14z"/>
<path d="M467 2052 c-10 -15 3 -107 13 -95 4 4 5 31 1 58 -4 31 -9 45 -14 37z"/>
<path d="M275 1964 c56 -49 88 -65 51 -25 -17 17 -36 31 -43 31 -8 0 -16 7
-19 15 -4 8 -11 15 -18 15 -6 -1 7 -17 29 -36z"/>
<path d="M320 1968 c0 -2 20 -23 45 -47 25 -24 45 -39 45 -34 0 12 -48 61 -72
74 -10 5 -18 8 -18 7z"/>
<path d="M510 1876 c0 -10 65 -134 85 -160 33 -43 20 -6 -22 64 -63 106 -62
106 -63 96z"/>
<path d="M771 1248 c34 -88 72 -169 76 -164 2 2 -10 37 -27 77 -18 41 -36 89
-42 107 -5 17 -13 32 -18 32 -5 0 0 -24 11 -52z"/>
<path d="M980 872 c0 -4 16 -31 35 -60 38 -59 46 -83 28 -89 -8 -3 -13 3 -13
14 0 11 -7 28 -15 39 -18 24 -19 13 -1 -29 11 -27 11 -37 1 -50 -6 -9 -15 -14
-18 -10 -4 3 -7 1 -7 -6 0 -14 2 -14 47 14 36 22 45 63 18 85 -8 6 -26 32 -40
56 -25 42 -35 53 -35 36z"/>
<path d="M2653 2174 c4 -4 -5 -20 -20 -36 -15 -15 -22 -28 -17 -28 6 0 23 13
38 29 25 26 25 29 9 35 -9 4 -14 4 -10 0z"/>
<path d="M2672 2141 c-18 -15 -34 -36 -36 -47 -2 -10 -7 -32 -11 -48 -6 -22
-5 -28 6 -24 8 3 13 16 11 30 -1 14 4 31 13 38 10 8 15 9 15 1 0 -6 4 -11 9
-11 5 0 7 9 4 20 -4 14 -1 19 8 15 10 -4 14 3 14 25 0 16 0 30 0 30 0 -1 -15
-13 -33 -29z"/>
<path d="M2016 1609 c-33 -21 -55 -39 -50 -39 11 0 114 68 114 75 0 7 1 8 -64
-36z"/>
<path d="M1742 1372 c-8 -12 -12 -25 -9 -28 3 -3 10 4 17 15 6 12 15 19 19 16
5 -2 14 2 21 10 9 11 8 14 -10 12 -13 -1 -29 -12 -38 -25z"/>
<path d="M1446 1360 c-48 -36 -52 -40 -40 -40 9 0 93 69 84 69 -3 0 -22 -13
-44 -29z"/>
<path d="M2298 1324 c-4 -3 -32 -16 -65 -30 -32 -13 -53 -24 -46 -24 22 0 123
41 123 51 0 10 -4 12 -12 3z"/>
<path d="M2510 1255 c-19 -14 -31 -25 -27 -25 3 0 27 11 53 25 29 15 40 25 27
25 -10 0 -34 -11 -53 -25z"/>
<path d="M2415 845 c-27 -24 -45 -44 -40 -44 6 0 33 20 60 44 28 25 46 45 40
45 -5 0 -32 -20 -60 -45z"/>
<path d="M2650 755 c0 -13 38 -64 43 -59 8 8 -24 64 -35 64 -4 0 -8 -2 -8 -5z"/>
<path d="M2175 655 c-65 -38 -85 -44 -65 -20 16 19 1 19 -25 -1 -17 -12 -17
-16 -6 -24 15 -8 102 30 146 64 32 25 15 18 -50 -19z"/>
<path d="M1910 555 c-14 -8 -42 -19 -64 -25 -52 -15 -41 -21 19 -11 28 5 43 9
35 10 -8 1 1 10 20 21 19 11 31 19 25 19 -5 0 -21 -6 -35 -14z"/>
<path d="M2150 961 c-25 -10 -64 -22 -87 -26 -24 -4 -45 -10 -48 -14 -2 -5 23
-2 55 6 65 15 165 52 140 52 -8 0 -35 -8 -60 -18z"/>
</g>
</svg>
