<?xml version="1.0" standalone="no"?>
<!DOCTYPE svg PUBLIC "-//W3C//DTD SVG 20010904//EN"
 "http://www.w3.org/TR/2001/REC-SVG-20010904/DTD/svg10.dtd">
<svg version="1.0" xmlns="http://www.w3.org/2000/svg"
 width="300.000000pt" height="247.000000pt" viewBox="0 0 300.000000 247.000000"
 preserveAspectRatio="xMidYMid meet">
<metadata>
Created by potrace 1.10, written by Peter Selinger 2001-2011
</metadata>
<g transform="translate(0.000000,247.000000) scale(0.100000,-0.100000)"
fill="#000000" stroke="none">
<path d="M420 1673 c-19 -9 -46 -21 -60 -27 -14 -6 -27 -14 -30 -17 -20 -23
-124 -60 -183 -66 -37 -3 -70 -10 -73 -14 -3 -5 -14 -9 -25 -9 -20 0 -55 -27
-47 -36 3 -2 25 4 49 15 24 11 80 25 124 31 61 9 94 21 143 50 34 21 85 44
113 50 79 19 234 -6 356 -58 54 -23 100 -33 188 -43 l116 -12 50 -58 c38 -44
61 -61 92 -70 83 -22 133 -57 190 -133 30 -39 58 -83 62 -96 4 -14 16 -40 27
-59 14 -25 16 -37 8 -45 -16 -16 -79 21 -107 63 -23 34 -61 67 -68 59 -2 -2 2
-26 11 -53 8 -28 19 -77 23 -110 5 -33 11 -67 13 -75 2 -10 -6 -16 -24 -18
-19 -2 -28 2 -33 17 -8 27 -25 27 -25 1 0 -13 -7 -20 -19 -20 -26 0 -34 15
-37 67 -2 25 -12 54 -23 70 -12 14 -21 33 -21 41 0 9 -11 27 -24 41 -20 22
-51 109 -42 118 18 18 106 -77 106 -114 0 -10 12 -41 27 -68 14 -28 26 -52 26
-55 -1 -13 18 -52 23 -47 6 6 -33 114 -48 131 -4 6 -8 22 -8 36 0 14 -7 35
-15 46 -19 25 -19 34 3 34 9 0 27 -15 40 -33 12 -18 22 -25 22 -17 0 25 -30
60 -51 60 -11 0 -37 9 -59 20 -46 24 -160 25 -160 2 0 -10 -11 -12 -45 -6 -30
4 -45 3 -45 -5 0 -19 60 -79 84 -83 24 -5 24 -4 9 19 -21 32 -4 73 31 73 38 0
49 -23 47 -100 -1 -46 3 -80 14 -99 20 -40 19 -74 -4 -95 -18 -17 -22 -17 -43
-2 -28 20 -38 20 -38 1 0 -9 -7 -18 -15 -21 -27 -11 -44 14 -42 61 1 28 -4 49
-15 61 -34 38 -126 84 -208 105 -104 25 -131 41 -170 96 -35 48 -51 52 -123
27 -33 -11 -71 -40 -134 -100 -93 -89 -202 -174 -225 -174 -8 0 -18 -4 -23 -9
-6 -4 -31 -16 -57 -26 -27 -10 -48 -21 -48 -25 0 -10 61 -1 76 11 6 5 14 6 17
2 4 -3 7 -1 7 6 0 9 9 12 24 9 17 -4 23 -1 19 9 -3 8 2 13 15 13 11 0 25 7 32
15 7 8 18 15 24 15 6 0 43 31 83 69 39 38 80 71 90 74 16 4 16 5 -2 6 -20 1
-19 2 1 14 12 6 39 24 60 38 72 48 110 43 155 -18 13 -18 34 -36 47 -39 12 -3
22 -10 22 -15 0 -5 13 -9 29 -9 17 0 32 -4 36 -10 3 -5 12 -7 19 -4 8 3 17 1
20 -4 3 -6 14 -8 24 -5 10 2 31 -3 47 -11 17 -9 35 -16 40 -16 15 -1 60 -43
68 -63 3 -9 11 -17 17 -17 5 0 10 -17 10 -38 0 -60 56 -94 98 -59 10 8 16 7
22 -3 18 -29 85 29 95 81 2 11 0 17 -6 14 -5 -4 -9 2 -10 12 0 10 -2 30 -3 46
-2 36 11 35 19 -2 3 -16 12 -35 20 -41 7 -6 13 -26 13 -45 0 -50 26 -72 97
-79 33 -4 66 -2 73 2 13 9 16 55 8 126 -3 26 -1 35 5 25 5 -8 9 -10 9 -5 0 5
6 4 13 -1 21 -17 57 -22 88 -11 25 9 28 14 25 41 -5 41 -16 67 -27 67 -5 0 -8
3 -7 8 3 9 -35 85 -53 106 -50 59 -84 88 -147 126 -39 23 -77 40 -84 38 -12
-4 -88 68 -88 84 0 15 -50 28 -179 48 -85 13 -129 24 -137 34 -6 9 -20 16 -30
16 -31 1 -121 28 -99 31 25 2 -76 16 -170 23 -52 4 -79 1 -105 -11z"/>
<path d="M410 1611 c0 -4 15 -20 34 -36 19 -16 33 -32 30 -36 -3 -5 -39 -7
-82 -6 -73 1 -81 -1 -162 -43 -98 -52 -98 -52 -153 -106 -23 -22 -50 -43 -59
-47 -10 -3 -18 -11 -18 -17 0 -23 29 -7 96 53 132 115 260 167 339 137 37 -14
67 3 63 37 -2 19 -14 33 -45 49 -24 12 -43 19 -43 15z"/>
<path d="M530 1611 c0 -19 34 -35 103 -48 40 -7 87 -16 105 -19 43 -9 41 7 -6
34 -31 17 -41 19 -52 9 -8 -8 -11 -8 -7 -1 5 8 -14 16 -56 23 -77 13 -87 14
-87 2z"/>
<path d="M556 1508 c-9 -12 -16 -33 -16 -45 0 -23 64 -103 82 -103 19 0 131
-94 150 -127 11 -18 27 -33 35 -33 10 0 5 13 -18 43 -35 44 -79 87 -91 87 -4
0 -13 6 -20 13 -7 6 -29 23 -49 36 -45 31 -69 70 -58 99 5 12 17 22 27 22 17
0 34 -11 96 -60 38 -31 166 -162 166 -171 0 -5 4 -9 9 -9 5 0 14 -13 21 -30 7
-16 17 -30 22 -30 5 0 20 -12 33 -26 14 -15 25 -24 25 -20 0 4 6 1 14 -6 7 -7
11 -19 8 -26 -5 -14 14 -32 34 -32 7 0 15 7 18 15 4 11 -15 31 -64 66 -47 35
-71 59 -75 78 -3 15 -18 36 -32 46 -15 11 -43 38 -62 59 -78 85 -193 176 -222
176 -10 0 -25 -10 -33 -22z"/>
<path d="M771 1516 c-15 -17 -1 -53 31 -83 20 -19 33 -22 94 -20 64 2 73 -1
103 -26 18 -15 41 -27 51 -27 10 0 21 -7 24 -16 5 -12 15 -15 39 -11 21 3 47
-3 77 -18 25 -13 65 -26 90 -30 39 -6 54 -17 113 -78 37 -38 70 -67 74 -64 3
4 -9 30 -26 59 -28 44 -71 87 -125 120 -50 30 -117 66 -146 78 -19 7 -59 30
-88 51 -46 33 -63 38 -130 44 -42 3 -94 13 -115 21 -46 17 -52 17 -66 0z m144
-35 c71 -8 108 -17 127 -31 15 -11 31 -20 37 -20 5 0 11 -4 13 -10 2 -5 27
-18 57 -29 29 -10 57 -24 61 -31 4 -6 10 -11 14 -11 3 1 15 -8 26 -19 20 -20
20 -20 -7 -20 -14 0 -23 3 -20 7 10 9 -90 43 -113 38 -11 -2 -20 0 -20 6 0 5
-6 9 -14 9 -7 0 -31 12 -52 27 -30 20 -56 28 -116 33 -43 4 -84 13 -93 20 -15
12 -22 55 -7 46 4 -2 52 -9 107 -15z"/>
<path d="M410 1460 c-30 -4 -68 -12 -85 -19 -16 -6 -82 -64 -145 -127 -63 -64
-130 -130 -147 -147 -18 -17 -33 -35 -33 -40 0 -19 114 80 163 141 15 19 27
29 27 21 0 -7 15 2 34 21 19 19 32 39 29 44 -4 5 -1 6 4 3 6 -4 29 6 51 23 22
16 57 32 77 36 20 3 39 13 42 20 6 16 59 19 68 5 3 -6 -7 -9 -21 -8 -15 1 -29
-4 -31 -10 -3 -7 2 -13 11 -13 8 0 20 -8 25 -17 6 -10 11 -13 11 -7 0 6 -7 17
-15 24 -9 7 -13 15 -10 18 3 3 14 -3 25 -13 20 -18 21 -18 14 0 -5 13 -4 16 4
11 7 -4 12 -3 12 3 0 10 -40 42 -50 40 -3 -1 -30 -5 -60 -9z m-110 -69 c-11
-22 -22 -26 -34 -14 -4 4 3 15 16 24 27 21 33 18 18 -10z"/>
<path d="M2905 1429 c-16 -3 -42 -4 -57 -1 -21 3 -28 0 -28 -11 0 -11 -6 -14
-15 -11 -8 4 -21 1 -29 -5 -8 -7 -36 -12 -62 -12 -27 -1 -71 -7 -99 -14 -27
-8 -90 -17 -139 -20 -49 -3 -97 -10 -107 -16 -10 -5 -29 -9 -43 -9 -13 0 -26
-5 -28 -11 -2 -6 -23 -11 -46 -11 -23 0 -44 -3 -47 -8 -3 -5 -23 -17 -43 -27
-31 -15 -65 -18 -197 -18 -295 -1 -439 -57 -382 -150 19 -32 44 -34 167 -17
60 8 101 9 140 2 49 -9 81 -15 103 -19 4 0 7 -9 7 -19 0 -21 -25 -46 -55 -56
-63 -20 -83 -83 -42 -132 22 -26 25 -39 26 -129 2 -72 7 -107 19 -128 17 -28
18 -28 82 -21 76 8 96 22 105 75 4 21 12 42 19 46 7 5 16 15 19 23 3 9 6 5 6
-10 1 -52 13 -89 32 -95 10 -4 19 -11 19 -16 0 -5 16 -9 35 -9 23 0 35 5 35
14 0 8 6 16 14 19 9 4 12 19 10 49 -2 25 3 58 13 81 15 35 19 37 61 37 24 0
60 7 80 16 92 39 139 66 170 94 17 17 32 28 32 24 0 -4 8 0 18 9 9 8 28 16 42
18 29 3 90 -10 106 -22 6 -5 22 -9 35 -9 13 0 45 -3 72 -6 28 -4 47 -2 47 4 0
11 -21 17 -95 28 -27 4 -64 13 -82 20 -51 22 -126 18 -148 -6 -26 -29 -131
-99 -180 -121 -22 -10 -66 -20 -97 -22 -78 -5 -97 -28 -98 -118 0 -59 -2 -67
-24 -78 -29 -16 -66 -6 -67 17 -6 91 -5 119 3 130 6 6 7 12 4 12 -4 0 -1 10 6
23 15 26 19 57 7 57 -15 0 -81 -86 -86 -113 -3 -16 -12 -31 -18 -34 -7 -2 -13
-19 -13 -37 0 -19 -5 -43 -11 -55 -14 -24 -49 -28 -58 -5 -5 13 -8 12 -25 -5
-42 -46 -68 -12 -68 92 0 34 3 72 6 85 9 32 27 28 20 -5 -5 -21 -4 -24 4 -13
5 8 10 20 10 27 0 15 -40 58 -61 65 -17 7 -30 50 -20 66 3 5 24 19 46 30 22
11 57 35 78 54 l38 33 -40 26 c-50 32 -153 44 -295 33 -121 -9 -146 -3 -146
34 0 25 6 30 53 47 80 29 137 36 342 44 144 4 198 10 225 22 19 9 71 24 115
34 44 9 90 21 103 26 13 5 53 9 90 9 37 0 89 7 116 15 27 8 68 15 90 15 23 1
66 9 96 20 30 11 73 20 95 20 53 0 85 10 85 24 0 13 -46 16 -95 5z"/>
<path d="M383 1368 c-18 -6 -33 -15 -33 -19 0 -5 -9 -9 -21 -9 -11 0 -17 -4
-14 -10 3 -5 0 -7 -8 -4 -9 3 -21 -4 -29 -15 -8 -12 -17 -19 -20 -16 -2 3 -12
-11 -21 -30 -9 -19 -12 -35 -7 -35 6 0 10 6 10 13 0 7 10 17 23 22 12 6 21 17
19 24 -1 7 2 9 9 5 6 -3 14 -3 18 2 3 5 32 22 64 38 31 16 57 32 57 37 0 11
-5 10 -47 -3z"/>
<path d="M910 1345 c0 -9 7 -26 15 -39 14 -21 20 -23 62 -15 61 12 66 19 12
16 -41 -2 -44 0 -47 26 -2 19 -9 27 -23 27 -10 0 -19 -7 -19 -15z"/>
<path d="M2795 1348 c-27 -5 -81 -18 -120 -28 -38 -10 -106 -24 -150 -30 -44
-7 -124 -23 -177 -36 -53 -13 -114 -24 -134 -24 -21 0 -34 -3 -30 -7 4 -4 -10
-13 -31 -20 -34 -11 -26 -12 72 -7 112 5 129 9 106 23 -15 10 21 20 179 52 52
11 129 28 170 39 69 18 155 28 273 29 26 1 47 6 47 11 0 12 -135 11 -205 -2z"/>
<path d="M2885 1305 c-5 -2 -55 -11 -110 -21 -55 -9 -104 -20 -110 -24 -5 -4
-30 -11 -55 -15 -65 -11 -75 -18 -111 -86 -18 -34 -39 -63 -46 -66 -7 -3 -13
-12 -13 -19 0 -17 -38 -34 -58 -26 -8 2 -18 16 -25 31 l-11 26 -4 -23 c-5 -30
24 -62 56 -62 31 0 65 37 112 125 l38 70 58 11 c33 6 68 15 79 21 11 5 68 18
127 28 82 13 117 15 148 7 30 -7 40 -7 40 2 0 6 -8 12 -17 13 -10 1 -34 4 -53
6 -19 3 -39 3 -45 2z"/>
<path d="M2767 1223 c-9 -2 -24 -18 -33 -35 -14 -27 -19 -29 -47 -23 -73 15
-106 16 -126 6 -32 -17 -26 -34 7 -18 19 10 39 11 67 5 57 -12 95 -16 95 -9 0
3 19 5 43 3 32 -3 47 1 65 18 33 31 25 55 -18 57 -19 0 -43 -1 -53 -4z m63
-15 c0 -4 -4 -8 -10 -8 -5 0 -10 -5 -10 -11 0 -5 5 -7 12 -3 6 4 8 3 5 -3 -6
-9 -77 -17 -77 -8 0 2 9 12 20 22 19 19 60 26 60 11z"/>
<path d="M1775 1200 l-30 -8 30 0 c17 0 41 4 55 8 l25 8 -25 0 c-14 0 -38 -4
-55 -8z"/>
<path d="M1921 1203 c55 -3 70 -8 89 -28 17 -18 27 -22 40 -15 13 7 21 5 30
-5 13 -16 41 -21 39 -7 -1 15 -18 47 -18 35 -1 -15 -68 -6 -96 13 -12 9 -43
13 -85 12 l-65 -2 66 -3z"/>
<path d="M1676 1179 c-56 -13 -60 -23 -6 -14 46 7 91 25 60 24 -8 -1 -33 -5
-54 -10z"/>
<path d="M2285 1144 c-27 -20 -63 -48 -80 -64 -34 -31 -75 -54 -120 -64 -42
-10 -60 -27 -43 -38 9 -5 5 -7 -12 -6 -16 2 -24 -2 -22 -10 4 -22 -17 -52 -33
-46 -8 4 -15 1 -15 -6 0 -6 -4 -9 -10 -5 -5 3 -6 13 -3 22 4 11 3 14 -5 9 -19
-11 -14 -34 9 -46 16 -9 26 -8 45 5 13 8 24 21 24 28 0 15 49 45 121 73 89 35
122 54 157 92 32 35 40 48 22 37 -5 -3 -10 -1 -10 4 0 6 3 11 8 11 4 0 13 9
20 20 17 28 5 24 -53 -16z"/>
<path d="M2176 1147 c-11 -8 -16 -23 -14 -36 3 -22 4 -22 25 7 24 33 17 50
-11 29z"/>
<path d="M2765 1101 c-29 -7 -29 -8 15 -15 25 -5 56 -17 69 -27 26 -21 41 -24
41 -9 0 6 -9 10 -20 10 -14 0 -20 7 -20 21 0 21 3 22 78 16 51 -5 72 -4 62 3
-17 11 -179 11 -225 1z"/>
<path d="M2078 1084 c-13 -12 3 -24 32 -24 16 0 32 5 35 10 3 6 0 10 -7 10 -7
0 -22 3 -33 6 -11 3 -24 2 -27 -2z"/>
<path d="M2900 1048 c0 -5 6 -8 13 -8 6 0 29 -3 50 -6 23 -4 37 -3 37 4 0 5
-23 12 -50 14 -28 1 -50 0 -50 -4z"/>
<path d="M2310 1022 c-8 -2 -55 -20 -105 -39 -72 -28 -99 -44 -137 -84 -47
-48 -58 -69 -38 -69 6 0 10 5 10 11 0 17 96 109 115 109 9 0 13 -4 10 -10 -3
-5 -1 -10 4 -10 6 0 11 6 11 13 0 16 41 37 70 37 11 0 20 4 20 9 0 17 41 23
71 11 16 -7 31 -11 34 -9 7 8 -51 35 -65 31z"/>
<path d="M2218 953 c-10 -2 -18 -10 -18 -17 0 -19 41 -54 73 -61 15 -4 30 -11
33 -16 3 -5 20 -9 37 -8 30 0 30 1 9 9 -13 6 -32 29 -43 55 -20 46 -36 53 -91
38z m74 -38 c4 -20 1 -25 -15 -25 -21 0 -57 26 -57 42 0 4 15 8 34 8 28 0 34
-4 38 -25z"/>
<path d="M2346 922 c5 -4 24 -21 42 -37 26 -23 35 -27 41 -16 7 10 -3 20 -36
37 -43 24 -66 31 -47 16z"/>
<path d="M2102 885 c-42 -42 -75 -139 -66 -196 5 -27 10 -36 15 -27 7 10 9 8
10 -7 0 -20 0 -20 9 0 4 11 5 32 3 48 -4 18 0 34 13 48 11 12 17 32 16 50 -2
23 3 31 23 39 33 13 55 58 34 71 -19 12 -19 12 -57 -26z"/>
<path d="M2257 832 c2 -10 -3 -27 -12 -36 -10 -9 -15 -19 -12 -22 7 -7 48 48
44 60 -6 19 -26 18 -20 -2z"/>
</g>
</svg>
