<?xml version="1.0" standalone="no"?>
<!DOCTYPE svg PUBLIC "-//W3C//DTD SVG 20010904//EN"
 "http://www.w3.org/TR/2001/REC-SVG-20010904/DTD/svg10.dtd">
<svg version="1.0" xmlns="http://www.w3.org/2000/svg"
 width="300.000000pt" height="374.000000pt" viewBox="0 0 300.000000 374.000000"
 preserveAspectRatio="xMidYMid meet">
<metadata>
Created by potrace 1.10, written by Peter Selinger 2001-2011
</metadata>
<g transform="translate(0.000000,374.000000) scale(0.100000,-0.100000)"
fill="#000000" stroke="none">
<path d="M934 2758 c-3 -5 11 -8 30 -8 20 0 36 -5 36 -11 0 -8 -14 -10 -40 -6
-41 5 -120 -15 -102 -27 6 -4 22 -4 36 0 27 6 69 10 134 13 26 0 41 5 37 11
-3 6 -18 7 -33 4 -20 -5 -24 -4 -17 5 6 6 34 12 63 13 28 2 52 6 52 10 0 10
-190 5 -196 -4z"/>
<path d="M1902 2741 c39 -13 168 -21 168 -10 0 5 -19 9 -42 9 -24 0 -68 2 -98
5 -41 4 -48 3 -28 -4z"/>
<path d="M1080 2728 c0 -9 120 0 130 9 2 2 -26 3 -63 2 -37 -1 -67 -6 -67 -11z"/>
<path d="M1131 2710 c-19 -5 -64 -9 -100 -9 -36 0 -93 -5 -126 -11 -33 -5 -61
-10 -62 -10 -2 0 -3 -5 -3 -11 0 -7 10 -9 26 -5 14 4 85 11 157 17 73 5 141
11 152 13 11 3 33 5 49 5 16 1 27 3 25 5 -11 9 -88 13 -118 6z"/>
<path d="M1820 2717 c3 -3 23 -8 45 -11 22 -3 57 -9 78 -12 23 -4 37 -2 37 5
0 6 -15 11 -34 11 -18 0 -55 3 -82 6 -27 4 -47 4 -44 1z"/>
<path d="M1990 2699 c0 -5 10 -9 23 -9 26 0 168 -45 212 -67 17 -8 42 -27 58
-41 15 -14 27 -23 27 -19 0 14 -63 69 -95 83 -42 17 -45 26 -7 19 18 -4 13 1
-18 16 -48 23 -200 37 -200 18z"/>
<path d="M1770 2682 c8 -6 44 -12 80 -16 118 -10 185 -24 220 -44 19 -11 56
-27 82 -37 26 -10 45 -21 43 -26 -6 -8 -66 15 -137 51 -20 10 -58 20 -85 21
-26 1 -52 4 -56 6 -4 3 -40 7 -80 9 -40 2 -84 6 -99 10 -23 4 -48 -10 -36 -21
2 -2 60 -6 128 -9 152 -7 181 -11 245 -41 28 -12 61 -27 75 -33 21 -9 22 -11
5 -11 -11 0 -38 8 -60 18 -42 19 -102 33 -145 35 -14 1 -30 5 -36 8 -11 7 -80
1 -95 -7 -4 -3 -10 -1 -13 3 -7 11 -166 12 -166 1 0 -5 35 -10 78 -11 197 -4
301 -15 340 -38 18 -11 44 -20 57 -20 25 0 104 -50 157 -98 19 -19 35 -27 39
-21 4 7 17 0 33 -17 14 -16 26 -25 26 -21 0 5 -13 22 -30 40 -16 18 -30 26
-30 18 0 -8 -14 0 -32 19 -18 17 -45 39 -60 48 -16 9 -28 20 -28 24 0 13 12 9
46 -17 18 -14 35 -25 39 -25 3 0 19 -10 35 -22 16 -12 32 -19 35 -16 4 3 -9
15 -28 27 -18 11 -41 29 -51 40 -10 11 -22 18 -26 16 -4 -3 -13 2 -20 10 -26
31 60 1 97 -34 12 -12 27 -21 34 -21 16 0 -67 68 -94 76 -12 3 -29 12 -37 19
-8 7 -33 18 -55 24 -22 6 -47 16 -55 21 -25 17 59 0 104 -21 22 -10 41 -17 44
-15 6 7 -75 46 -96 46 -11 0 -39 7 -63 16 -49 18 -68 22 -154 29 -33 2 -89 7
-125 10 -42 4 -60 3 -50 -3z"/>
<path d="M1169 2676 c-5 -5 -115 -16 -209 -21 -107 -6 -190 -23 -214 -46 -16
-14 27 -10 75 7 24 8 85 17 136 19 51 2 97 6 103 10 5 3 44 8 85 11 93 6 145
22 74 23 -25 1 -48 -1 -50 -3z"/>
<path d="M1276 2653 c-4 -5 -26 -8 -49 -9 -50 0 -210 -23 -217 -31 -3 -3 22
-3 55 0 33 3 87 8 120 12 81 7 115 15 115 26 0 11 -14 12 -24 2z"/>
<path d="M1295 2629 c-22 -4 -58 -11 -80 -14 -42 -7 -52 -12 -43 -21 6 -5 168
22 175 30 10 10 -15 12 -52 5z"/>
<path d="M908 2612 c-51 -6 -29 -19 28 -16 55 3 87 13 48 15 -10 0 -26 1 -34
3 -8 1 -27 0 -42 -2z"/>
<path d="M768 2577 c-84 -33 -95 -52 -12 -23 39 14 78 26 87 26 9 0 19 5 22
10 10 17 -36 10 -97 -13z"/>
<path d="M1075 2590 c-7 -12 29 -12 65 0 21 7 19 8 -17 9 -23 1 -45 -3 -48 -9z"/>
<path d="M1320 2588 c-30 -4 -88 -11 -127 -14 -40 -4 -73 -10 -73 -14 0 -9
190 0 210 10 8 5 28 6 43 3 17 -3 27 -1 27 6 0 7 -4 10 -9 7 -5 -4 -11 -3 -13
1 -1 5 -28 5 -58 1z"/>
<path d="M985 2574 c-60 -16 -68 -17 -60 -4 3 6 -1 10 -9 10 -9 0 -13 -6 -10
-13 3 -9 -9 -18 -36 -26 -22 -6 -40 -16 -40 -21 0 -6 -6 -10 -12 -10 -23 -1
-143 -58 -144 -69 -1 -6 -2 -12 -4 -13 -3 -5 -10 -43 -15 -82 -3 -34 -2 -37
16 -33 11 3 19 0 19 -7 0 -19 -12 -27 -25 -16 -9 8 -11 4 -8 -14 5 -25 5 -25
47 15 86 83 149 139 157 139 4 0 27 11 50 25 50 28 85 35 53 9 -23 -18 -13
-15 39 11 43 22 48 34 12 27 -14 -2 -25 -7 -25 -11 0 -3 -16 -7 -35 -8 -19 -1
-48 -11 -63 -22 -16 -11 -41 -23 -58 -26 -43 -9 -104 -37 -104 -47 0 -4 -7 -8
-15 -8 -30 0 -14 19 38 43 137 65 174 80 257 100 49 13 92 26 96 30 25 24
-155 -21 -251 -64 -38 -17 -89 -40 -112 -50 -24 -10 -43 -14 -43 -9 0 11 185
101 240 118 19 6 52 13 72 17 21 3 40 10 43 15 8 13 -9 11 -70 -6z m-175 -161
c0 -5 -17 -19 -38 -32 -20 -14 -43 -31 -49 -40 -10 -11 -18 -12 -35 -3 -18 8
-19 11 -6 11 10 1 41 17 70 35 60 40 58 39 58 29z"/>
<path d="M1615 2560 c-22 -6 -7 -8 55 -9 47 -1 129 -3 183 -5 53 -3 97 -1 97
3 0 5 -13 11 -30 13 -53 8 -274 7 -305 -2z"/>
<path d="M790 2542 c-19 -10 -39 -18 -43 -19 -24 -3 -66 -27 -61 -34 3 -5 15
-4 27 3 12 7 26 11 30 10 4 -1 15 5 23 13 9 8 19 13 23 11 3 -2 18 4 31 15 31
23 16 24 -30 1z"/>
<path d="M1348 2553 c-21 -2 -38 -9 -38 -15 0 -7 -6 -6 -15 2 -12 10 -18 10
-30 0 -8 -7 -24 -10 -35 -7 -27 7 -162 -13 -175 -25 -7 -7 7 -8 40 -4 81 9
257 20 303 19 23 0 42 3 42 8 0 10 -35 30 -47 27 -4 -1 -25 -3 -45 -5z"/>
<path d="M1960 2541 c0 -6 8 -11 19 -11 10 0 49 -16 87 -35 80 -41 83 -42 58
-14 -36 40 -164 87 -164 60z"/>
<path d="M1608 2527 c-27 -6 -48 -14 -48 -19 0 -5 10 -6 23 -4 12 3 53 8 91
11 75 6 101 15 43 15 -19 0 -41 2 -49 4 -7 2 -34 -1 -60 -7z"/>
<path d="M1760 2522 c0 -6 21 -9 48 -7 27 2 66 -1 88 -6 21 -6 58 -14 82 -18
44 -8 158 -78 221 -135 29 -28 86 -101 133 -175 21 -33 24 -63 4 -35 -21 28
-30 11 -16 -33 22 -69 29 -61 32 42 1 30 -44 106 -92 156 -12 13 -29 34 -38
47 -35 52 -184 142 -262 157 -64 13 -200 18 -200 7z"/>
<path d="M1305 2497 c-33 -4 -77 -11 -97 -16 -21 -4 -41 -4 -46 1 -16 16 -145
-20 -211 -59 -2 -2 -2 -5 1 -8 3 -3 21 3 39 13 32 19 140 42 184 40 11 -1 47
2 80 7 71 9 138 9 182 0 28 -6 32 -5 30 12 -1 17 -8 20 -52 19 -27 -1 -77 -5
-110 -9z"/>
<path d="M2120 2500 c0 -5 6 -10 14 -10 8 0 17 -7 20 -16 3 -8 10 -13 14 -10
11 6 109 -81 100 -89 -3 -4 -29 14 -57 39 -51 45 -71 55 -71 36 0 -5 6 -10 12
-10 16 0 188 -180 188 -197 0 -7 4 -13 10 -13 16 0 -11 52 -49 92 -42 46 -34
63 9 19 17 -17 36 -31 41 -31 15 0 10 20 -7 27 -16 6 -68 53 -59 53 9 0 -40
46 -89 83 -49 37 -76 46 -76 27z"/>
<path d="M1646 2493 c-2 -2 -25 -6 -51 -8 -53 -5 -68 -12 -59 -26 4 -6 11 -6
19 1 8 7 41 11 74 11 62 0 90 13 46 21 -13 3 -26 3 -29 1z"/>
<path d="M1731 2491 c-9 -6 -4 -10 18 -13 18 -3 34 -1 37 4 3 5 9 6 14 3 5 -3
40 -9 78 -14 38 -5 89 -18 113 -28 24 -11 46 -19 49 -19 3 0 34 -20 70 -44 71
-48 103 -81 139 -144 38 -67 48 -79 56 -66 14 22 -154 230 -187 230 -5 0 -18
8 -29 18 -11 11 -45 27 -77 37 -31 9 -66 22 -76 27 -25 13 -187 20 -205 9z"/>
<path d="M1710 2458 c0 -7 -168 -24 -185 -19 -15 5 -73 12 -137 16 -38 3 -58
0 -58 -7 0 -7 17 -9 51 -5 42 5 50 4 45 -8 -4 -12 0 -14 19 -9 15 4 25 2 25
-5 0 -12 67 -8 180 10 85 14 235 12 280 -4 92 -32 248 -134 250 -163 0 -6 9
-19 20 -29 12 -11 31 -36 42 -57 12 -21 25 -38 30 -38 10 0 -11 48 -34 79 -10
13 -18 28 -18 33 0 6 -20 29 -44 52 -60 56 -66 60 -112 82 -21 10 -41 21 -44
25 -7 10 -88 36 -138 44 -58 9 -172 12 -172 3z"/>
<path d="M1256 2452 c-3 -2 -36 -6 -73 -7 -73 -3 -196 -33 -278 -68 -54 -23
-189 -149 -205 -192 -5 -14 -14 -25 -20 -25 -21 0 -9 28 30 73 22 25 40 49 40
54 0 11 64 62 130 103 68 42 64 39 58 45 -6 6 -75 -31 -96 -52 -7 -7 -16 -13
-20 -13 -8 -1 -74 -57 -118 -101 -18 -18 -37 -49 -43 -70 -7 -22 -15 -39 -20
-39 -4 0 -16 -17 -26 -37 -30 -58 -35 -73 -27 -73 4 0 21 25 37 55 27 49 45
68 45 47 0 -14 -41 -84 -66 -110 -36 -40 -29 -48 10 -11 19 17 42 49 52 71 10
22 23 37 30 34 7 -3 10 2 7 15 -3 10 -1 19 4 19 5 0 19 17 31 38 22 40 105
116 156 144 37 20 223 78 251 78 28 0 6 -15 -45 -30 -89 -26 -125 -39 -155
-54 -16 -9 -34 -16 -39 -16 -21 0 -156 -118 -156 -136 0 -6 -7 -17 -15 -24 -8
-7 -15 -17 -15 -23 0 -6 16 6 35 26 19 20 35 42 35 47 0 6 7 10 16 10 8 0 13
4 9 9 -3 5 3 12 14 16 10 3 26 14 36 25 22 24 35 26 35 5 0 -8 -4 -15 -8 -15
-16 0 -142 -126 -175 -175 -37 -56 -90 -165 -79 -165 4 0 20 24 35 54 15 29
37 63 48 74 10 12 19 26 19 32 0 5 5 10 11 10 6 0 9 7 5 15 -3 8 -2 14 2 13 4
-1 39 29 78 67 100 98 214 151 414 190 47 9 100 20 119 24 19 3 36 13 38 21 4
12 3 12 -5 2 -5 -8 -11 -13 -13 -11 -4 2 -101 -9 -154 -17 -41 -7 -188 -57
-259 -88 -67 -30 -66 -29 -66 -16 0 11 122 70 145 70 14 0 71 22 110 43 11 6
34 12 50 14 59 6 105 15 105 22 0 7 -57 10 -64 3z"/>
<path d="M1715 2420 c-11 -5 -46 -9 -77 -9 -31 -1 -59 -5 -62 -9 -3 -5 -34 -8
-68 -7 -35 2 -57 1 -50 -2 18 -7 15 -23 -5 -23 -22 -1 -74 -29 -54 -30 8 0 12
-2 9 -5 -3 -3 -43 -8 -89 -10 -94 -5 -206 -35 -259 -70 -63 -41 -150 -85 -150
-75 0 5 31 27 70 47 38 21 70 42 70 46 0 24 -116 -60 -196 -139 -82 -83 -95
-101 -133 -189 -23 -54 -40 -100 -37 -102 5 -6 36 51 36 66 0 6 21 46 48 90
48 81 132 164 178 175 13 4 43 19 66 35 63 43 157 82 208 87 25 2 69 9 99 15
29 6 56 7 60 2 3 -4 12 -8 19 -9 28 -2 32 -5 32 -19 0 -16 16 -20 24 -6 6 9
52 20 121 28 21 2 46 9 55 14 11 8 9 9 -11 5 -14 -3 -43 0 -65 6 l-39 12 35 7
c21 4 26 7 13 8 -29 1 -123 -21 -123 -29 0 -4 18 -4 40 0 37 7 50 4 50 -9 0
-3 -22 -7 -49 -9 -36 -2 -50 1 -54 12 -7 18 20 36 55 36 19 0 20 2 8 11 -12 9
-11 10 7 6 13 -3 40 -1 60 4 81 18 269 29 289 16 7 -4 33 -9 60 -12 158 -19
358 -237 372 -407 2 -19 32 -26 32 -8 0 6 -4 10 -10 10 -5 0 -10 11 -10 24 0
27 -25 92 -39 101 -6 3 -8 12 -5 19 3 7 -2 19 -11 26 -8 7 -15 19 -15 26 0 38
-208 215 -256 218 -13 0 -24 4 -24 8 0 15 -197 31 -225 18z"/>
<path d="M1418 2394 c-3 -3 -19 -7 -34 -9 -176 -25 -349 -76 -439 -131 -63
-38 -175 -144 -175 -166 0 -7 31 19 68 57 37 39 77 78 89 87 38 29 101 58 128
58 14 0 25 4 25 8 0 4 11 9 25 10 14 1 42 9 63 17 20 9 73 21 117 26 86 10
141 25 150 40 7 10 -8 13 -17 3z"/>
<path d="M1765 2380 c-17 -6 -16 -8 8 -14 15 -3 50 -9 79 -11 61 -6 158 -43
196 -75 15 -12 36 -26 48 -32 11 -5 42 -46 70 -91 59 -98 74 -131 74 -163 0
-13 4 -24 9 -24 4 0 8 -13 7 -30 -1 -35 -25 -41 -27 -7 -2 41 -4 47 -14 44 -5
-1 -8 -6 -6 -12 2 -5 5 -24 7 -41 1 -17 5 -45 9 -63 4 -20 3 -31 -4 -31 -6 0
-11 5 -11 10 0 6 -4 10 -10 10 -5 0 -8 -15 -6 -32 3 -18 5 -39 5 -47 1 -11 4
-11 16 -1 12 10 13 16 4 27 -7 7 -9 17 -5 20 4 4 11 1 15 -6 6 -9 11 -10 15
-2 4 6 4 11 1 11 -4 0 1 7 9 16 19 18 12 36 -9 27 -26 -9 -16 17 10 29 22 10
25 16 19 47 -4 20 -11 42 -17 49 -5 6 -7 12 -4 12 16 0 -47 137 -88 191 -67
88 -153 157 -177 143 -6 -4 -8 -3 -4 4 7 12 -8 18 -69 27 -22 4 -61 10 -86 14
-25 4 -54 4 -64 1z"/>
<path d="M1630 2373 c-28 -5 -52 -23 -29 -22 7 0 43 6 79 14 62 12 63 13 20
13 -25 -1 -56 -3 -70 -5z"/>
<path d="M623 2323 c-7 -15 -13 -33 -13 -40 0 -8 -7 -16 -15 -19 -8 -4 -15
-10 -15 -15 0 -5 7 -9 15 -9 8 0 15 5 15 11 0 6 7 17 15 26 8 8 13 19 10 24
-3 5 -1 18 5 29 6 11 7 20 3 20 -4 0 -14 -12 -20 -27z"/>
<path d="M1682 2336 c-18 -9 -13 -11 29 -10 82 2 90 4 84 14 -8 13 -86 10
-113 -4z"/>
<path d="M1820 2330 c0 -5 6 -11 13 -13 6 -3 -23 -6 -66 -6 -43 -1 -76 -5 -73
-10 3 -4 35 -7 71 -6 36 1 65 -1 65 -6 0 -5 7 -6 15 -3 8 4 23 3 33 -1 9 -5
28 -10 42 -12 14 -2 42 -17 62 -34 20 -16 41 -29 46 -29 5 0 28 -19 51 -42 33
-32 45 -38 51 -27 12 19 18 10 36 -57 15 -59 28 -83 40 -71 3 3 -1 16 -10 29
-9 12 -16 32 -16 44 0 12 -11 38 -25 58 -14 20 -25 39 -25 42 0 19 -61 64
-163 119 -46 25 -147 42 -147 25z m135 -34 c28 -12 61 -32 75 -44 14 -11 42
-35 63 -52 36 -32 47 -50 27 -50 -5 0 -10 6 -10 13 0 6 -25 27 -54 45 -30 18
-62 42 -72 53 -9 10 -25 19 -35 19 -9 0 -19 4 -21 10 -1 5 -18 10 -36 12 -41
3 -54 18 -15 18 15 0 51 -11 78 -24z"/>
<path d="M1625 2299 c-4 -6 -5 -13 -2 -16 8 -7 47 7 47 18 0 13 -37 11 -45 -2z"/>
<path d="M1310 2285 c-8 -2 -48 -9 -89 -15 -41 -7 -90 -20 -110 -29 -56 -25
-170 -92 -177 -102 -11 -19 0 -14 152 71 40 23 125 46 197 55 31 3 57 11 57
16 0 9 -2 9 -30 4z"/>
<path d="M1360 2276 c0 -7 10 -12 23 -10 12 1 26 3 31 3 18 2 -4 14 -29 17
-15 2 -25 -2 -25 -10z"/>
<path d="M1495 2272 c-3 -3 -15 -7 -28 -8 -12 -1 -40 -7 -62 -12 -22 -6 -69
-13 -105 -15 -36 -3 -83 -8 -105 -11 -38 -7 -185 -71 -195 -86 -3 -4 -21 -14
-41 -23 -19 -8 -55 -33 -79 -56 -24 -23 -48 -39 -54 -37 -7 3 -6 5 2 5 6 1 12
7 12 15 0 8 19 30 43 50 23 20 36 36 29 36 -39 0 -153 -158 -182 -255 -7 -22
-21 -58 -31 -81 -20 -43 -25 -69 -10 -59 5 3 17 29 27 58 24 74 93 217 104
217 6 0 10 -2 10 -5 0 -8 -24 -49 -32 -55 -13 -10 -69 -192 -66 -213 2 -13 11
6 21 46 10 38 35 103 57 145 39 77 107 168 118 157 3 -3 -5 -16 -18 -30 -44
-47 -8 -25 41 25 27 27 79 65 117 84 81 41 108 47 272 62 41 3 79 9 83 11 5 3
28 7 50 9 23 3 43 8 45 13 2 5 16 6 32 1 16 -4 31 -6 34 -2 3 3 6 0 6 -6 0 -7
9 -12 20 -12 11 0 20 5 20 10 0 6 20 10 45 10 25 0 45 4 45 10 0 8 -22 7 -82
-5 -10 -2 -21 1 -24 6 -6 10 -110 10 -119 1z"/>
<path d="M1760 2271 c0 -6 10 -11 23 -12 12 0 44 -3 72 -5 57 -6 57 4 -1 11
-22 3 -51 8 -66 11 -17 3 -28 1 -28 -5z"/>
<path d="M632 2242 c-6 -15 -23 -47 -37 -71 -34 -59 -32 -63 9 -16 19 22 32
43 29 48 -3 5 3 14 12 21 13 9 15 17 9 29 -8 14 -11 13 -22 -11z"/>
<path d="M1656 2234 c-26 -7 -55 -10 -64 -7 -10 4 -13 2 -8 -5 5 -8 -1 -12
-15 -12 -18 0 -19 3 -9 15 10 12 6 14 -27 10 -90 -11 -116 -17 -102 -25 7 -5
27 -7 44 -4 27 4 28 4 7 -6 -13 -5 -49 -12 -80 -15 -31 -3 -66 -7 -77 -9 -11
-2 -49 -7 -85 -11 -36 -4 -74 -13 -85 -20 -11 -6 -43 -20 -72 -29 -43 -14 -67
-33 -138 -109 -89 -94 -125 -149 -125 -189 1 -17 5 -12 15 17 8 22 15 41 15
43 0 2 4 1 9 -3 6 -3 4 -17 -4 -32 -11 -21 -11 -29 -2 -35 13 -8 12 -10 -26
-26 -15 -7 -25 -17 -22 -22 4 -6 2 -16 -3 -23 -15 -19 -24 -57 -14 -57 5 0 16
20 23 45 7 25 19 45 27 45 9 0 10 -5 2 -19 -11 -21 -23 -101 -16 -101 4 0 18
42 31 90 1 3 9 22 18 44 9 21 17 42 17 47 0 15 68 124 104 166 23 26 63 54
112 78 41 20 73 39 70 42 -2 3 -38 -11 -78 -31 -90 -44 -165 -119 -197 -199
-13 -31 -28 -57 -33 -57 -7 0 -7 4 0 13 6 7 16 33 22 58 9 34 27 61 73 108 82
83 180 131 292 142 44 4 89 11 99 15 14 5 17 4 12 -4 -9 -16 7 -15 22 0 9 9
12 8 12 -7 0 -17 -7 -20 -53 -19 -55 1 -98 -13 -212 -67 -153 -72 -255 -233
-281 -439 -3 -32 -13 -61 -23 -69 -15 -13 -15 -13 2 -8 9 4 17 1 17 -5 0 -30
11 5 15 48 2 27 12 76 21 109 9 33 19 71 22 85 9 41 71 138 120 189 51 52 163
110 263 136 70 18 64 19 66 -5 2 -21 -13 -28 -19 -8 -2 6 -10 8 -16 4 -22 -13
-13 -26 18 -26 17 0 30 -4 30 -10 0 -5 -22 -10 -48 -10 -27 0 -56 -6 -67 -13
-16 -13 -15 -14 15 -9 23 3 31 1 26 -7 -4 -6 -12 -9 -17 -5 -5 3 -15 2 -22 -3
-17 -13 -98 -35 -104 -29 -3 3 13 13 36 22 23 9 39 19 37 22 -12 11 -152 -70
-173 -101 -12 -18 -38 -54 -57 -82 -21 -30 -38 -68 -42 -95 -3 -25 -10 -49
-14 -55 -14 -19 -16 -71 -3 -84 7 -6 13 -8 13 -4 5 96 13 140 26 150 9 7 11
13 5 17 -15 9 42 98 100 157 51 52 75 63 64 29 -5 -15 -3 -18 9 -14 9 3 13 10
10 15 -3 5 3 6 12 2 10 -4 15 -2 11 3 -3 5 2 10 11 11 32 4 87 14 102 20 25
10 70 11 70 2 0 -5 -8 -9 -17 -10 -10 0 -13 -3 -6 -5 7 -3 9 -13 5 -22 -5 -15
-4 -15 12 1 21 21 30 22 23 2 -4 -8 -2 -17 3 -20 6 -4 10 -1 10 4 0 6 7 11 15
11 8 0 15 4 15 10 0 5 -7 6 -17 3 -11 -4 -14 -3 -9 5 4 7 1 12 -9 12 -11 0
-15 5 -11 15 3 9 0 15 -9 15 -7 0 -17 5 -21 11 -5 9 4 10 32 5 21 -4 50 -9 64
-12 16 -3 19 -2 9 3 -13 7 -10 14 18 41 22 22 33 27 33 17 0 -8 7 -15 15 -15
8 0 15 -8 15 -17 0 -15 2 -16 10 -3 8 12 11 11 16 -8 7 -24 34 -27 42 -4 2 7
-5 12 -19 12 -33 0 -13 15 22 16 29 1 39 -10 17 -19 -7 -3 -4 -6 7 -6 11 0 27
4 35 10 13 9 12 10 -2 5 -15 -4 -18 0 -15 28 2 27 5 31 18 23 12 -7 21 -5 38
12 25 25 27 36 6 27 -8 -3 -15 -1 -15 4 0 13 37 13 42 0 3 -8 88 -30 126 -33
13 0 31 -17 61 -56 10 -14 21 -20 24 -14 3 5 -6 24 -21 42 -28 34 -84 54 -164
60 -10 0 -18 6 -18 12 0 5 8 9 18 8 31 -3 43 1 37 11 -4 6 -10 8 -14 6 -4 -3
-29 -7 -56 -11 -39 -4 -47 -3 -37 7 7 7 27 11 46 10 19 -1 38 3 42 9 11 18
-86 3 -100 -16 -15 -21 -66 -10 -66 13 0 8 3 12 6 9 4 -3 16 -1 27 5 12 6 47
11 79 10 32 0 58 4 58 9 0 12 -74 9 -134 -7z m-41 -45 c11 -17 -3 -23 -20 -9
-9 8 -15 8 -15 2 0 -6 5 -14 11 -18 16 -10 80 -14 75 -5 -3 4 1 8 9 8 8 0 15
-4 15 -9 0 -4 0 -11 0 -15 0 -4 -12 -8 -27 -8 -16 -1 -39 -7 -52 -14 -22 -12
-23 -12 -19 7 4 15 0 21 -18 25 -13 2 -24 1 -24 -4 0 -8 -129 -4 -137 5 -3 2
19 11 49 19 94 27 144 32 153 16z m-121 -70 c-3 -6 -18 -9 -33 -6 -14 3 -41
-1 -58 -8 -19 -8 -33 -10 -33 -4 0 15 40 28 88 28 29 1 41 -3 36 -10z m76 -7
c0 -9 6 -12 18 -9 55 18 62 19 62 9 0 -16 -16 -23 -50 -24 -17 -1 -30 -5 -30
-9 0 -16 -48 13 -53 32 -4 14 1 17 24 17 18 -1 29 -6 29 -16z m-130 -25 c0 6
9 11 20 10 25 -2 26 -13 3 -22 -32 -12 -83 -15 -83 -5 0 5 9 10 20 10 11 0 20
6 20 13 0 8 4 7 10 -3 6 -9 10 -10 10 -3z"/>
<path d="M1929 2243 c-1 -5 -1 -11 0 -15 1 -11 -37 -10 -43 0 -3 5 -22 9 -43
9 -38 1 -38 1 12 -13 28 -8 55 -16 61 -17 18 -4 114 -88 114 -100 0 -6 6 -18
13 -26 44 -52 93 -258 56 -235 -13 8 -24 -25 -12 -37 7 -7 15 1 25 21 16 33
29 28 42 -18 4 -12 12 -20 17 -16 5 3 7 15 3 27 -4 12 -7 32 -6 44 1 12 -3 25
-9 29 -6 3 -9 -1 -7 -9 2 -9 -1 -17 -7 -19 -5 -2 -12 13 -16 33 -3 20 -13 53
-23 74 -10 21 -22 50 -26 65 -7 24 -5 29 13 34 12 3 25 0 29 -7 6 -9 8 -8 8 3
0 21 -11 35 -37 49 -13 6 -23 17 -24 24 -1 16 -107 99 -113 89 -3 -5 15 -24
39 -43 24 -18 44 -40 45 -47 0 -7 -23 6 -50 29 -37 31 -49 47 -44 61 3 10 1
18 -5 18 -6 0 -12 -3 -12 -7z m162 -145 c14 -25 -5 -23 -30 4 -11 11 -18 25
-15 30 7 11 31 -8 45 -34z"/>
<path d="M1821 2211 c-12 -8 -8 -11 15 -16 16 -3 44 -13 62 -20 17 -8 32 -10
32 -5 0 5 -20 19 -44 30 -52 23 -47 22 -65 11z"/>
<path d="M1270 2200 c-14 -4 -40 -8 -57 -9 -18 -1 -33 -5 -33 -10 0 -5 21 -5
48 1 26 4 76 11 111 13 36 3 67 7 69 10 8 8 -111 4 -138 -5z"/>
<path d="M1855 2159 c22 -10 45 -19 51 -19 12 0 74 -68 74 -81 0 -4 -4 -10 -9
-13 -5 -4 -3 -19 6 -37 18 -37 28 -33 13 6 -14 36 -4 46 11 11 11 -23 29 -36
29 -21 0 15 -37 74 -64 103 -34 36 -101 72 -132 71 -12 0 -5 -7 21 -20z"/>
<path d="M1070 2148 c-56 -28 -55 -27 -47 -34 4 -4 17 0 30 9 13 8 34 17 47
19 13 1 25 9 28 16 5 17 -6 15 -58 -10z"/>
<path d="M1962 2140 c7 -11 16 -20 19 -20 11 0 56 -83 63 -117 4 -17 14 -37
22 -44 18 -15 18 -6 -2 39 -28 66 -53 110 -78 140 -24 27 -41 29 -24 2z"/>
<path d="M1712 2115 c1 -11 -4 -31 -11 -45 -11 -22 -10 -23 2 -8 8 10 17 14
21 10 4 -4 7 -2 6 3 -5 23 1 34 23 38 15 3 14 4 -5 2 -15 -1 -30 3 -33 9 -2 6
-4 2 -3 -9z"/>
<path d="M2277 2113 c3 -10 12 -27 20 -38 7 -11 13 -28 13 -39 0 -15 3 -17 11
-9 8 8 5 23 -12 57 -22 44 -45 65 -32 29z"/>
<path d="M1839 2097 c44 -22 112 -82 104 -91 -3 -3 -1 -11 3 -18 5 -7 9 -19
11 -27 2 -16 33 -50 33 -36 -1 51 -105 195 -130 180 -6 -3 -10 -1 -10 4 0 6
-12 11 -27 10 -26 0 -25 -2 16 -22z"/>
<path d="M946 2055 c-27 -24 -54 -43 -60 -42 -5 1 -10 -2 -11 -8 0 -5 -8 -21
-17 -35 -52 -82 -67 -112 -82 -171 -9 -36 -16 -72 -15 -80 0 -15 18 24 25 56
18 87 65 165 150 250 82 82 88 100 10 30z"/>
<path d="M1245 2081 c-96 -35 -116 -43 -112 -47 7 -7 167 48 167 58 0 4 -1 8
-2 7 -2 0 -25 -9 -53 -18z"/>
<path d="M1765 2093 c30 -6 69 -26 81 -42 7 -9 16 -11 24 -6 10 6 12 4 7 -7
-3 -10 3 -24 15 -35 12 -10 32 -43 46 -73 13 -30 27 -49 29 -42 5 14 -35 103
-51 114 -6 4 -7 8 -2 8 6 0 -5 16 -24 35 -33 34 -84 56 -125 54 -20 -1 -20 -1
0 -6z"/>
<path d="M734 2043 c-9 -15 -24 -39 -34 -53 -20 -30 -52 -120 -42 -120 4 0 28
44 54 98 46 95 56 131 22 75z"/>
<path d="M1736 2063 c-15 -4 -16 -7 -5 -14 9 -6 -6 -9 -43 -9 -31 0 -60 -4
-63 -10 -3 -5 -15 -10 -26 -10 -10 0 -19 -4 -19 -10 0 -13 16 -13 43 1 11 7
45 12 74 11 38 0 53 4 53 14 0 10 9 12 33 7 46 -8 110 -80 132 -148 24 -77 18
-100 -22 -100 -27 1 -33 -3 -32 -20 0 -11 3 -14 6 -7 4 10 8 10 20 1 12 -10
16 -10 23 1 5 8 12 11 17 7 4 -5 -2 -16 -15 -25 -16 -13 -22 -29 -24 -60 -1
-26 -6 -41 -12 -39 -6 2 -10 15 -9 28 1 15 0 17 -3 7 -3 -10 -12 -18 -20 -18
-8 0 -14 -4 -14 -10 0 -5 7 -7 15 -4 9 4 15 0 15 -9 0 -10 -7 -15 -19 -12 -16
3 -17 0 -7 -20 10 -22 12 -22 18 -5 4 12 13 17 26 13 17 -4 20 3 26 58 4 35
11 58 16 53 5 -5 5 -27 1 -50 -5 -28 -4 -41 4 -41 11 0 16 53 15 157 -1 106
-14 140 -82 214 -43 46 -79 61 -122 49z"/>
<path d="M2090 2055 c0 -5 11 -32 25 -60 13 -27 25 -55 25 -62 0 -6 5 -15 10
-18 7 -4 9 3 6 19 -8 44 -17 66 -27 66 -6 0 -8 4 -5 9 3 5 -3 20 -14 32 -11
13 -19 20 -20 14z"/>
<path d="M2145 2048 c-4 -9 1 -28 11 -43 23 -35 27 -27 10 21 -10 30 -16 35
-21 22z"/>
<path d="M633 2013 c-21 -30 -35 -63 -28 -63 8 0 57 82 52 87 -3 2 -14 -8 -24
-24z"/>
<path d="M1764 2032 c4 -7 2 -12 -5 -12 -22 0 0 -13 26 -16 22 -2 74 -48 75
-66 0 -5 5 -8 10 -8 18 0 -40 76 -68 91 -15 7 -31 15 -36 18 -5 2 -6 -1 -2 -7z"/>
<path d="M1059 1989 c-50 -50 -113 -147 -132 -202 -24 -70 -44 -167 -36 -173
8 -4 15 12 23 56 18 93 59 195 98 245 45 57 83 95 94 95 8 0 14 5 14 10 0 20
-21 9 -61 -31z"/>
<path d="M1430 2005 c7 -8 20 -15 29 -14 12 0 12 2 -4 10 -20 9 -20 9 0 6 15
-2 20 -10 20 -32 0 -22 -4 -29 -15 -26 -8 2 -24 3 -35 3 -11 -1 -53 -2 -94 -3
-47 -1 -69 -4 -60 -10 11 -7 8 -9 -8 -9 -13 0 -23 4 -23 10 0 5 -15 1 -32 -10
-36 -22 -62 -26 -56 -9 2 6 8 11 13 11 6 0 24 7 40 15 58 30 65 33 65 26 0 -5
16 -9 36 -10 28 -1 35 2 32 15 -5 20 -30 19 -109 -4 -92 -27 -175 -113 -194
-201 -4 -18 -11 -36 -17 -39 -8 -5 -6 25 6 66 0 3 -3 7 -9 10 -6 3 -11 -10
-12 -28 -1 -18 -4 -41 -8 -50 -5 -14 -7 -14 -16 -2 -7 11 -9 -3 -8 -45 1 -33
1 -64 -1 -70 -5 -20 0 -55 9 -55 5 0 9 18 9 40 0 22 3 43 6 48 2 4 1 14 -4 22
-5 9 -5 19 2 27 20 25 26 12 21 -44 -3 -32 -3 -56 0 -53 3 3 8 21 10 41 2 19
6 39 9 44 3 6 6 23 6 38 -1 33 38 121 66 154 11 14 30 23 45 22 24 0 24 -1 6
-9 -71 -29 -127 -203 -110 -338 4 -29 7 -90 7 -135 0 -52 3 -75 8 -62 4 11 6
61 3 110 -3 50 -5 95 -5 100 -2 41 15 170 29 213 12 40 27 62 58 88 23 19 47
34 53 34 6 0 12 6 15 13 2 6 8 9 12 5 11 -10 -3 -26 -48 -55 -43 -27 -66 -51
-67 -68 0 -5 5 -3 11 5 9 13 10 13 6 0 -2 -8 -9 -14 -15 -13 -26 6 -43 -211
-28 -352 7 -65 5 -61 16 -45 5 9 5 19 -2 27 -7 9 -7 13 1 13 7 0 9 4 6 10 -3
5 -8 34 -10 62 -2 29 -4 55 -5 58 -2 4 1 72 4 125 1 11 7 31 15 44 8 14 8 21
2 17 -6 -4 -11 -3 -11 2 0 10 29 26 42 24 4 -1 12 7 18 18 9 16 8 18 -5 14
-20 -8 -19 5 1 27 9 10 22 15 30 12 8 -3 14 0 14 5 0 15 29 42 45 42 7 0 15
-7 19 -15 4 -12 0 -14 -22 -10 l-27 6 25 -14 c17 -11 31 -12 49 -6 17 7 27 6
34 -3 6 -9 7 -8 3 5 -3 10 -6 21 -6 23 0 3 -4 2 -10 -1 -5 -3 -17 -2 -26 3
-11 6 -5 9 24 10 22 1 50 6 63 12 18 7 6 9 -49 6 -39 -2 -74 -1 -77 3 -2 4 1
8 8 9 7 1 26 4 42 6 53 9 121 10 133 2 7 -4 12 -2 12 6 0 9 4 8 15 -3 13 -12
28 -14 78 -8 34 5 71 5 82 2 11 -3 17 -2 13 2 -9 10 17 36 33 33 6 -2 13 2 16
9 3 7 -3 9 -16 6 -12 -3 -21 -1 -21 6 0 15 47 14 53 -1 4 -10 6 -10 6 0 1 19
-39 30 -66 18 -25 -12 -31 -26 -11 -26 7 0 2 -7 -10 -16 -12 -8 -31 -13 -41
-9 -11 3 -22 1 -26 -5 -11 -18 -35 -11 -36 13 -1 21 -1 21 -9 -3 -8 -22 -8
-21 -7 10 1 47 -8 60 -45 60 -26 0 -29 -2 -18 -15z"/>
<path d="M1518 1985 c4 -5 7 -14 7 -19 0 -5 6 -11 13 -13 7 -3 12 5 12 21 0
18 -5 24 -19 23 -11 -1 -17 -6 -13 -12z"/>
<path d="M1711 1996 c4 -4 19 -9 35 -12 16 -3 31 -9 34 -13 10 -14 70 -52 70
-44 0 22 -64 66 -103 70 -23 3 -39 2 -36 -1z"/>
<path d="M2031 1968 c-1 -15 4 -30 9 -33 6 -3 11 -25 12 -48 1 -40 2 -40 5 -7
2 19 -3 53 -11 75 -13 35 -15 37 -15 13z"/>
<path d="M1708 1962 c-16 -2 -28 -10 -28 -18 0 -8 -8 -14 -19 -14 -10 0 -21
-9 -24 -20 -4 -18 -3 -18 17 -5 13 9 26 12 31 8 4 -5 5 -2 1 5 -4 6 -2 12 3
12 6 0 11 -6 11 -14 0 -8 3 -16 8 -19 4 -2 1 -2 -6 0 -22 5 -34 -7 -21 -23 7
-8 20 -12 35 -8 19 5 24 2 24 -14 0 -14 6 -20 19 -19 24 1 21 23 -7 43 -12 8
-22 22 -22 30 0 8 -4 13 -9 10 -5 -3 -11 3 -14 13 -4 16 -1 17 31 10 20 -4 40
-6 44 -3 4 3 8 -2 8 -10 0 -18 -16 -21 -25 -6 -9 15 -25 12 -25 -5 0 -8 6 -15
13 -15 14 0 48 -35 46 -48 -3 -20 2 -33 11 -27 6 4 8 11 5 16 -3 5 1 6 9 3 26
-10 19 40 -9 74 -28 34 -66 49 -107 44z m112 -71 c6 -13 6 -22 1 -26 -9 -5
-31 24 -31 39 0 14 20 4 30 -13z"/>
<path d="M2174 1944 c4 -15 13 -41 21 -58 l13 -31 -6 40 c-3 22 -9 41 -13 43
-4 2 -5 10 -2 18 3 8 0 14 -7 14 -8 0 -10 -9 -6 -26z"/>
<path d="M1066 1898 c-40 -45 -54 -68 -43 -68 8 0 99 112 94 116 -2 3 -25 -19
-51 -48z"/>
<path d="M2070 1916 c0 -14 5 -28 10 -31 6 -4 7 -11 4 -17 -4 -6 -3 -8 3 -5
11 7 5 65 -8 73 -5 3 -9 -6 -9 -20z"/>
<path d="M1590 1911 c0 -5 -8 -7 -17 -5 -22 5 -54 -15 -36 -22 7 -3 9 -13 6
-22 -6 -14 -5 -15 9 -2 9 8 12 19 8 25 -5 6 3 10 21 11 20 1 26 -2 21 -10 -5
-6 -8 -18 -7 -26 1 -19 -14 -30 -42 -30 -14 0 -23 6 -23 15 0 8 -2 15 -4 15
-2 0 -20 7 -41 16 -34 14 -37 14 -32 0 8 -20 -8 -29 -34 -21 -20 7 -20 7 -2
24 10 10 25 21 33 24 12 4 11 6 -2 6 -9 1 -23 -5 -30 -12 -7 -7 -21 -16 -30
-20 -10 -3 -18 -14 -18 -24 0 -11 3 -14 8 -8 5 7 17 7 38 0 l31 -10 -28 -26
c-16 -15 -29 -23 -29 -18 0 5 -5 9 -10 9 -7 0 -7 -6 0 -20 6 -11 20 -20 31
-20 11 0 17 5 14 10 -3 6 0 10 7 11 7 0 5 4 -6 8 -17 7 -16 9 8 24 14 10 26
14 26 10 0 -5 5 -1 10 7 9 13 11 13 19 0 12 -18 -5 -41 -25 -33 -8 3 -14 0
-14 -6 0 -6 5 -11 10 -11 6 0 10 -10 10 -22 0 -21 0 -21 -15 -2 -8 10 -15 14
-15 8 0 -21 27 -36 47 -26 10 5 26 8 36 7 9 -2 14 1 11 7 -3 5 -17 7 -29 4
-18 -5 -23 -2 -20 12 2 9 4 22 4 27 1 6 6 3 11 -5 8 -13 10 -13 10 1 0 9 7 19
15 23 8 3 15 1 15 -5 0 -6 15 -1 34 10 40 25 50 26 42 5 -3 -8 -2 -12 4 -9 6
3 10 2 10 -4 0 -5 -6 -12 -12 -15 -7 -3 -1 -3 15 1 23 4 26 3 21 -13 -6 -17
-5 -17 9 1 14 18 14 20 -4 23 -11 2 -17 7 -14 12 3 5 12 7 19 4 8 -3 17 -1 21
5 3 6 -1 11 -9 11 -16 0 -19 9 -17 40 0 9 -2 10 -5 3 -3 -7 -12 -9 -20 -6 -8
3 -14 0 -14 -7 0 -6 4 -9 9 -6 5 3 11 -1 14 -9 4 -10 1 -12 -11 -8 -24 9 -33
25 -21 40 11 13 4 33 -12 33 -5 0 -9 -4 -9 -9z m-66 -77 c3 -8 -1 -14 -9 -14
-8 0 -14 6 -12 13 1 7 -9 12 -25 12 -20 -1 -24 2 -17 12 12 14 55 -1 63 -23z"/>
<path d="M1877 1908 c-6 -21 4 -48 19 -48 10 0 11 6 3 30 -12 33 -15 36 -22
18z"/>
<path d="M1856 1843 c8 -34 14 -42 14 -20 0 10 7 17 15 17 9 0 12 -6 9 -15 -4
-8 -2 -15 4 -15 12 0 23 26 15 34 -4 3 -15 6 -25 6 -10 0 -18 5 -18 10 0 6 -5
10 -10 10 -6 0 -8 -11 -4 -27z"/>
<path d="M1992 1800 c-1 -32 2 -61 7 -64 5 -3 8 -17 6 -31 -1 -14 4 -30 11
-36 8 -6 14 -20 14 -30 0 -11 5 -19 11 -19 8 0 9 11 5 31 -3 17 -6 37 -7 43 0
6 -4 2 -9 -9 -8 -18 -9 -18 -10 5 -2 14 -2 29 -1 34 1 4 -3 14 -9 21 -8 10 -7
15 2 19 8 4 9 8 3 11 -6 3 -9 20 -7 39 2 18 0 36 -5 39 -5 3 -10 -21 -11 -53z"/>
<path d="M2054 1824 c3 -9 6 -27 6 -40 0 -14 4 -23 8 -20 11 7 2 76 -10 76 -6
0 -7 -7 -4 -16z"/>
<path d="M1215 1798 c-27 -45 -36 -68 -26 -68 5 0 12 6 14 13 4 9 8 8 16 -3
11 -16 -2 -30 -31 -30 -20 0 -23 17 -8 55 7 17 7 24 0 20 -6 -3 -10 -13 -10
-21 0 -8 -3 -14 -7 -14 -5 0 -9 -15 -10 -33 -2 -28 1 -33 20 -33 12 0 25 5 29
10 5 7 8 4 8 -6 0 -10 5 -18 11 -18 6 0 8 7 5 16 -10 26 2 32 40 24 40 -9 67
-3 58 12 -3 5 -17 7 -30 4 -20 -5 -24 -3 -25 16 l0 23 -10 -23 c-5 -13 -13
-20 -19 -17 -6 4 -8 10 -5 15 3 5 -2 13 -11 18 -13 7 -14 13 -6 28 10 18 11
18 17 1 9 -22 63 -20 61 3 -1 10 6 14 19 12 19 -2 19 -2 2 9 -14 8 -22 8 -30
0 -6 -6 -20 -10 -31 -10 -17 1 -18 2 -3 6 22 6 22 23 -1 23 -10 0 -27 -15 -37
-32z"/>
<path d="M1729 1813 c17 -32 10 -64 -13 -61 -14 2 -22 -4 -24 -17 -4 -17 -2
-18 11 -6 9 7 21 10 26 6 6 -3 13 6 17 20 7 29 24 24 24 -8 0 -16 3 -18 9 -9
12 20 -2 77 -19 77 -8 0 -21 4 -28 9 -11 7 -12 4 -3 -11z"/>
<path d="M1814 1804 c-10 -9 -14 -13 -7 -10 6 4 14 2 18 -4 3 -5 0 -10 -8 -10
-8 0 -17 -9 -20 -20 -6 -23 11 -27 19 -5 5 11 10 13 19 5 9 -7 12 -3 13 20 1
37 -9 44 -34 24z"/>
<path d="M1315 1766 c4 -31 14 -48 24 -41 5 2 6 -7 3 -20 -5 -27 4 -31 28 -15
10 6 11 10 3 10 -21 0 -15 18 9 26 l21 6 -22 12 c-12 7 -18 15 -15 19 4 4 -2
7 -14 7 -12 0 -22 5 -22 10 0 6 -4 10 -9 10 -4 0 -7 -11 -6 -24z"/>
<path d="M2175 1782 c-5 -4 -11 -34 -12 -66 -2 -32 -1 -57 2 -55 6 7 27 129
22 129 -1 0 -6 -4 -12 -8z"/>
<path d="M1615 1743 c-11 -26 -12 -40 -5 -47 8 -8 9 -6 5 7 -5 11 -2 17 8 17
8 0 17 -6 20 -12 2 -7 11 3 21 22 l17 35 -20 -23 c-21 -24 -33 -17 -26 17 6
32 -3 25 -20 -16z"/>
<path d="M2094 1732 c2 -56 -11 -92 -25 -71 -6 11 -9 8 -9 -8 0 -12 8 -27 18
-32 9 -6 12 -11 5 -11 -7 0 -10 -7 -7 -15 11 -27 23 -16 19 18 -2 27 1 33 18
34 26 2 42 18 28 27 -6 4 -11 2 -11 -5 0 -9 -3 -10 -10 -3 -6 6 -11 32 -12 58
0 25 -4 48 -8 51 -4 2 -6 -17 -6 -43z"/>
<path d="M2134 1755 c3 -8 2 -15 -3 -15 -4 0 -6 -11 -3 -25 7 -38 17 -30 19
15 2 24 -2 40 -8 40 -6 0 -9 -7 -5 -15z"/>
<path d="M1125 1733 c-11 -40 -15 -113 -6 -113 9 0 25 129 18 137 -3 2 -8 -9
-12 -24z"/>
<path d="M1961 1729 c-1 -24 4 -39 14 -43 11 -4 15 1 15 19 0 14 -4 25 -9 25
-5 0 -12 8 -14 18 -3 9 -5 1 -6 -19z"/>
<path d="M1555 1740 c-4 -6 -1 -10 4 -10 6 0 11 -8 11 -17 0 -15 -2 -15 -9 -4
-8 12 -12 13 -26 1 -20 -16 -7 -31 22 -24 24 7 37 50 17 58 -7 3 -16 1 -19 -4z"/>
<path d="M1865 1730 c4 -7 -3 -8 -20 -4 -25 6 -26 5 -16 -15 7 -11 8 -21 2
-21 -5 0 -12 8 -16 18 -7 16 -8 15 -15 -3 -12 -29 -12 -37 3 -28 6 4 17 8 22
8 31 1 75 55 44 55 -5 0 -7 -5 -4 -10z"/>
<path d="M1430 1720 c22 -7 22 -8 5 -10 -11 -1 -25 -2 -31 -1 -6 1 -11 -12
-10 -29 1 -21 6 -30 19 -30 9 0 17 4 17 9 0 5 12 11 27 13 14 2 28 9 31 16 3
11 0 12 -17 3 -12 -7 -26 -9 -31 -6 -6 3 -10 1 -10 -4 0 -6 -4 -11 -10 -11
-20 0 -9 21 16 30 29 11 23 30 -9 29 -20 -1 -20 -2 3 -9z"/>
<path d="M1718 1713 c-10 -3 -18 -12 -18 -21 0 -14 2 -14 9 -3 5 8 16 11 25 8
13 -5 14 -12 6 -32 -15 -38 -12 -55 8 -55 10 0 13 3 6 8 -14 9 -10 39 10 61
11 12 12 20 5 31 -9 12 -10 12 -5 -2 6 -21 -2 -23 -18 -5 -6 8 -19 12 -28 10z"/>
<path d="M1305 1670 c-3 -11 -15 -20 -26 -20 -10 0 -19 -6 -19 -13 0 -9 11
-12 36 -9 25 3 35 1 30 -7 -5 -7 -1 -9 8 -5 9 3 16 1 16 -4 0 -6 -15 -12 -32
-14 -19 -2 -32 -8 -31 -15 2 -7 -9 -11 -27 -11 -17 1 -30 5 -30 10 0 5 10 8
22 6 27 -4 36 18 10 26 -11 4 -41 7 -67 8 -26 0 -42 4 -35 8 6 4 11 11 10 16
-1 5 4 10 11 13 7 2 9 -1 5 -8 -4 -6 -1 -11 8 -11 24 0 19 15 -9 28 -27 12
-29 10 -39 -30 -5 -23 -3 -28 14 -29 11 -1 26 -2 33 -3 28 -2 40 -66 12 -66
-8 0 -15 7 -15 16 0 8 4 12 10 9 6 -3 7 1 4 9 -11 27 -24 17 -24 -17 0 -27 6
-36 26 -46 20 -9 30 -9 40 0 11 9 14 8 14 -5 0 -19 16 -22 23 -3 2 6 8 8 13 4
5 -4 2 -12 -5 -16 -18 -11 -5 -32 14 -24 9 3 21 0 29 -6 7 -6 16 -8 20 -4 3 4
13 -2 22 -13 8 -10 13 -13 9 -6 -3 6 -2 12 4 12 5 0 11 -6 14 -12 4 -10 7 -10
18 0 10 9 10 12 0 12 -7 0 -10 4 -7 9 4 6 20 6 41 0 19 -6 40 -7 46 -3 6 3 21
-4 35 -17 18 -16 27 -20 35 -12 15 15 3 33 -23 33 -18 0 -19 2 -7 18 13 15 12
16 -3 4 -15 -12 -25 -11 -93 5 -17 4 -18 2 -5 -7 13 -10 13 -11 0 -7 -8 2 -15
12 -15 23 0 11 6 18 15 16 10 -1 9 2 -4 13 -19 15 -19 15 5 16 22 0 22 1 4 8
-11 5 -21 5 -23 1 -1 -4 -14 -5 -28 -2 -23 4 -25 2 -19 -17 8 -28 -3 -27 -14
0 -5 14 -18 23 -35 25 -23 2 -25 0 -16 -11 7 -8 17 -12 22 -9 5 4 8 -4 6 -17
-3 -21 2 -24 30 -27 30 -3 33 -1 27 17 -5 16 -2 21 10 21 12 0 15 -5 10 -17
-4 -10 -7 -26 -7 -36 1 -12 -4 -17 -13 -13 -7 2 -30 8 -49 12 -38 7 -43 13
-25 31 9 9 7 12 -7 12 -10 0 -28 2 -39 5 -11 2 -26 5 -32 5 -7 1 -13 6 -13 12
0 6 12 8 30 6 22 -4 31 -1 35 12 4 14 17 17 66 16 56 -1 62 1 70 23 8 21 15
24 49 20 22 -2 40 0 40 5 0 5 8 6 17 3 15 -6 15 -5 -1 13 -11 12 -13 21 -6 24
6 3 5 4 -2 3 -7 -2 -13 -9 -12 -17 1 -11 -19 -14 -97 -14 -54 1 -102 4 -106 8
-4 5 -2 17 5 27 7 11 8 20 3 20 -5 0 -13 -9 -16 -20z m118 -67 c-3 -7 -15 -11
-26 -9 -12 3 -25 5 -29 5 -5 1 -8 4 -8 9 0 4 15 7 34 8 24 0 33 -3 29 -13z"/>
<path d="M1600 1670 c13 -8 13 -10 -2 -10 -9 0 -19 -6 -21 -12 -4 -10 -8 -9
-17 2 -10 13 -11 13 -7 0 4 -17 47 -27 56 -13 3 6 15 15 26 22 15 9 16 11 3 7
-10 -3 -18 -1 -18 4 0 6 -8 10 -17 10 -15 0 -16 -2 -3 -10z"/>
<path d="M1787 1641 c-3 -13 3 -25 17 -35 20 -14 20 -15 3 -33 -12 -12 -17
-13 -15 -4 2 7 -4 16 -12 18 -9 3 -11 1 -5 -4 11 -9 15 -28 18 -90 2 -48 21
-42 19 7 0 16 4 30 9 30 5 0 9 -7 9 -16 0 -11 6 -14 20 -9 13 4 20 2 20 -7 1
-7 8 0 16 15 8 16 20 25 26 21 8 -5 9 4 5 30 -3 20 -2 34 3 31 10 -6 23 25 14
34 -4 3 -9 0 -11 -6 -3 -7 -11 -13 -19 -13 -17 0 -17 -5 -3 -31 9 -17 7 -21
-10 -26 -12 -3 -21 -12 -21 -19 0 -8 -6 -14 -14 -14 -19 0 -33 23 -18 28 15 5
16 32 2 32 -5 0 -10 9 -10 21 0 11 -4 18 -8 15 -4 -2 -14 -1 -22 5 -8 5 -10 9
-4 9 6 0 11 7 11 15 0 22 -14 18 -20 -4z"/>
<path d="M906 1605 c-3 -8 2 -19 11 -23 9 -6 14 -16 10 -25 -7 -19 8 -33 18
-17 10 17 -5 50 -23 51 -11 0 -12 3 -4 6 14 5 16 23 3 23 -5 0 -11 -7 -15 -15z"/>
<path d="M1614 1599 c0 -10 4 -15 8 -13 4 3 8 -4 8 -15 0 -12 5 -21 11 -21 5
0 7 5 4 10 -3 6 -1 10 6 10 8 0 9 3 0 13 -6 8 -8 16 -6 19 3 3 -2 8 -12 10
-13 4 -19 0 -19 -13z"/>
<path d="M1709 1620 c-6 -26 -4 -58 4 -53 6 4 8 -2 5 -15 -4 -12 -2 -25 3 -28
12 -7 11 -64 -1 -64 -5 0 -10 9 -10 19 0 11 -5 32 -12 48 -6 15 -11 31 -10 36
1 4 -2 7 -7 7 -12 0 -8 -35 8 -73 13 -34 14 -37 2 -37 -5 0 -12 14 -16 30 -5
22 -12 30 -28 30 -16 0 -18 3 -8 9 9 6 4 10 -17 13 -21 3 -29 0 -28 -10 3 -16
27 -33 38 -26 4 3 8 0 8 -6 0 -6 5 -8 10 -5 6 3 10 -2 10 -12 0 -11 5 -24 12
-31 19 -19 4 -23 -21 -5 -18 12 -20 17 -10 25 10 7 6 8 -13 5 -20 -3 -29 2
-39 20 -7 12 -16 23 -21 23 -12 0 -6 -40 7 -43 5 -1 25 -16 44 -34 19 -17 40
-29 48 -26 7 3 13 -2 13 -11 0 -19 -26 -21 -45 -3 -40 35 -43 36 -54 24 -13
-17 -2 -32 34 -44 l30 -10 -35 -8 c-19 -4 -43 -14 -52 -22 -17 -15 -38 -10
-38 8 0 6 8 8 19 4 10 -3 24 1 31 10 12 14 7 30 -8 30 -4 0 -21 10 -39 23 -19
14 -34 18 -38 12 -3 -5 -1 -10 6 -10 7 0 4 -7 -7 -15 -10 -8 -14 -15 -9 -14
28 4 45 -3 45 -16 0 -23 -15 -18 -48 15 -19 19 -40 29 -58 30 -64 0 -74 2 -74
12 0 6 -9 8 -19 5 -15 -3 -18 -1 -14 11 5 11 3 13 -6 7 -8 -4 -17 -2 -22 6 -8
12 -10 12 -18 0 -7 -11 -10 -9 -16 8 -11 36 -22 23 -22 -26 -2 -63 -7 -86 -22
-91 -8 -3 -10 5 -6 25 7 33 9 56 7 100 -2 24 -6 31 -17 27 -10 -4 -15 0 -16
12 -1 11 -2 31 -3 46 -1 15 -5 30 -9 34 -3 4 -6 -60 -6 -142 1 -82 5 -140 9
-129 4 11 6 31 3 43 -2 15 1 22 7 20 13 -4 13 -6 4 -53 -3 -19 -10 -35 -15
-35 -5 0 -9 -8 -8 -17 0 -11 3 -13 6 -5 2 6 9 10 14 6 5 -3 9 4 9 15 0 11 5
23 10 26 7 4 9 -2 4 -19 -3 -15 -2 -26 4 -26 6 0 13 18 17 40 4 25 12 40 21
40 17 0 18 -24 2 -42 -7 -7 -14 -26 -16 -43 -3 -29 -3 -29 17 -11 11 10 18 23
15 27 -3 5 0 9 5 9 13 0 13 2 2 -38 -6 -20 -6 -32 0 -32 5 0 9 5 9 10 0 6 8
10 18 8 11 -2 18 4 20 20 2 12 -2 22 -8 22 -7 0 -10 -7 -6 -15 3 -8 1 -15 -4
-15 -13 0 -12 6 1 90 7 40 17 71 25 74 8 3 14 4 14 3 0 -1 -7 -26 -14 -55 -14
-52 -13 -82 4 -82 5 0 6 -10 2 -22 -3 -14 -2 -19 6 -14 13 8 12 -28 -1 -40
-10 -10 -9 -34 2 -34 5 0 11 9 14 20 9 35 25 22 21 -17 -5 -45 4 -29 31 60 10
32 23 61 27 64 20 12 20 -9 -1 -65 -22 -58 -36 -122 -28 -122 3 0 12 24 22 53
27 85 39 107 57 107 23 0 23 0 -11 -57 -30 -50 -47 -103 -33 -103 4 0 21 27
37 61 16 34 35 63 42 66 7 3 13 11 13 19 0 16 37 38 44 25 3 -5 -10 -26 -30
-47 -42 -46 -77 -104 -64 -104 6 0 10 3 10 8 0 6 61 70 100 104 29 25 72 50
77 44 3 -3 11 2 18 10 10 14 15 15 35 4 16 -8 19 -14 11 -20 -9 -5 -8 -9 5
-14 10 -4 20 -3 22 2 4 13 42 3 42 -11 0 -5 8 -3 19 7 11 10 25 14 37 9 17 -6
17 -5 5 10 -12 16 -16 16 -30 3 -21 -19 -61 -10 -61 13 0 14 -2 14 -10 1 -6
-10 -10 -11 -10 -2 0 6 -7 12 -15 12 -10 0 -15 7 -13 17 2 12 -4 18 -16 18
-11 0 -21 5 -23 11 -4 13 27 15 43 3 12 -10 82 0 90 12 7 12 54 11 54 -1 0 -9
-39 -35 -50 -33 -3 0 -17 3 -32 7 -21 5 -28 3 -28 -8 0 -10 9 -13 30 -11 36 5
39 -2 8 -15 l-23 -9 23 0 c12 -1 22 4 22 9 0 6 6 10 13 8 6 -2 21 6 32 17 21
21 22 59 3 82 -5 7 -7 16 -4 22 3 5 3 17 -1 27 -6 15 -7 15 -14 -4 -5 -12 -15
-22 -24 -22 -16 0 -20 -12 -8 -23 3 -4 12 -2 18 3 9 8 14 5 18 -9 4 -17 -2
-21 -39 -27 -24 -3 -47 -10 -50 -15 -7 -12 -34 -11 -34 1 0 6 7 10 15 10 8 0
15 7 15 15 0 8 -4 15 -9 15 -5 0 -12 7 -15 16 -4 11 -2 15 7 11 7 -3 21 1 30
8 21 15 20 71 -3 88 -13 10 -13 10 -2 -5 10 -12 10 -18 1 -23 -8 -6 -7 -10 2
-17 11 -8 11 -9 -1 -5 -8 2 -16 12 -16 23 -1 10 -5 27 -9 37 -5 12 -2 17 10
17 9 0 13 5 10 10 -5 8 -12 7 -23 -2 -12 -10 -14 -10 -8 -1 4 7 2 21 -3 30 -6
10 -11 16 -12 13z m-524 -184 c0 -25 -3 -42 -7 -40 -5 3 -8 26 -8 51 0 59 14
48 15 -11z m542 -32 c-3 -3 -15 -1 -26 6 -17 9 -19 13 -9 24 11 11 15 10 26
-6 8 -11 12 -22 9 -24z m-293 -43 c30 4 44 -3 49 -21 3 -13 10 -18 21 -14 10
4 16 1 16 -9 0 -23 -21 -32 -34 -16 -16 21 -57 45 -88 53 -16 3 -28 11 -28 16
0 14 17 12 23 -2 3 -7 6 -2 7 12 l1 25 11 -23 c6 -12 16 -22 22 -21z m246 -16
c25 -14 24 -14 -17 -15 -41 0 -57 13 -30 23 18 8 20 8 47 -8z m-309 -24 c-6
-10 -8 -21 -5 -23 2 -3 -2 -11 -11 -18 -10 -8 -15 -9 -15 -1 0 6 6 11 13 12 9
0 9 2 0 6 -15 5 1 43 18 43 6 0 6 -6 0 -19z m223 8 c28 -13 26 -29 -3 -29 -21
0 -44 23 -34 33 8 9 8 9 37 -4z m-189 -16 c-3 -10 -7 -22 -8 -28 -1 -5 -5 -12
-8 -15 -3 -3 -11 -14 -17 -25 -18 -31 -15 5 3 49 15 35 44 53 30 19z"/>
<path d="M1104 1593 c3 -10 8 -63 12 -118 3 -55 7 -103 10 -106 2 -4 0 -10 -5
-14 -6 -3 -7 -13 -4 -23 4 -12 3 -14 -5 -7 -5 6 -12 19 -15 30 -4 18 -5 18 -6
-2 -1 -18 29 -63 42 -63 7 0 4 240 -3 245 -6 3 -5 16 0 30 8 20 6 27 -11 36
-18 9 -20 8 -15 -8z"/>
<path d="M1932 1558 c-11 -41 -3 -58 13 -28 9 17 14 19 18 9 3 -8 6 -9 6 -2 1
6 -3 14 -9 18 -5 3 -7 12 -3 20 3 8 0 15 -6 15 -6 0 -14 -15 -19 -32z"/>
<path d="M1991 1573 c1 -5 0 -11 -1 -15 -2 -10 -2 -76 0 -85 1 -5 2 -17 1 -28
-1 -19 0 -19 8 1 5 12 8 30 7 40 -2 11 1 24 6 31 5 7 5 14 -1 17 -5 3 -7 15
-4 26 3 11 0 20 -6 20 -6 0 -10 -3 -10 -7z"/>
<path d="M2027 1573 c-7 -13 5 -83 14 -83 5 0 9 14 9 30 0 17 -4 30 -10 30 -5
0 -10 4 -10 10 0 5 7 7 15 4 8 -4 15 -1 15 5 0 12 -26 15 -33 4z"/>
<path d="M992 1493 c2 -24 6 -43 11 -43 10 0 8 52 -3 70 -7 11 -9 3 -8 -27z"/>
<path d="M1021 1523 c1 -4 1 -27 0 -50 -1 -36 -4 -41 -18 -37 -16 5 -16 4 1
-10 10 -8 15 -19 11 -25 -3 -6 -1 -11 4 -11 6 0 11 3 12 8 8 70 7 122 -1 127
-6 4 -10 3 -9 -2z"/>
<path d="M1900 1516 c0 -8 -3 -22 -7 -32 -4 -12 -3 -15 5 -10 7 4 12 2 12 -3
0 -15 -27 -14 -33 2 -4 9 -6 9 -6 -1 -1 -7 10 -17 23 -22 24 -9 24 -10 11 -53
-13 -42 -6 -83 9 -58 4 6 1 11 -6 11 -9 0 -10 2 -2 8 7 4 13 16 15 27 3 11 9
20 16 20 6 0 15 3 19 8 4 4 0 7 -9 7 -9 0 -17 3 -18 8 0 4 -3 18 -5 32 -2 14
-5 33 -5 42 0 21 -19 35 -19 14z"/>
<path d="M1768 1425 c2 -14 11 -25 18 -25 15 0 17 10 8 34 -10 27 -32 19 -26
-9z"/>
<path d="M1674 1287 c-3 -9 -16 -18 -28 -21 -23 -6 -190 -165 -182 -173 2 -2
20 12 40 31 19 20 40 36 46 36 5 0 10 4 10 10 0 5 12 16 28 24 15 8 23 15 17
16 -5 0 1 7 14 16 16 12 26 13 34 5 8 -8 -1 -22 -33 -51 -24 -22 -46 -40 -49
-40 -12 -1 -85 -80 -73 -80 6 0 12 4 12 9 0 5 8 12 18 15 9 4 40 27 67 52 28
25 58 52 68 59 18 13 18 14 1 40 -14 21 -14 26 -3 25 24 -4 55 1 41 7 -6 2
-10 9 -7 13 3 5 1 11 -5 15 -6 3 -13 0 -16 -8z"/>
<path d="M1760 1260 c-8 -5 -23 -10 -33 -10 -25 0 -47 -24 -37 -39 5 -10 9 -9
13 3 4 9 16 16 27 16 11 0 20 5 20 10 0 6 7 10 15 10 8 0 15 5 15 10 0 12 -1
12 -20 0z"/>
<path d="M1749 1222 c-19 -20 -105 -93 -122 -104 -8 -5 -7 -8 4 -8 9 0 32 15
51 34 19 18 44 38 56 45 22 11 50 52 35 50 -4 0 -15 -8 -24 -17z"/>
<path d="M1600 1091 c0 -5 -13 -14 -30 -20 -18 -6 -30 -17 -30 -27 0 -16 1
-16 18 -1 10 10 22 17 26 17 9 0 36 26 36 34 0 3 -4 6 -10 6 -5 0 -10 -4 -10
-9z"/>
</g>
</svg>
